<svg width="34" height="34" viewBox="0 0 34 34" fill="none" xmlns="http://www.w3.org/2000/svg">
<path d="M14.0801 19.9213C10.835 16.676 10.1023 13.4307 9.93703 12.1305C9.89084 11.771 10.0145 11.4105 10.2717 11.155L12.8978 8.52999C13.2841 8.1439 13.3526 7.5422 13.0631 7.07911L8.88192 0.586213C8.56158 0.0734224 7.90385 -0.111649 7.36314 0.158864L0.650883 3.32031C0.213633 3.53563 -0.0435517 4.00023 0.00609326 4.48512C0.357797 7.82653 1.81444 16.0405 9.88603 24.1133C17.9576 32.186 26.1699 33.6422 29.5128 33.9939C29.9977 34.0436 30.4623 33.7864 30.6776 33.3491L33.8388 26.6363C34.1083 26.0968 33.9244 25.4408 33.4138 25.1198L26.9214 20.9395C26.4586 20.6497 25.857 20.7177 25.4706 21.1037L22.8457 23.7299C22.5903 23.9871 22.2298 24.1108 21.8703 24.0646C20.5702 23.8993 17.3251 23.1666 14.0801 19.9213Z" fill="white"/>
<path d="M26.9659 18.1726C26.3185 18.1726 25.7936 17.6477 25.7936 17.0002C25.7881 12.1461 21.8547 8.21248 17.001 8.20698C16.3535 8.20698 15.8286 7.68207 15.8286 7.03456C15.8286 6.38704 16.3535 5.86213 17.001 5.86213C23.1491 5.86892 28.1315 10.8516 28.1383 17.0002C28.1383 17.6477 27.6134 18.1726 26.9659 18.1726Z" fill="white"/>
<path d="M32.8277 18.1726C32.1802 18.1726 31.6553 17.6477 31.6553 17.0002C31.6463 8.91002 25.0906 2.3539 17.001 2.34485C16.3535 2.34485 15.8286 1.81994 15.8286 1.17243C15.8286 0.524913 16.3535 0 17.001 0C26.385 0.0103384 33.9897 7.61553 34 17.0002C34 17.3111 33.8765 17.6093 33.6566 17.8292C33.4368 18.0491 33.1386 18.1726 32.8277 18.1726Z" fill="white"/>
</svg>
