<svg width="32" height="38" viewBox="0 0 32 38" fill="none" xmlns="http://www.w3.org/2000/svg">
<path d="M29.8444 4.30159H28.7012V31.5993C28.7012 33.4127 27.1825 34.8889 25.3167 34.8889H4.52361V35.9008C4.52361 37.0596 5.4912 38 6.68335 38H29.8403C31.0324 38 32 37.0596 32 35.9008V6.4008C32 5.24207 31.0365 4.30159 29.8444 4.30159Z" fill="white"/>
<path d="M25.3126 33.6984C26.5048 33.6984 27.4724 32.758 27.4724 31.5993V2.09921C27.4724 0.940477 26.5048 0 25.3126 0H9.88417V0.694445C9.89229 0.765874 9.89642 0.841271 9.89642 0.916668V6.66667C9.89642 8.29763 8.5328 9.62303 6.85482 9.62303H0.939016C0.877776 9.62303 0.812453 9.61906 0.751213 9.61509H0V31.5993C0 32.758 0.967595 33.6984 2.15974 33.6984H25.3126ZM14.171 26.5635H6.62211C6.0587 26.5635 5.60144 26.119 5.60144 25.5715C5.60144 25.0238 6.0587 24.5794 6.62211 24.5794H14.1751C14.7385 24.5794 15.1957 25.0238 15.1957 25.5715C15.1957 26.119 14.7344 26.5635 14.171 26.5635ZM21.7239 21.5001H6.62211C6.0587 21.5001 5.60144 21.0556 5.60144 20.508C5.60144 19.9603 6.0587 19.5159 6.62211 19.5159H21.7239C22.2873 19.5159 22.7446 19.9603 22.7446 20.508C22.7446 21.0556 22.2873 21.5001 21.7239 21.5001ZM6.62211 14.1389H21.7239C22.2873 14.1389 22.7446 14.5833 22.7446 15.131C22.7446 15.6786 22.2873 16.123 21.7239 16.123H6.62211C6.0587 16.123 5.60144 15.6786 5.60144 15.131C5.60144 14.5833 6.0587 14.1389 6.62211 14.1389Z" fill="white"/>
<path d="M0.939016 8.43255H6.85482C6.8589 8.43255 6.86707 8.43255 6.87115 8.43255C7.85916 8.42461 8.65936 7.64683 8.66753 6.68651C8.66753 6.68255 8.66753 6.67461 8.66753 6.67064V0.916668C8.66753 0.384921 8.21843 0.0317461 7.75305 0.0317461C7.5285 0.0317461 7.30395 0.111111 7.11615 0.293651L0.293953 6.92461C-0.277622 7.48017 0.126563 8.43255 0.939016 8.43255Z" fill="white"/>
</svg>
