<svg width="36" height="44" viewBox="0 0 36 44" fill="none" xmlns="http://www.w3.org/2000/svg">
<path d="M6.1275 43.4534C6.15948 43.608 6.24304 43.7467 6.36413 43.8462C6.48523 43.9457 6.63648 44 6.79247 44H8.15095V40.5625C8.15095 40.3802 8.22251 40.2053 8.3499 40.0764C8.47728 39.9474 8.65004 39.875 8.83019 39.875C9.01033 39.875 9.1831 39.9474 9.31048 40.0764C9.43787 40.2053 9.50943 40.3802 9.50943 40.5625V44H10.8679V41.9375C10.8679 41.7552 10.9395 41.5803 11.0668 41.4514C11.1942 41.3224 11.367 41.25 11.5471 41.25C11.7273 41.25 11.9001 41.3224 12.0274 41.4514C12.1548 41.5803 12.2264 41.7552 12.2264 41.9375V44H19.698C19.8566 44 20.0101 43.9438 20.1321 43.8412C20.254 43.7386 20.3367 43.5961 20.3657 43.4383L20.7678 41.25H29.8866C30.0452 41.25 30.1987 41.1938 30.3207 41.0912C30.4426 40.9886 30.5253 40.8461 30.5543 40.6883L35.9882 11.1258C36.0191 10.9603 35.9889 10.789 35.9033 10.6446L29.7901 0.332064C29.7295 0.230531 29.644 0.146591 29.5419 0.0884037C29.4398 0.0302168 29.3245 -0.000237424 29.2073 1.39383e-06H16.9811C16.8638 2.39559e-05 16.7486 0.030743 16.6466 0.0891716C16.5446 0.1476 16.4593 0.23175 16.3989 0.333439L14.9664 2.75H6.79247C6.67527 2.75002 6.56006 2.78074 6.45806 2.83917C6.35606 2.8976 6.27073 2.98175 6.21037 3.08344L0.0972197 13.3959C0.00893397 13.5445 -0.0206639 13.7213 0.0143525 13.8909L6.1275 43.4534ZM27.476 4.125L31.891 11.143L27.281 37.125H21.5258L25.7996 13.8758C25.8305 13.7103 25.8003 13.539 25.7147 13.3946L20.2183 4.125H27.476ZM13.5849 33C13.5849 33.1823 13.5133 33.3572 13.3859 33.4861C13.2585 33.6151 13.0858 33.6875 12.9056 33.6875C12.7255 33.6875 12.5527 33.6151 12.4253 33.4861C12.2979 33.3572 12.2264 33.1823 12.2264 33V31.625C12.2264 31.4427 12.2979 31.2678 12.4253 31.1389C12.5527 31.0099 12.7255 30.9375 12.9056 30.9375C13.0858 30.9375 13.2585 31.0099 13.3859 31.1389C13.5133 31.2678 13.5849 31.4427 13.5849 31.625V33ZM6.79247 15.8125H12.2264V10.3125C12.2264 10.1302 12.2979 9.9553 12.4253 9.82637C12.5527 9.69743 12.7255 9.625 12.9056 9.625C13.0858 9.625 13.2585 9.69743 13.3859 9.82637C13.5133 9.9553 13.5849 10.1302 13.5849 10.3125V15.8125H19.0188C19.1989 15.8125 19.3717 15.8849 19.4991 16.0139C19.6264 16.1428 19.698 16.3177 19.698 16.5C19.698 16.6823 19.6264 16.8572 19.4991 16.9861C19.3717 17.1151 19.1989 17.1875 19.0188 17.1875H13.5849V29.5625C13.5849 29.7448 13.5133 29.9197 13.3859 30.0486C13.2585 30.1776 13.0858 30.25 12.9056 30.25C12.7255 30.25 12.5527 30.1776 12.4253 30.0486C12.2979 29.9197 12.2264 29.7448 12.2264 29.5625V17.1875H6.79247C6.61233 17.1875 6.43956 17.1151 6.31218 16.9861C6.1848 16.8572 6.11324 16.6823 6.11324 16.5C6.11324 16.3177 6.1848 16.1428 6.31218 16.0139C6.43956 15.8849 6.61233 15.8125 6.79247 15.8125Z" fill="white"/>
</svg>
