<svg width="50" height="32" viewBox="0 0 50 32" fill="none" xmlns="http://www.w3.org/2000/svg">
<path d="M4.78431 7.17687H16.9804C17.2976 5.21222 16.653 3.13247 15.0892 1.67261C15.0796 1.68252 14.5028 1.13632 14.1931 0.979921C9.65137 -1.94479 3.8252 2.13582 4.78431 7.17687Z" fill="white"/>
<path d="M19.9471 7.17687H44.5098V3.05604C44.5098 2.24364 43.851 1.58431 43.0392 1.58431H18.7471C19.7639 3.31379 20.1536 5.28178 19.9471 7.17687Z" fill="white"/>
<path d="M0 10.1203V18.2835C0 19.0959 0.658824 19.7552 1.47059 19.7552H6.27451V30.5283C6.27451 31.3407 6.93333 32 7.7451 32C8.55686 32 9.21569 31.3407 9.21569 30.5283V26.5576H40.7843V30.5283C40.7843 31.3407 41.4431 32 42.2549 32C43.0667 32 43.7255 31.3407 43.7255 30.5283V19.7552H48.5294C49.3412 19.7552 50 19.0959 50 18.2835V10.1203H0ZM40.7843 23.6141H9.21569V19.7552H40.7843V23.6141Z" fill="white"/>
</svg>
