<svg width="48" height="23" viewBox="0 0 48 23" fill="none" xmlns="http://www.w3.org/2000/svg">
<path d="M9.84375 17.7494C8.38772 17.7494 7.20309 18.9272 7.20309 20.3747C7.20309 21.8223 8.38772 23 9.84375 23C11.2998 23 12.4844 21.8223 12.4844 20.3747C12.4844 18.9272 11.2998 17.7494 9.84375 17.7494Z" fill="white"/>
<path d="M37.7812 17.7494C36.3252 17.7494 35.1406 18.9272 35.1406 20.3747C35.1406 21.8223 36.3252 23 37.7812 23C39.2373 23 40.4219 21.8223 40.4219 20.3747C40.4219 18.9272 39.2373 17.7494 37.7812 17.7494Z" fill="white"/>
<path d="M26.125 6.19823H40.6445L36.872 0H26.125V6.19823Z" fill="white"/>
<path d="M45.6764 8.99442H23.3125V0H9.1875C4.12153 0 0 4.09764 0 9.13423V21.2891H4.46972C4.41862 20.9917 4.39059 20.6865 4.39059 20.3747C4.39059 17.3853 6.83691 14.9532 9.84375 14.9532C12.8506 14.9532 15.2969 17.3853 15.2969 20.3747C15.2969 20.6864 15.2689 20.9916 15.2178 21.2891H32.4072C32.3561 20.9917 32.3281 20.6865 32.3281 20.3747C32.3281 17.3853 34.7744 14.9532 37.7812 14.9532C40.7881 14.9532 43.2344 17.3853 43.2344 20.3747C43.2344 20.6864 43.2064 20.9916 43.1553 21.2891H48V12.9124C48 11.2289 47.0608 9.75993 45.6764 8.99442ZM17.1152 8.07112H14.5625V12.8934H11.75V8.07112H9.19734V5.27493H11.75V2.73393H14.5625V5.27493H17.1152V8.07112ZM27.375 16.3053H23.25V13.5091H27.375V16.3053Z" fill="white"/>
</svg>
