<svg width="40" height="38" viewBox="0 0 40 38" fill="none" xmlns="http://www.w3.org/2000/svg">
<path d="M16.9007 7.96947e-05C15.9484 7.96947e-05 15.1288 0.723787 14.9908 1.6848L12.489 21.7008C12.4509 22.0057 12.299 22.2837 12.0651 22.4772L9.59482 24.5186L13.9292 29.0127L18.302 24.5496C18.6431 24.2014 18.831 23.7385 18.831 23.2461V1.97018C18.831 0.883902 17.9651 7.96947e-05 16.9007 7.96947e-05Z" fill="white"/>
<path d="M13.6981 32.1747L6.15521 24.3538L0.455204 28.8398C-0.0896402 29.2686 -0.155656 30.0825 0.312782 30.5969L6.70716 37.6191C7.15974 38.1161 7.92685 38.1284 8.39443 37.646L13.6981 32.1747Z" fill="white"/>
<path d="M30.4051 24.5186L27.9349 22.4772C27.7009 22.2837 27.549 22.0057 27.5109 21.7008L25.0091 1.68472C24.8712 0.723787 24.0515 0 23.0992 0C22.0348 0 21.1689 0.883822 21.1689 1.97018V23.246C21.1689 23.7384 21.3568 24.2013 21.6979 24.5495L26.0707 29.0126L30.4051 24.5186Z" fill="white"/>
<path d="M33.8447 24.3538L26.3019 32.1747L31.6056 37.646C32.0732 38.1283 32.8403 38.1161 33.2929 37.6191L39.6873 30.5969C40.1556 30.0825 40.0897 29.2686 39.5448 28.8398L33.8447 24.3538Z" fill="white"/>
</svg>
