<svg width="37" height="37" viewBox="0 0 37 37" fill="none" xmlns="http://www.w3.org/2000/svg">
<path d="M0.135208 35.7602C0.590576 30.692 5.60208 27.3668 10.4032 28.7873C15.4967 22.6165 25.1525 22.9857 29.7309 29.6325C33.4151 29.4037 36.6267 32.1362 36.9933 35.7964C37.0661 36.4661 36.5356 36.9987 35.9137 36.9987C-1.11331 36.9987 1.03189 37.0254 0.694912 36.8403C0.292908 36.6301 0.064682 36.1355 0.135208 35.7602Z" fill="white"/>
<path d="M12.6073 22.2995L13.8151 23.5054C18.5692 21.3399 23.8419 22.0377 27.7027 24.6368C29.0082 22.0602 28.5847 18.8264 26.4313 16.6764L22.3352 12.5866C21.9109 12.1637 21.223 12.1637 20.7987 12.5866L17.4709 15.9093L19.6815 18.1158C20.1058 18.5394 20.1058 19.2262 19.6815 19.6499C19.2599 20.0709 18.571 20.0752 18.145 19.6499L15.9344 17.4434L12.6073 20.7654C12.1837 21.1891 12.1837 21.8759 12.6073 22.2995Z" fill="white"/>
<path d="M0.319336 5.22517C1.03906 4.50655 4.23982 1.31066 5.23447 0.317604C5.65856 -0.105832 6.34628 -0.105904 6.77044 0.317604C7.1946 0.741111 7.1946 1.4277 6.77044 1.85121L5.08112 3.53794L17.4709 15.9093L15.9344 17.4434L3.54464 5.07205L1.85531 6.75878C1.64323 6.97053 1.36526 7.07645 1.08736 7.07645C0.128548 7.07637 -0.366936 5.91032 0.319336 5.22517Z" fill="white"/>
</svg>
