<svg width="37" height="37" viewBox="0 0 37 37" fill="none" xmlns="http://www.w3.org/2000/svg">
<path d="M18.5004 8.6719C18.2004 8.6719 17.9017 8.54905 17.6867 8.30804C16.4932 6.97055 16.4932 4.95333 17.6867 3.61584C18.1475 3.09943 18.1475 2.32055 17.6867 1.80414C17.2874 1.35674 17.3278 0.671521 17.7771 0.273844C18.2263 -0.123906 18.9141 -0.0836542 19.3134 0.363886C20.5069 1.70138 20.5069 3.7186 19.3134 5.05609C18.8526 5.5725 18.8526 6.35138 19.3134 6.86779C19.7127 7.31518 19.6722 8.00041 19.223 8.39808C19.0157 8.58164 18.7575 8.6719 18.5004 8.6719Z" fill="white"/>
<path d="M13.422 8.6719C13.122 8.6719 12.8233 8.54905 12.6082 8.30804C11.4147 6.97055 11.4147 4.95333 12.6082 3.61584C13.0691 3.09943 13.0691 2.32055 12.6082 1.80414C12.209 1.35674 12.2494 0.671521 12.6986 0.273844C13.1479 -0.123906 13.8357 -0.0836542 14.235 0.363886C15.4285 1.70138 15.4285 3.7186 14.235 5.05609C13.7742 5.5725 13.7742 6.35138 14.235 6.86779C14.6342 7.31518 14.5938 8.00041 14.1446 8.39808C13.9373 8.58164 13.6791 8.6719 13.422 8.6719Z" fill="white"/>
<path d="M23.5788 8.6719C23.2788 8.6719 22.9801 8.54905 22.7651 8.30804C21.5716 6.97055 21.5716 4.95333 22.7651 3.61584C23.2259 3.09943 23.2259 2.32055 22.7651 1.80414C22.3658 1.35674 22.4062 0.671521 22.8555 0.273844C23.3047 -0.123906 23.9925 -0.0836542 24.3918 0.363886C25.5853 1.70138 25.5853 3.7186 24.3918 5.05609C23.931 5.5725 23.931 6.35138 24.3918 6.86779C24.7911 7.31518 24.7507 8.00041 24.3014 8.39808C24.0941 8.58164 23.836 8.6719 23.5788 8.6719Z" fill="white"/>
<path d="M33.819 10.1172H34.8235C36.0255 10.1172 36.9999 9.14661 36.9999 7.94924C36.9999 6.75195 36.0255 5.78127 34.8235 5.78127H33.9334C31.9064 5.78127 30.1477 7.17492 29.6919 9.1422L28.7963 13.0078H33.1493L33.819 10.1172Z" fill="white"/>
<path d="M0.0329347 16.5656C0.176944 17.57 0.403296 18.5547 0.705462 19.5118H36.2946C36.5968 18.5548 36.8231 17.5701 36.9671 16.5658L36.989 16.4133C37.0337 16.1022 36.9407 15.7871 36.7339 15.5497C36.5271 15.3123 36.2272 15.1758 35.9117 15.1758H1.0883C0.772787 15.1758 0.47287 15.3122 0.266106 15.5496C0.0593425 15.787 -0.033665 16.1022 0.0109525 16.4132L0.0329347 16.5656Z" fill="white"/>
<path d="M10.9781 33.2861L10.2128 35.5733C10.1022 35.9038 10.1578 36.2672 10.3624 36.5499C10.5669 36.8326 10.8953 37 11.2451 37H25.7549C26.1047 37 26.4332 36.8326 26.6376 36.5499C26.8422 36.2672 26.8978 35.9039 26.7872 35.5733L26.0219 33.2861C23.6414 34.2043 21.0932 34.6875 18.5 34.6875C15.9068 34.6875 13.3587 34.2043 10.9781 33.2861Z" fill="white"/>
<path d="M1.54231 21.6797C2.64346 24.0726 4.25056 26.2244 6.27742 27.9754C9.66937 30.9058 14.0101 32.5195 18.5 32.5195C22.9899 32.5195 27.3306 30.9058 30.7226 27.9754C32.7494 26.2244 34.3566 24.0726 35.4577 21.6797H1.54231Z" fill="white"/>
</svg>
