<svg width="41" height="41" viewBox="0 0 41 41" fill="none" xmlns="http://www.w3.org/2000/svg">
<path d="M13.8001 21.8124C13.0753 20.9425 13.1929 19.65 14.0626 18.9251C14.9324 18.2003 16.225 18.3179 16.9499 19.1876L27.1998 31.4875C27.9247 32.3574 27.8072 33.6501 26.9374 34.3748C26.0676 35.0996 24.7749 34.9822 24.0502 34.1124L13.8001 21.8124Z" fill="white"/>
<path d="M16.9499 21.8123C16.225 22.6821 14.9324 22.7996 14.0626 22.0747C13.1929 21.35 13.0753 20.0574 13.8001 19.1876L24.0502 6.88758C24.7749 6.0178 26.0676 5.9003 26.9374 6.6251C27.8072 7.34991 27.9247 8.64256 27.1998 9.51234L16.9499 21.8123Z" fill="white"/>
</svg>
