<svg width="26" height="26" viewBox="0 0 26 26" fill="none" xmlns="http://www.w3.org/2000/svg">
<path d="M17.2487 12.1678C17.7083 12.7194 17.6338 13.5391 17.0823 13.9987C16.5307 14.4583 15.711 14.3838 15.2513 13.8323L8.75135 6.03231C8.29167 5.48072 8.36616 4.66094 8.91775 4.20139C9.46934 3.74171 10.2891 3.8162 10.7487 4.36779L17.2487 12.1678Z" fill="white"/>
<path d="M15.2513 12.1678C15.711 11.6162 16.5307 11.5418 17.0823 12.0014C17.6338 12.461 17.7083 13.2807 17.2487 13.8323L10.7487 21.6323C10.2891 22.1839 9.46934 22.2584 8.91775 21.7988C8.36616 21.3391 8.29167 20.5194 8.75135 19.9678L15.2513 12.1678Z" fill="white"/>
</svg>
