<svg width="41" height="41" viewBox="0 0 41 41" fill="none" xmlns="http://www.w3.org/2000/svg">
<path d="M27.1999 19.1876C27.9247 20.0575 27.8071 21.35 26.9374 22.0749C26.0676 22.7997 24.775 22.6821 24.0501 21.8124L13.8002 9.51245C13.0753 8.64264 13.1928 7.34991 14.0626 6.62524C14.9324 5.90036 16.2251 6.01782 16.9498 6.88764L27.1999 19.1876Z" fill="white"/>
<path d="M24.0501 19.1877C24.775 18.3179 26.0676 18.2004 26.9374 18.9253C27.8071 19.65 27.9247 20.9426 27.1999 21.8124L16.9498 34.1124C16.2251 34.9822 14.9324 35.0997 14.0626 34.3749C13.1928 33.6501 13.0753 32.3574 13.8002 31.4877L24.0501 19.1877Z" fill="white"/>
</svg>
