<svg width="20" height="19" viewBox="0 0 20 19" fill="none" xmlns="http://www.w3.org/2000/svg">
<path d="M11.8323 9.50014L19.6199 2.10154C20.1267 1.6203 20.1267 0.842184 19.6199 0.360936C19.1133 -0.120312 18.2943 -0.120312 17.7877 0.360936L9.99988 7.75953L2.21228 0.360936C1.70548 -0.120312 0.886669 -0.120312 0.380103 0.360936C-0.126701 0.842184 -0.126701 1.6203 0.380103 2.10154L8.1677 9.50014L0.380103 16.8987C-0.126701 17.38 -0.126701 18.1581 0.380103 18.6393C0.632555 18.8794 0.964493 19 1.29619 19C1.62789 19 1.95959 18.8794 2.21228 18.6393L9.99988 11.2407L17.7877 18.6393C18.0404 18.8794 18.3721 19 18.7038 19C19.0355 19 19.3672 18.8794 19.6199 18.6393C20.1267 18.1581 20.1267 17.38 19.6199 16.8987L11.8323 9.50014Z" fill="#666666"/>
</svg>
