<svg width="208" height="43" viewBox="0 0 208 43" fill="none" xmlns="http://www.w3.org/2000/svg">
<path d="M160.746 9.85051C153.855 8.69829 149.786 15.0846 145.98 19.7303C144.095 22.0224 141.61 24.572 138.525 24.8172C135.524 25.0501 132.799 22.8315 132.343 19.8038C131.887 16.6903 134 13.4053 137.061 13.1234C140.878 12.7801 142.019 14.8027 143.843 16.3962L145.944 13.9201C145.932 13.9079 145.932 13.9079 145.932 13.9079L146.208 13.5646C143.123 11.4563 142.847 6.05063 145.632 3.56231C148.417 1.06174 152.571 1.68689 155.092 4.23649C152.895 -0.997549 145.848 -1.20593 142.331 2.64299C140.434 4.70228 139.75 7.48478 140.134 10.0957C139.282 9.826 138.405 9.67891 137.505 9.74019C134.324 9.92406 131.407 11.8853 129.966 14.7904C127.121 20.5883 131.118 27.6978 137.433 28.1268C144.107 28.6048 147.877 22.2921 151.634 17.769C153.543 15.4646 156.088 13.0376 159.233 13.0253C162.246 13.0253 164.839 15.4401 165.043 18.5167C165.259 21.4096 163.279 24.1063 160.494 24.7191C157.805 25.3075 155.38 23.1502 153.483 21.4831L151.382 23.9592C153.579 25.8959 156.352 28.1268 159.401 28.1268C162.594 28.1268 165.62 26.2268 167.156 23.4076C170.145 17.9284 166.784 10.8557 160.746 9.85051Z" fill="#A5BADC"/>
<path d="M11.9132 16.4085C11.9132 16.2123 11.9132 16.004 11.9132 15.7711C11.9012 15.5382 11.8771 15.3053 11.8291 15.0601C11.7811 14.8272 11.6971 14.5943 11.601 14.3737C11.493 14.1531 11.361 13.9692 11.1569 13.8098V13.5769H15.9107V13.8098C15.7306 13.9692 15.5986 14.1531 15.4905 14.3737C15.3945 14.5943 15.3225 14.8272 15.2745 15.0601C15.2264 15.3053 15.2024 15.5382 15.1904 15.7711C15.1904 16.004 15.1904 16.2123 15.1904 16.4085V23.4321C15.1904 23.6283 15.1904 23.9102 15.1904 24.2902C15.2024 24.6702 15.2264 25.0747 15.2745 25.4914C15.3225 25.9082 15.3945 26.3127 15.4905 26.6804C15.5986 27.0482 15.7306 27.3056 15.9107 27.4649V27.6978H11.1569V27.4649C11.361 27.3056 11.493 27.0482 11.601 26.6804C11.6971 26.3127 11.7811 25.9082 11.8291 25.4914C11.8771 25.0747 11.9012 24.6702 11.9132 24.2902C11.9132 23.9102 11.9132 23.6283 11.9132 23.4321V22.2064H4.03814V23.4321C4.03814 23.6283 4.05015 23.9102 4.05015 24.2902C4.06215 24.6702 4.08616 25.0747 4.13418 25.4914C4.1822 25.9082 4.25423 26.3127 4.35026 26.6804C4.4463 27.0482 4.59036 27.3056 4.78243 27.4649V27.6978H0.0166016V27.4649C0.208675 27.3056 0.35273 27.0482 0.448767 26.6804C0.556809 26.3127 0.628836 25.9082 0.676855 25.4914C0.724873 25.0747 0.760887 24.6702 0.760887 24.2902C0.772892 23.9102 0.772892 23.6283 0.772892 23.4321V16.4085C0.772892 16.2123 0.772892 16.004 0.760887 15.7711C0.760887 15.5382 0.724873 15.3053 0.676855 15.0601C0.628836 14.8272 0.556809 14.5943 0.448767 14.3737C0.35273 14.1531 0.208675 13.9692 0.0166016 13.8098V13.5769H4.78243V13.8098C4.59036 13.9692 4.4463 14.1531 4.35026 14.3737C4.25423 14.5943 4.1822 14.8272 4.13418 15.0601C4.08616 15.3053 4.06215 15.5382 4.05015 15.7711C4.05015 16.004 4.03814 16.2123 4.03814 16.4085V19.0684H11.9132V16.4085Z" fill="#A5BADC"/>
<path d="M55.5855 24.4128C55.1894 24.6824 54.7092 24.805 54.145 24.805H48.3107V21.7651H54.169C54.8892 21.7651 55.4054 21.8999 55.7056 22.1818C56.0297 22.4515 56.1737 22.807 56.1737 23.236C56.1737 23.7631 55.9817 24.1676 55.5855 24.4128ZM59.1509 21.5444C58.9708 21.0174 58.6707 20.5638 58.2505 20.1593C57.8424 19.7671 57.3142 19.4606 56.6779 19.2277C56.0417 19.0071 55.2734 18.8968 54.3731 18.8968H48.3107V16.5065H53.4967C53.9769 16.5065 54.4571 16.531 54.9373 16.5556C55.4175 16.5923 55.8736 16.6291 56.3058 16.7027C56.726 16.7639 57.1101 16.862 57.4582 16.9723C57.8064 17.0949 58.0945 17.2297 58.3226 17.4013L58.4906 17.242L57.4342 13.5769H44.5413V13.8098C44.7934 14.0673 44.9374 14.3124 44.9854 14.533C45.0335 14.7659 45.0455 15.0724 45.0455 15.4646V23.4321C45.0455 23.6283 45.0455 23.9102 45.0335 24.2902C45.0335 24.6702 45.0095 25.0747 44.9614 25.4914C44.9134 25.9082 44.8414 26.3127 44.7454 26.6804C44.6493 27.0482 44.5053 27.3056 44.3252 27.4649V27.6978H54.349C55.2374 27.6978 56.0057 27.5875 56.6419 27.3669C57.2782 27.1462 57.8064 26.8398 58.2265 26.4475C58.6467 26.0553 58.9468 25.5772 59.1509 25.0379C59.343 24.4986 59.439 23.9102 59.439 23.2728C59.439 22.6476 59.355 22.0715 59.1509 21.5444Z" fill="#A5BADC"/>
<path d="M87.47 17.6343C87.9382 16.715 88.5624 15.9427 89.3427 15.3053C90.135 14.6679 91.0474 14.1899 92.0918 13.8712C93.1362 13.5525 94.2286 13.3809 95.381 13.3809C96.1853 13.3809 96.9176 13.4544 97.5779 13.5893C98.2381 13.7241 98.8383 13.8957 99.3665 14.0796C99.9067 14.2757 100.363 14.4841 100.747 14.6802C101.131 14.8886 101.443 15.0602 101.671 15.2073L100.675 18.9091H100.495C99.7747 17.9775 98.8984 17.3156 97.878 16.9111C96.8696 16.4943 95.8132 16.2982 94.7208 16.2982C94.1565 16.2982 93.5803 16.384 93.0161 16.5556C92.4519 16.7272 91.9477 16.9969 91.5035 17.3524C91.0474 17.7078 90.6872 18.1614 90.4111 18.7007C90.135 19.2401 89.991 19.8897 89.991 20.6374C89.991 21.3729 90.135 22.0103 90.4231 22.5496C90.6992 23.1012 91.0834 23.5425 91.5516 23.898C92.0317 24.2412 92.5719 24.4986 93.1962 24.6702C93.8204 24.8418 94.4687 24.9154 95.1529 24.9154C95.7652 24.9154 96.3654 24.8541 96.9656 24.7315C97.5659 24.5967 98.1421 24.4128 98.6943 24.1922C99.2465 23.947 99.7507 23.6651 100.219 23.3341C100.687 22.9909 101.095 22.6232 101.443 22.2064L101.611 22.2677L102.044 25.6999C101.323 26.1534 98.9104 27.2934 97.986 27.5263C97.0617 27.7714 96.1013 27.894 95.1169 27.894C94.0125 27.894 92.9561 27.7346 91.9597 27.4282C90.9513 27.134 90.063 26.6805 89.2947 26.0799C88.5264 25.4915 87.9142 24.7438 87.458 23.8612C86.9898 22.9787 86.7617 21.949 86.7617 20.7723C86.7617 19.5955 87.0018 18.5536 87.47 17.6343Z" fill="#A5BADC"/>
<path d="M115.813 17.0459H115.741L113.424 22.2064H118.154L115.813 17.0459ZM107.397 27.4649C107.602 27.3056 107.83 27.0482 108.058 26.6804C108.286 26.3127 108.526 25.9082 108.742 25.4914C108.958 25.0747 109.162 24.6702 109.342 24.2902L109.738 23.4321L112.836 16.4085C112.92 16.2123 113.016 16.004 113.112 15.7588C113.208 15.5259 113.28 15.2808 113.34 15.0601C113.388 14.815 113.412 14.5943 113.388 14.3737C113.376 14.1531 113.292 13.9692 113.16 13.8098V13.5769H118.07V13.8098C117.974 13.9814 117.962 14.2266 118.058 14.533C118.142 14.8517 118.286 15.2195 118.478 15.6362L122.055 23.4321L122.463 24.2902C122.655 24.6702 122.859 25.0747 123.075 25.4914C123.304 25.9082 123.52 26.3127 123.736 26.6804C123.964 27.0482 124.156 27.3056 124.336 27.4649V27.6978H119.774V27.4649C119.894 27.3056 119.954 27.1217 119.954 26.9133C119.954 26.6927 119.918 26.4843 119.858 26.2514C119.798 26.0308 119.714 25.7979 119.606 25.565L119.33 24.9398L119.246 24.9643H112.547L112.487 24.9398L112.199 25.565C112.103 25.7979 112.019 26.0308 111.947 26.2514C111.875 26.4843 111.839 26.6927 111.839 26.9133C111.827 27.1217 111.887 27.3056 111.995 27.4649V27.6978H107.397V27.4649Z" fill="#A5BADC"/>
<path d="M28.1556 24.8663V21.3974H33.6057L33.7737 18.7129H28.1556V16.3717L36.0666 16.384L37.051 13.5769H24.2061V13.8098C24.3741 13.9692 24.5062 14.1531 24.6022 14.3737C24.6982 14.5943 24.7583 14.8272 24.8063 15.0601C24.8543 15.3053 24.8783 15.5382 24.8903 15.7711C24.8903 16.004 24.8903 16.2123 24.8903 16.4085V23.4321C24.8903 23.616 24.8903 23.9102 24.8903 24.2902C24.8783 24.6702 24.8543 25.0747 24.8063 25.4914C24.7583 25.9082 24.6982 26.3127 24.6022 26.6804C24.5062 27.0482 24.3741 27.3056 24.2061 27.4649V27.6978H37.051L36.0666 24.8663H28.1556Z" fill="#A5BADC"/>
<path d="M71.4681 24.8663V21.3974H76.9061L77.0862 18.7129H71.4681V16.3717L79.3791 16.384L80.3635 13.5769H67.5186V13.8098C67.6866 13.9692 67.8187 14.1531 67.9147 14.3737C68.0107 14.5943 68.0708 14.8272 68.1188 15.0601C68.1668 15.3053 68.1908 15.5382 68.1908 15.7711C68.2028 16.004 68.2028 16.2123 68.2028 16.4085V23.4321C68.2028 23.616 68.2028 23.9102 68.1908 24.2902C68.1908 24.6702 68.1668 25.0747 68.1188 25.4914C68.0708 25.9082 68.0107 26.3127 67.9147 26.6804C67.8187 27.0482 67.6866 27.3056 67.5186 27.4649V27.6978H80.3635L79.3791 24.8663H71.4681Z" fill="#A5BADC"/>
<path d="M173.999 27.6978V27.4649C174.155 27.3301 174.263 27.134 174.359 26.8765C174.443 26.6069 174.515 26.3127 174.563 25.9817C174.623 25.6508 174.659 25.3198 174.683 24.9889C174.695 24.6579 174.707 24.3515 174.719 24.0818C174.719 23.7999 174.731 23.5792 174.731 23.4321V16.4085C174.731 16.1511 174.719 15.8446 174.695 15.5382C174.671 15.2195 174.611 14.9008 174.515 14.5943C174.407 14.2879 174.239 14.0305 173.999 13.8098V13.5769H183.075C184.143 13.5769 185.079 13.7608 185.86 14.104C186.64 14.435 187.252 14.9375 187.672 15.5872C188.104 16.2369 188.321 17.0214 188.333 17.9407C188.333 18.7497 188.152 19.4606 187.792 20.0858C187.432 20.7109 186.856 21.2012 186.076 21.5444C185.307 21.8999 184.299 22.0838 183.051 22.096H177.985V19.2032H183.183C183.519 19.2032 183.831 19.1787 184.107 19.1052C184.395 19.0316 184.623 18.8968 184.791 18.7007C184.971 18.5045 185.055 18.2104 185.067 17.8181C185.067 17.5362 185.007 17.2788 184.887 17.0826C184.755 16.8743 184.539 16.7149 184.251 16.6046C183.963 16.5065 183.567 16.4452 183.075 16.4452H177.985V23.4321C177.985 23.5792 177.985 23.7999 177.997 24.0818C177.997 24.3515 178.009 24.6579 178.033 24.9889C178.057 25.3198 178.093 25.6508 178.141 25.9817C178.201 26.3127 178.261 26.6069 178.357 26.8765C178.453 27.134 178.573 27.3301 178.705 27.4649V27.6978H173.999Z" fill="#A5BADC"/>
<path d="M197.372 27.6488V27.4894C197.624 27.3301 197.816 27.1462 197.924 26.9256C198.033 26.7172 198.093 25.234 198.117 25.0011H198.045C197.06 25.0011 196.148 24.8908 195.319 24.6824C194.479 24.4618 193.747 24.1431 193.123 23.7141C192.498 23.2973 192.006 22.7702 191.658 22.1451C191.31 21.5322 191.142 20.809 191.13 20C191.142 19.191 191.31 18.48 191.658 17.8549C192.006 17.2297 192.498 16.7027 193.123 16.2859C193.747 15.8691 194.479 15.5504 195.319 15.3298C196.148 15.1092 197.06 14.9988 198.045 14.9988H198.117C198.093 14.7537 198.033 14.5208 197.924 14.3001C197.816 14.0918 197.624 13.8956 197.372 13.7486V13.5769H201.742V13.7486C201.478 13.8956 201.286 14.0918 201.19 14.3001C201.082 14.5208 201.022 14.7537 200.998 14.9988H201.07C202.054 14.9988 202.954 15.1092 203.795 15.3298C204.635 15.5504 205.367 15.8691 205.992 16.2859C206.616 16.7027 207.108 17.2297 207.456 17.8549C207.804 18.48 207.984 19.191 207.984 20C207.984 20.809 207.804 21.5322 207.456 22.1451C207.108 22.7702 206.616 23.2973 205.992 23.7141C205.367 24.1431 204.635 24.4618 203.795 24.6824C202.954 24.8908 202.054 25.0011 201.07 25.0011H200.998C201.022 25.234 201.082 26.7172 201.19 26.9256C201.286 27.1462 201.478 27.3301 201.742 27.4894V27.6488H197.372ZM198.129 22.4883V17.5239H197.9C197.336 17.5239 196.832 17.5852 196.352 17.6955C195.872 17.8058 195.452 17.9529 195.091 18.1736C194.743 18.382 194.467 18.6516 194.263 18.9458C194.071 19.2645 193.963 19.62 193.963 20.0122C193.963 20.4167 194.071 20.76 194.263 21.0787C194.467 21.3851 194.743 21.6425 195.091 21.8509C195.452 22.0593 195.872 22.2186 196.352 22.3289C196.832 22.4393 197.336 22.4883 197.9 22.4883H198.129ZM202.762 22.3289C203.243 22.2186 203.663 22.0593 204.023 21.8509C204.371 21.6425 204.647 21.3851 204.851 21.0787C205.055 20.76 205.151 20.4167 205.151 20.0122C205.151 19.62 205.055 19.2645 204.851 18.9458C204.647 18.6516 204.371 18.382 204.023 18.1736C203.663 17.9529 203.243 17.8058 202.762 17.6955C202.294 17.5852 201.778 17.5239 201.214 17.5239H200.986V22.4883H201.214C201.778 22.4883 202.294 22.4393 202.762 22.3289Z" fill="#A5BADC"/>
<path d="M1.33691 41.1443H2.70544V36.2412H5.29843V41.1443H6.66696V35.04H1.33691V41.1443Z" fill="#A5BADC"/>
<path d="M13.1018 41.2793C13.57 41.2793 13.9902 41.1935 14.3863 41.0219C14.7705 40.8626 15.1186 40.6297 15.3947 40.3355C15.6828 40.0535 15.9109 39.7103 16.067 39.3303C16.223 38.9504 16.3071 38.5336 16.3071 38.0923C16.3071 37.651 16.235 37.2343 16.067 36.8543C15.9109 36.4743 15.6948 36.1311 15.4067 35.8369C15.1186 35.5427 14.7825 35.3221 14.3983 35.1505C14.0142 34.9911 13.582 34.9053 13.1258 34.9053C12.6697 34.9053 12.2375 34.9911 11.8534 35.1627C11.4692 35.3221 11.1331 35.555 10.845 35.8492C10.5569 36.1433 10.3288 36.4743 10.1727 36.8665C10.0166 37.2465 9.93262 37.6633 9.93262 38.0923C9.93262 38.5458 10.0166 38.9504 10.1727 39.3426C10.3288 39.7226 10.5449 40.0535 10.833 40.3477C11.1211 40.6419 11.4572 40.8626 11.8413 41.0342C12.2255 41.1935 12.6457 41.2793 13.1018 41.2793ZM13.1258 40.0658C12.7657 40.0658 12.4536 39.9677 12.1775 39.7961C11.9134 39.6123 11.6973 39.3794 11.5412 39.0852C11.3852 38.791 11.3011 38.46 11.3011 38.0923C11.3011 37.7368 11.3852 37.4059 11.5292 37.0994C11.6733 36.8053 11.8774 36.5724 12.1415 36.4008C12.4176 36.2291 12.7417 36.1311 13.1018 36.1311C13.462 36.1311 13.7861 36.2291 14.0622 36.4008C14.3383 36.5724 14.5544 36.8175 14.6984 37.1117C14.8545 37.4059 14.9385 37.7368 14.9385 38.0923C14.9385 38.46 14.8665 38.791 14.7225 39.0852C14.5664 39.3794 14.3623 39.6123 14.0862 39.7961C13.8221 39.9677 13.498 40.0658 13.1258 40.0658Z" fill="#A5BADC"/>
<path d="M18.7197 41.1443H20.1723L21.6368 38.9992L23.1134 41.1443H24.602L22.3931 38.0063L24.518 35.04H23.0534L21.6729 37.0502L20.2923 35.04H18.7918L20.9166 38.0431L18.7197 41.1443Z" fill="#A5BADC"/>
<path d="M30.1839 41.2793C30.64 41.2793 31.0722 41.1935 31.4563 41.0219C31.8525 40.8626 32.1886 40.6297 32.4767 40.3355C32.7649 40.0535 32.9929 39.7103 33.149 39.3303C33.3051 38.9504 33.3891 38.5336 33.3891 38.0923C33.3891 37.651 33.3051 37.2343 33.149 36.8543C32.9929 36.4743 32.7649 36.1311 32.4887 35.8369C32.2006 35.5427 31.8645 35.3221 31.4804 35.1505C31.0842 34.9911 30.664 34.9053 30.2079 34.9053C29.7397 34.9053 29.3195 34.9911 28.9234 35.1627C28.5392 35.3221 28.2031 35.555 27.915 35.8492C27.6269 36.1433 27.4108 36.4743 27.2547 36.8665C27.0867 37.2465 27.0146 37.6633 27.0146 38.0923C27.0146 38.5458 27.0867 38.9504 27.2427 39.3426C27.3988 39.7226 27.6269 40.0535 27.915 40.3477C28.1911 40.6419 28.5272 40.8626 28.9114 41.0342C29.2955 41.1935 29.7277 41.2793 30.1839 41.2793ZM30.2079 40.0658C29.8477 40.0658 29.5356 39.9677 29.2595 39.7961C28.9834 39.6123 28.7673 39.3794 28.6113 39.0852C28.4672 38.791 28.3832 38.46 28.3832 38.0923C28.3832 37.7368 28.4552 37.4059 28.5993 37.0994C28.7433 36.8053 28.9594 36.5724 29.2235 36.4008C29.4876 36.2291 29.8117 36.1311 30.1839 36.1311C30.544 36.1311 30.8561 36.2291 31.1322 36.4008C31.4083 36.5724 31.6244 36.8175 31.7805 37.1117C31.9365 37.4059 32.0206 37.7368 32.0206 38.0923C32.0206 38.46 31.9365 38.791 31.7925 39.0852C31.6484 39.3794 31.4323 39.6123 31.1682 39.7961C30.8921 39.9677 30.58 40.0658 30.2079 40.0658Z" fill="#A5BADC"/>
<path d="M36.6543 42.9954H38.0228V40.1884C38.1669 40.3845 38.3229 40.5561 38.515 40.7277C38.7071 40.8871 38.9232 41.0096 39.1753 41.12C39.4274 41.218 39.7275 41.2671 40.0516 41.2671C40.4117 41.2671 40.7599 41.1935 41.084 41.0587C41.4201 40.9116 41.7202 40.7155 41.9843 40.4458C42.2364 40.1761 42.4525 39.8452 42.5966 39.4529C42.7526 39.0607 42.8367 38.6071 42.8367 38.0923C42.8367 37.5897 42.7526 37.1362 42.5966 36.7317C42.4405 36.3395 42.2364 36.0085 41.9723 35.7388C41.7082 35.4569 41.4201 35.2608 41.084 35.1137C40.7479 34.9789 40.4117 34.9053 40.0516 34.9053C39.7275 34.9053 39.4514 34.9666 39.1993 35.0647C38.9472 35.1627 38.7191 35.2976 38.527 35.4692C38.3349 35.6408 38.1669 35.8369 38.0228 36.0575V35.0401H36.6543V42.9954ZM39.7275 40.0535C39.4154 40.0535 39.1272 39.9677 38.8631 39.8084C38.611 39.649 38.395 39.4284 38.2389 39.1342C38.0708 38.84 37.9988 38.4968 37.9868 38.0923C37.9988 37.7001 38.0708 37.3569 38.2389 37.0504C38.395 36.7562 38.611 36.5356 38.8631 36.364C39.1272 36.2046 39.4154 36.1188 39.7275 36.1188C40.0516 36.1188 40.3277 36.2046 40.5918 36.364C40.8439 36.5233 41.048 36.7562 41.204 37.0504C41.3601 37.3323 41.4441 37.6756 41.4441 38.0801C41.4441 38.4846 41.3601 38.84 41.204 39.1342C41.06 39.4284 40.8559 39.649 40.5918 39.8084C40.3397 39.9677 40.0516 40.0535 39.7275 40.0535Z" fill="#A5BADC"/>
<path d="M48.9475 41.2793C49.4157 41.2793 49.8479 41.1935 50.232 41.0219C50.6282 40.8626 50.9643 40.6297 51.2524 40.3355C51.5405 40.0535 51.7566 39.7103 51.9127 39.3303C52.0807 38.9504 52.1528 38.5336 52.1648 38.0923C52.1528 37.651 52.0807 37.2343 51.9247 36.8543C51.7566 36.4743 51.5405 36.1311 51.2524 35.8369C50.9763 35.5427 50.6402 35.3221 50.244 35.1505C49.8599 34.9911 49.4397 34.9053 48.9715 34.9053C48.5154 34.9053 48.0952 34.9911 47.6991 35.1627C47.3149 35.3221 46.9788 35.555 46.6907 35.8492C46.4026 36.1433 46.1865 36.4743 46.0184 36.8665C45.8624 37.2465 45.7903 37.6633 45.7783 38.0923C45.7903 38.5458 45.8624 38.9504 46.0184 39.3426C46.1745 39.7226 46.4026 40.0535 46.6787 40.3477C46.9668 40.6419 47.3029 40.8626 47.6871 41.0342C48.0712 41.1935 48.4914 41.2793 48.9475 41.2793ZM48.9715 40.0658C48.6234 40.0658 48.2993 39.9677 48.0352 39.7961C47.7591 39.6123 47.543 39.3794 47.3869 39.0852C47.2309 38.791 47.1589 38.46 47.1468 38.0923C47.1589 37.7368 47.2309 37.4059 47.3749 37.0994C47.519 36.8053 47.7231 36.5724 47.9992 36.4008C48.2633 36.2291 48.5874 36.1311 48.9475 36.1311C49.3197 36.1311 49.6318 36.2291 49.9079 36.4008C50.184 36.5724 50.4001 36.8175 50.5562 37.1117C50.7122 37.4059 50.7842 37.7368 50.7962 38.0923C50.7842 38.46 50.7122 38.791 50.5682 39.0852C50.4241 39.3794 50.208 39.6123 49.9439 39.7961C49.6678 39.9677 49.3437 40.0658 48.9715 40.0658Z" fill="#A5BADC"/>
<path d="M55.418 41.1443H56.7985V38.6805H59.4275V41.1443H60.808V35.04H59.4275V37.516H56.7985V35.04H55.418V41.1443Z" fill="#A5BADC"/>
<path d="M64.3975 41.1443H65.766V38.6805H68.407V41.1443H69.7755V35.04H68.407V37.516H65.766V35.04H64.3975V41.1443Z" fill="#A5BADC"/>
<path d="M73.3643 41.1443H76.1013C76.5695 41.1443 76.9776 41.0585 77.3138 40.8869C77.6499 40.7275 77.914 40.4947 78.0941 40.1882C78.2861 39.894 78.3702 39.5263 78.3702 39.1095C78.3702 38.656 78.2621 38.3005 78.0581 38.0063C77.854 37.7244 77.5659 37.516 77.2177 37.3812C76.8576 37.2464 76.4494 37.1728 75.9933 37.1728H74.7448V35.04H73.3643V41.1443ZM74.7448 40.0043V38.2638H75.8972C76.2454 38.2638 76.5215 38.3373 76.7135 38.4844C76.9056 38.6192 77.0017 38.8276 77.0017 39.1095C77.0017 39.4037 76.9056 39.6244 76.7135 39.7837C76.5335 39.9308 76.2694 40.0043 75.9212 40.0043H74.7448ZM79.2825 41.1443H80.6511V35.04H79.2825V41.1443Z" fill="#A5BADC"/>
<path d="M86.9783 34.3291C87.3024 34.3291 87.5905 34.2556 87.8426 34.133C88.0827 33.9982 88.2868 33.8143 88.4428 33.5692C88.5989 33.3363 88.6949 33.0543 88.7549 32.7234L87.9266 32.564C87.8546 32.8092 87.7465 32.993 87.5905 33.1401C87.4344 33.275 87.2424 33.3363 86.9783 33.3485C86.7262 33.3363 86.5341 33.275 86.378 33.1401C86.222 32.993 86.1139 32.8092 86.0419 32.564L85.2016 32.7234C85.2616 33.0543 85.3576 33.3363 85.5137 33.5692C85.6818 33.8143 85.8858 33.9982 86.1259 34.133C86.378 34.2556 86.6661 34.3291 86.9783 34.3291ZM84.2412 41.1444H85.5377L88.3828 37.0749V41.1444H89.7033V35.0401H88.4068C87.9386 35.7143 87.4584 36.4007 86.9903 37.0749C86.5221 37.7613 86.0539 38.4477 85.5857 39.1341V35.0401H84.2412V41.1444Z" fill="#A5BADC"/>
<path d="M101.396 41.2793C101.864 41.2793 102.296 41.1935 102.68 41.0219C103.076 40.8626 103.413 40.6297 103.701 40.3355C103.989 40.0535 104.205 39.7103 104.361 39.3303C104.529 38.9504 104.601 38.5336 104.601 38.0923C104.601 37.651 104.529 37.2343 104.373 36.8543C104.205 36.4743 103.989 36.1311 103.701 35.8369C103.413 35.5427 103.076 35.3221 102.692 35.1505C102.308 34.9911 101.888 34.9053 101.42 34.9053C100.964 34.9053 100.543 34.9911 100.147 35.1627C99.7632 35.3221 99.427 35.555 99.1389 35.8492C98.8508 36.1433 98.6347 36.4743 98.4667 36.8665C98.3106 37.2465 98.2266 37.6633 98.2266 38.0923C98.2266 38.5458 98.3106 38.9504 98.4667 39.3426C98.6227 39.7226 98.8508 40.0535 99.1269 40.3477C99.415 40.6419 99.7512 40.8626 100.135 41.0342C100.519 41.1935 100.94 41.2793 101.396 41.2793ZM101.42 40.0658C101.06 40.0658 100.748 39.9677 100.471 39.7961C100.207 39.6123 99.9912 39.3794 99.8352 39.0852C99.6791 38.791 99.5951 38.46 99.5951 38.0923C99.5951 37.7368 99.6791 37.4059 99.8232 37.0994C99.9672 36.8053 100.171 36.5724 100.447 36.4008C100.712 36.2291 101.036 36.1311 101.396 36.1311C101.768 36.1311 102.08 36.2291 102.356 36.4008C102.632 36.5724 102.848 36.8175 103.004 37.1117C103.148 37.4059 103.232 37.7368 103.232 38.0923C103.232 38.46 103.16 38.791 103.016 39.0852C102.872 39.3794 102.656 39.6123 102.38 39.7961C102.116 39.9677 101.792 40.0658 101.42 40.0658Z" fill="#A5BADC"/>
<path d="M107.866 41.1443H109.247V38.6805H111.876V41.1443H113.256V35.04H111.876V37.516H109.247V35.04H107.866V41.1443Z" fill="#A5BADC"/>
<path d="M116.797 41.2056C117.062 41.2179 117.302 41.1811 117.53 41.1198C117.758 41.0585 117.95 40.9237 118.118 40.7398C118.298 40.5437 118.442 40.274 118.562 39.9063C118.682 39.5386 118.778 39.0482 118.838 38.4599C118.91 37.8592 118.934 37.1238 118.934 36.2412H120.807V41.1443H122.176V35.04H117.662C117.662 35.8 117.65 36.4619 117.626 37.0135C117.59 37.5651 117.554 38.0309 117.506 38.3986C117.458 38.7663 117.398 39.0605 117.338 39.2811C117.266 39.5018 117.194 39.6611 117.098 39.7714C117.014 39.8818 116.918 39.9431 116.821 39.9798C116.713 40.0166 116.605 40.0289 116.497 40.0289C116.461 40.0289 116.425 40.0289 116.365 40.0289C116.317 40.0166 116.269 40.0166 116.221 40.0043C116.173 40.0043 116.125 39.9921 116.101 39.9798L115.993 41.1321C116.065 41.1443 116.149 41.1566 116.245 41.1688C116.341 41.1811 116.437 41.1933 116.533 41.1933C116.641 41.2056 116.725 41.2056 116.797 41.2056Z" fill="#A5BADC"/>
<path d="M130.782 41.1444V37.5162C130.782 36.9768 130.686 36.511 130.506 36.1311C130.302 35.7388 130.014 35.4446 129.63 35.2485C129.234 35.0401 128.753 34.9421 128.165 34.9421C127.841 34.9421 127.541 34.9666 127.289 35.0033C127.025 35.0524 126.773 35.1137 126.545 35.1872C126.329 35.2608 126.1 35.3466 125.884 35.4446L126.257 36.5723C126.521 36.4498 126.797 36.3639 127.061 36.2904C127.337 36.2291 127.637 36.1923 127.973 36.1923C128.441 36.1923 128.813 36.3027 129.066 36.5233C129.318 36.7439 129.438 37.0749 129.438 37.5039V37.6142C129.294 37.5652 129.126 37.5162 128.97 37.4794C128.801 37.4426 128.633 37.4181 128.441 37.3936C128.249 37.3691 128.033 37.3568 127.793 37.3568C127.313 37.3568 126.905 37.4304 126.545 37.5775C126.172 37.7246 125.884 37.9452 125.68 38.2394C125.476 38.5336 125.368 38.9135 125.368 39.3548C125.368 39.6735 125.416 39.9432 125.536 40.1883C125.656 40.4212 125.8 40.6174 126.004 40.7767C126.196 40.9361 126.425 41.0586 126.677 41.1444C126.941 41.2303 127.205 41.267 127.493 41.267C127.793 41.267 128.069 41.2303 128.309 41.1444C128.549 41.0709 128.765 40.9728 128.946 40.838C129.138 40.7032 129.294 40.5561 129.426 40.3845V41.1444H130.782ZM129.462 38.9258C129.462 39.1832 129.39 39.4161 129.258 39.6C129.114 39.7961 128.934 39.9432 128.693 40.0535C128.453 40.1638 128.177 40.2129 127.877 40.2129C127.661 40.2129 127.469 40.1761 127.289 40.1148C127.121 40.0413 126.977 39.9432 126.881 39.8084C126.773 39.6735 126.725 39.5019 126.725 39.3181C126.725 38.9994 126.845 38.7665 127.085 38.5948C127.325 38.4232 127.661 38.3497 128.093 38.3374C128.357 38.3497 128.609 38.362 128.85 38.411C129.078 38.46 129.282 38.509 129.462 38.5826V38.9258Z" fill="#A5BADC"/>
<path d="M137.025 34.3291C137.349 34.3291 137.637 34.2556 137.889 34.133C138.13 33.9982 138.334 33.8143 138.49 33.5692C138.646 33.3363 138.742 33.0543 138.802 32.7234L137.973 32.564C137.901 32.8092 137.781 32.993 137.637 33.1401C137.481 33.275 137.277 33.3363 137.025 33.3485C136.773 33.3363 136.581 33.275 136.425 33.1401C136.269 32.993 136.161 32.8092 136.089 32.564L135.248 32.7234C135.308 33.0543 135.405 33.3363 135.561 33.5692C135.717 33.8143 135.921 33.9982 136.173 34.133C136.425 34.2556 136.713 34.3291 137.025 34.3291ZM134.288 41.1444H135.585L138.43 37.0749V41.1444H139.75V35.0401H138.454C137.985 35.7143 137.505 36.4007 137.037 37.0749C136.569 37.7613 136.101 38.4477 135.621 39.1341V35.0401H134.288V41.1444Z" fill="#A5BADC"/>
<path d="M143.34 41.1443H144.708V38.6805H147.349V41.1443H148.718V35.04H147.349V37.516H144.708V35.04H143.34V41.1443Z" fill="#A5BADC"/>
<path d="M152.079 38.2883H155.44V36.9031H152.079V38.2883Z" fill="#A5BADC"/>
<path d="M161.563 41.2793C161.947 41.2793 162.295 41.2303 162.583 41.1322C162.883 41.0342 163.147 40.8993 163.375 40.7277C163.603 40.5561 163.82 40.36 164.012 40.1393L163.183 39.3058C162.967 39.5265 162.739 39.7103 162.487 39.8574C162.235 39.9923 161.959 40.0658 161.635 40.0658C161.275 40.0658 160.974 39.9677 160.698 39.7961C160.434 39.6245 160.23 39.3916 160.074 39.0852C159.93 38.8033 159.846 38.46 159.846 38.0923V38.0801C159.846 37.7123 159.918 37.3936 160.074 37.0994C160.218 36.8053 160.422 36.5724 160.674 36.4008C160.938 36.2291 161.227 36.1311 161.563 36.1311C161.791 36.1311 161.995 36.1679 162.187 36.2291C162.367 36.2904 162.535 36.3762 162.679 36.4988C162.835 36.6091 162.979 36.744 163.123 36.8911L163.964 35.9595C163.784 35.7511 163.579 35.5672 163.351 35.4079C163.123 35.2485 162.871 35.126 162.583 35.0401C162.283 34.9543 161.959 34.9053 161.575 34.9053C161.131 34.9053 160.71 34.9911 160.338 35.1627C159.954 35.3221 159.63 35.555 159.354 35.8492C159.078 36.1433 158.862 36.4866 158.706 36.8665C158.55 37.2465 158.478 37.6633 158.478 38.0923V38.1168C158.478 38.5581 158.55 38.9626 158.706 39.3426C158.862 39.7226 159.078 40.0658 159.354 40.3477C159.63 40.6419 159.954 40.8626 160.338 41.0342C160.71 41.1935 161.119 41.2793 161.563 41.2793Z" fill="#A5BADC"/>
<path d="M169.605 41.2793C170.146 41.2671 170.626 41.169 171.022 40.9606C171.43 40.7645 171.766 40.4826 172.042 40.1271L171.238 39.4039C171.01 39.6368 170.758 39.8206 170.506 39.9432C170.242 40.0658 169.954 40.1271 169.629 40.1271C169.329 40.1271 169.053 40.0781 168.813 39.9555C168.573 39.8329 168.381 39.6613 168.213 39.4284C168.057 39.1955 167.949 38.9136 167.901 38.5826H172.294C172.306 38.5581 172.306 38.5213 172.306 38.4723C172.318 38.4233 172.318 38.3742 172.318 38.3252C172.318 38.2639 172.318 38.2271 172.318 38.1904C172.318 37.7491 172.258 37.3323 172.138 36.9401C172.018 36.5478 171.838 36.1924 171.598 35.8859C171.358 35.5917 171.058 35.3466 170.698 35.175C170.35 35.0034 169.93 34.9053 169.449 34.9053C169.017 34.9053 168.633 34.9911 168.273 35.1627C167.925 35.3221 167.613 35.555 167.349 35.8492C167.084 36.1311 166.892 36.4743 166.748 36.8543C166.604 37.2343 166.532 37.651 166.532 38.0923C166.532 38.5704 166.616 38.9994 166.772 39.3916C166.916 39.7839 167.132 40.1148 167.421 40.3968C167.697 40.6787 168.021 40.8993 168.393 41.0464C168.765 41.1935 169.161 41.2793 169.605 41.2793ZM167.889 37.6633C167.937 37.3446 168.021 37.0627 168.165 36.8175C168.297 36.5846 168.477 36.3885 168.693 36.2537C168.909 36.1188 169.161 36.0575 169.437 36.0575C169.749 36.0575 170.002 36.1311 170.218 36.2659C170.434 36.413 170.602 36.5969 170.734 36.842C170.854 37.0872 170.926 37.3569 170.962 37.6633H167.889Z" fill="#A5BADC"/>
<path d="M175.572 42.9954H176.941V40.1884C177.085 40.3845 177.241 40.5561 177.433 40.7277C177.625 40.8871 177.853 41.0096 178.105 41.12C178.357 41.218 178.645 41.2671 178.97 41.2671C179.33 41.2671 179.678 41.1935 180.002 41.0587C180.338 40.9116 180.638 40.7155 180.902 40.4458C181.166 40.1761 181.37 39.8452 181.527 39.4529C181.671 39.0607 181.755 38.6071 181.755 38.0923C181.755 37.5897 181.671 37.1362 181.527 36.7317C181.37 36.3395 181.154 36.0085 180.902 35.7388C180.638 35.4569 180.338 35.2608 180.002 35.1137C179.666 34.9789 179.33 34.9053 178.97 34.9053C178.657 34.9053 178.369 34.9666 178.117 35.0647C177.865 35.1627 177.649 35.2976 177.445 35.4692C177.253 35.6408 177.085 35.8369 176.941 36.0575V35.0401H175.572V42.9954ZM178.657 40.0535C178.345 40.0535 178.057 39.9677 177.793 39.8084C177.529 39.649 177.313 39.4284 177.157 39.1342C176.989 38.84 176.917 38.4968 176.905 38.0923C176.917 37.7001 176.989 37.3569 177.157 37.0504C177.313 36.7562 177.529 36.5356 177.793 36.364C178.057 36.2046 178.345 36.1188 178.657 36.1188C178.97 36.1188 179.258 36.2046 179.51 36.364C179.774 36.5233 179.978 36.7562 180.134 37.0504C180.278 37.3323 180.362 37.6756 180.362 38.0801C180.362 38.4846 180.278 38.84 180.134 39.1342C179.978 39.4284 179.774 39.649 179.522 39.8084C179.258 39.9677 178.97 40.0535 178.657 40.0535Z" fill="#A5BADC"/>
<path d="M185.031 41.1443H188.128C188.585 41.1443 188.981 41.0708 189.305 40.9359C189.641 40.8134 189.893 40.6172 190.073 40.3721C190.253 40.1269 190.337 39.8327 190.337 39.4895C190.337 39.1953 190.289 38.9502 190.181 38.7541C190.073 38.5457 189.929 38.3863 189.749 38.2515C189.569 38.1289 189.353 38.0309 189.113 37.9573C189.281 37.8838 189.437 37.7857 189.581 37.6631C189.725 37.5405 189.845 37.3935 189.929 37.2096C190.025 37.038 190.061 36.8173 190.073 36.5599C190.061 36.2412 189.989 35.9716 189.821 35.7509C189.665 35.518 189.437 35.3464 189.137 35.2238C188.849 35.1013 188.501 35.04 188.092 35.04H185.031V41.1443ZM186.376 40.0289V38.5089H187.864C188.236 38.5089 188.501 38.5702 188.681 38.705C188.861 38.8399 188.945 39.0237 188.945 39.2444C188.945 39.4895 188.861 39.6734 188.693 39.8205C188.513 39.9553 188.26 40.0289 187.924 40.0289H186.376ZM186.376 37.5528V36.1064H187.804C188.104 36.1064 188.333 36.1799 188.477 36.3025C188.609 36.4374 188.681 36.609 188.681 36.8051C188.681 37.0257 188.597 37.2096 188.453 37.3444C188.297 37.4793 188.068 37.5528 187.78 37.5528H186.376Z" fill="#A5BADC"/>
<path d="M193.579 41.1443H194.876L197.721 37.0748V41.1443H199.041V35.04H197.745C197.277 35.7142 196.796 36.4006 196.328 37.0748C195.86 37.7612 195.392 38.4476 194.924 39.134V35.04H193.579V41.1443Z" fill="#A5BADC"/>
<path d="M205.392 41.2793C205.776 41.2793 206.124 41.2303 206.412 41.1322C206.712 41.0342 206.976 40.8993 207.205 40.7277C207.433 40.5561 207.649 40.36 207.841 40.1393L207.012 39.3058C206.796 39.5265 206.568 39.7103 206.316 39.8574C206.064 39.9923 205.776 40.0658 205.464 40.0658C205.104 40.0658 204.792 39.9677 204.528 39.7961C204.263 39.6245 204.047 39.3916 203.903 39.0852C203.747 38.8033 203.675 38.46 203.675 38.0923V38.0801C203.675 37.7123 203.747 37.3936 203.891 37.0994C204.047 36.8053 204.239 36.5724 204.503 36.4008C204.756 36.2291 205.056 36.1311 205.392 36.1311C205.62 36.1311 205.824 36.1679 206.004 36.2291C206.196 36.2904 206.364 36.3762 206.508 36.4988C206.664 36.6091 206.808 36.744 206.94 36.8911L207.793 35.9595C207.613 35.7511 207.409 35.5672 207.181 35.4079C206.952 35.2485 206.7 35.126 206.4 35.0401C206.112 34.9543 205.776 34.9053 205.404 34.9053C204.96 34.9053 204.54 34.9911 204.167 35.1627C203.783 35.3221 203.459 35.555 203.183 35.8492C202.907 36.1433 202.691 36.4866 202.535 36.8665C202.379 37.2465 202.307 37.6633 202.307 38.0923V38.1168C202.307 38.5581 202.379 38.9626 202.535 39.3426C202.691 39.7226 202.907 40.0658 203.183 40.3477C203.459 40.6419 203.783 40.8626 204.155 41.0342C204.54 41.1935 204.948 41.2793 205.392 41.2793Z" fill="#A5BADC"/>
</svg>
