<svg width="15" height="24" viewBox="0 0 15 24" fill="none" xmlns="http://www.w3.org/2000/svg">
<path d="M7.33317 3.63012C8.74738 3.63012 9.89773 4.78047 9.89773 6.19469C9.89773 7.60772 8.74709 8.75807 7.33317 8.75807C5.91984 8.75807 4.76919 7.60772 4.76919 6.19469C4.76889 4.78018 5.92013 3.63012 7.33317 3.63012ZM7.33317 12.3864C10.7492 12.3864 13.5273 9.60927 13.5273 6.19469C13.5273 2.77833 10.7495 0 7.33317 0C3.9174 0 1.13907 2.77863 1.13907 6.19469C1.13907 9.60927 3.9174 12.3864 7.33317 12.3864ZM9.83903 17.4388C11.1133 17.1486 12.3293 16.6451 13.4356 15.9495C13.843 15.6933 14.1318 15.2857 14.2386 14.8165C14.3454 14.3473 14.2614 13.8548 14.0052 13.4475C13.8785 13.2456 13.7132 13.0707 13.5188 12.9328C13.3244 12.7948 13.1047 12.6966 12.8723 12.6436C12.6399 12.5906 12.3993 12.584 12.1643 12.624C11.9294 12.6641 11.7046 12.7501 11.5029 12.8771C8.9653 14.4725 5.69925 14.4713 3.16374 12.8771C2.96206 12.7501 2.73732 12.664 2.50236 12.6239C2.2674 12.5839 2.02684 12.5905 1.79445 12.6435C1.56206 12.6965 1.3424 12.7947 1.14803 12.9327C0.953667 13.0707 0.788415 13.2456 0.661733 13.4475C0.405397 13.8547 0.321302 14.3471 0.427942 14.8163C0.534582 15.2855 0.823224 15.6931 1.23038 15.9495C2.33669 16.6448 3.55246 17.1483 4.82641 17.4388L1.3638 20.902C1.02352 21.2424 0.832403 21.704 0.832486 22.1853C0.83257 22.6666 1.02385 23.1282 1.36425 23.4685C1.70464 23.8087 2.16628 23.9999 2.64759 23.9998C3.1289 23.9997 3.59046 23.8084 3.93074 23.468L7.33257 20.0656L10.7365 23.4683C10.9048 23.6369 11.1047 23.7706 11.3247 23.8618C11.5447 23.953 11.7806 24 12.0188 24C12.257 24 12.4928 23.953 12.7128 23.8618C12.9329 23.7706 13.1327 23.6369 13.301 23.4683C13.4698 23.3 13.6038 23.1001 13.6952 22.8799C13.7865 22.6598 13.8336 22.4238 13.8336 22.1854C13.8336 21.9471 13.7865 21.7111 13.6952 21.4909C13.6038 21.2708 13.4698 21.0708 13.301 20.9026L9.83903 17.4388Z" fill="#A5BADC"/>
</svg>
