<svg width="76" height="90" viewBox="0 0 76 90" fill="none" xmlns="http://www.w3.org/2000/svg">
<path d="M66.0923 5.62646L57.6407 78.7501H18.2798L9.82825 16.8624L66.0923 5.62646Z" fill="#CCD1D9"/>
<path d="M28.419 50.4718C30.7238 53.1563 34.1424 54.8438 37.9674 54.8438C41.7784 54.8438 45.1955 53.1563 47.5159 50.4844C49.4565 48.2766 50.6237 45.353 50.6237 42.189V32.3452C50.6237 25.3547 44.9424 19.689 37.9674 19.689C30.9783 19.689 25.3112 25.3547 25.3112 32.3452V42.189C25.3112 45.353 26.4783 48.2626 28.419 50.4718Z" fill="#AAB2BD"/>
<path d="M66.0923 0.00146484V5.62646L9.82825 16.8624V11.2515L66.0923 0.00146484Z" fill="#AAB2BD"/>
<path d="M64.672 82.9688V87.1875H11.2485V82.9688H15.4532H60.4673H64.672Z" fill="#656D78"/>
<path d="M37.9674 48.5156L35.1549 49.2188V47.8125V45.8452L35.169 45.817C36.0268 46.1827 36.969 46.3936 37.9674 46.3936C38.9659 46.3936 39.9221 46.1827 40.7799 45.803V45.817V47.8125V49.2188L37.9674 48.5156Z" fill="white"/>
<path d="M44.9987 36.5498V39.3764C44.9987 42.2451 43.2549 44.7201 40.7799 45.8029C39.9221 46.1826 38.9659 46.3936 37.9674 46.3936C36.969 46.3936 36.0268 46.1826 35.169 45.817C32.6799 44.7342 30.9362 42.2592 30.9362 39.3764V39.3623V36.5639L33.7487 35.1576C33.7487 35.1576 35.1549 36.5639 37.9674 36.5639C40.7799 36.5639 42.1862 35.1436 42.1862 35.1436L44.9987 36.5498Z" fill="#E6E9ED"/>
<path d="M30.9362 33.7515C30.9362 30.6437 33.4393 28.1265 36.5612 28.1265H42.1862V30.939C43.733 30.939 44.9987 32.1919 44.9987 33.7374V36.5499L42.1862 35.1437C42.1862 35.1437 40.7799 36.564 37.9674 36.564C35.1549 36.564 33.7487 35.1577 33.7487 35.1577L30.9362 36.564V33.7515Z" fill="white"/>
<path d="M35.1549 47.8125V49.2188L37.9674 48.5156L40.7799 49.2188V47.8125H43.5924C45.3797 47.8125 46.883 48.9234 47.5158 50.4844C45.1955 53.1548 41.7783 54.8438 37.9674 54.8438C34.1424 54.8438 30.7252 53.1562 28.4189 50.4717C29.0377 48.9094 30.5579 47.8125 32.3424 47.8125H35.1549Z" fill="#E6E9ED"/>
<path d="M60.4673 78.75V82.9688H15.4532V78.75H18.2798H57.6408H60.4673Z" fill="#545C66"/>
<path d="M74.5144 89.9988H1.40625C0.628594 89.9988 0 89.3702 0 88.5925C0 87.8149 0.628594 87.1863 1.40625 87.1863H74.5144C75.292 87.1863 75.9206 87.8149 75.9206 88.5925C75.9206 89.3702 75.292 89.9988 74.5144 89.9988Z" fill="#6DC2FF"/>
<path d="M52.0228 66.0967H23.8978C23.1202 66.0967 22.4916 65.4681 22.4916 64.6904C22.4916 63.9128 23.1202 63.2842 23.8978 63.2842H52.0228C52.8005 63.2842 53.4291 63.9128 53.4291 64.6904C53.4291 65.4681 52.8005 66.0967 52.0228 66.0967Z" fill="#AAB2BD"/>
<path d="M52.0228 61.8723H23.8978C23.1202 61.8723 22.4916 61.2437 22.4916 60.4661C22.4916 59.6884 23.1202 59.0598 23.8978 59.0598H52.0228C52.8005 59.0598 53.4291 59.6884 53.4291 60.4661C53.4291 61.2437 52.8005 61.8723 52.0228 61.8723Z" fill="#AAB2BD"/>
<path d="M43.5882 70.3154H32.3325C31.5549 70.3154 30.9263 69.6868 30.9263 68.9092C30.9263 68.1315 31.5549 67.5029 32.3325 67.5029H43.5882C44.3658 67.5029 44.9944 68.1315 44.9944 68.9092C44.9944 69.6868 44.3658 70.3154 43.5882 70.3154Z" fill="#AAB2BD"/>
</svg>
