<svg width="92" height="78" viewBox="0 0 92 78" fill="none" xmlns="http://www.w3.org/2000/svg">
<path d="M87.3159 66.2265L83.4011 60.3397L76.5283 50.0378H14.717L10.7875 55.9246L0 72.1133H13.0245H78.2208H91.2453L87.3159 66.2265Z" fill="#6DC2FF"/>
<path d="M42.532 57.3962C40.766 55.5993 38.4098 53.0709 35.9521 50.0377C30.0226 42.694 23.5471 32.3185 23.5471 22.0755C23.5471 9.88981 33.4222 0 45.6226 0C57.823 0 67.6981 9.88981 67.6981 22.0755C67.6981 32.3185 61.2226 42.694 55.2916 50.0377C52.8339 53.0709 50.4777 55.5993 48.7117 57.3962H48.697C46.8426 59.2653 45.6211 60.3396 45.6211 60.3396C45.6211 60.3396 44.4011 59.2653 42.532 57.3962Z" fill="#545C66"/>
<path d="M87.3159 66.2264H78.5004H78.4857L72.5989 60.3396H83.4011L87.3159 66.2264Z" fill="#AAB2BD"/>
<path d="M54.6 63.283L60.9724 57.3962L68.9785 70.6415H34.0404L28.1536 64.7547L54.6 63.283Z" fill="#AAB2BD"/>
<path d="M87.3158 66.2266L91.2453 72.1134H78.2207L75.4098 66.2266H87.3158Z" fill="#E6E9ED"/>
<path d="M45.6226 60.3396C45.6226 60.3396 46.8441 59.2653 48.6985 57.3962H48.7132H60.9724L63.0917 64.7547H28.1536L30.2728 57.3962H42.5321C44.4011 59.2653 45.6226 60.3396 45.6226 60.3396Z" fill="#E6E9ED"/>
<path d="M20.7362 55.9246L13.0245 72.1132H0L10.7875 55.9246H20.7362Z" fill="#E6E9ED"/>
<path d="M26.623 61.8114L21.7149 72.1132H13.0245L20.7362 55.9246L26.623 61.8114Z" fill="#AAB2BD"/>
<path d="M91.2453 72.1133V78.0001H0V72.1133H13.0245H78.2208H91.2453Z" fill="#62BAF9"/>
<path d="M83.4011 60.3397H72.6136H72.5989L67.6981 50.0378H76.5283L83.4011 60.3397Z" fill="#E6E9ED"/>
<path d="M54.4529 20.6039V30.9058H36.7925V20.6039C36.7925 15.7325 40.7513 11.7737 45.6227 11.7737C50.494 11.7737 54.4529 15.7325 54.4529 20.6039Z" fill="#CCD1D9"/>
<path d="M55.9246 30.9055V35.3206H35.3208V30.9055H36.7925H54.4529H55.9246Z" fill="#656D78"/>
</svg>
