<svg width="78" height="84" viewBox="0 0 78 84" fill="none" xmlns="http://www.w3.org/2000/svg">
<path d="M51.9999 10.8387V0H8.64508V4.06452V75.871H58.7741H62.8386V10.8387H51.9999Z" fill="#E6E9ED"/>
<path d="M31.6638 16.9354V24.387H19.4702V23.0322V16.9354C19.4702 13.5618 22.207 10.8386 25.567 10.8386C28.9405 10.8386 31.6638 13.5618 31.6638 16.9354Z" fill="#AAB2BD"/>
<path d="M8.64508 75.8709H58.7741V79.9354H54.7096L4.58057 79.9219V8.12897V4.06445H8.64508V75.8709Z" fill="#CCD1D9"/>
<path d="M33.0186 24.3872V28.4517H18.1154V24.3872H19.4703H31.6638H33.0186Z" fill="#62BAF9"/>
<path d="M4.58057 79.9218L54.7096 79.9354V83.9999L0.516052 83.9863V8.12891H4.58057V79.9218Z" fill="#E6E9ED"/>
<path d="M62.8386 10.8387H51.9999V0L62.8386 10.8387Z" fill="#F5F7FA"/>
<path d="M70.9677 67.7286C70.2185 67.7286 69.6129 67.123 69.6129 66.3737V63.6627C69.6129 62.9135 70.2185 62.3079 70.9677 62.3079C71.7169 62.3079 72.3225 62.9135 72.3225 63.6627V66.3737C72.3225 67.123 71.7169 67.7286 70.9677 67.7286Z" fill="#AC92EC"/>
<path d="M76.387 21.6652C75.6378 21.6652 75.0322 21.0596 75.0322 20.3104C75.0322 19.5625 74.4239 18.9555 73.6773 18.9555C72.9281 18.9555 72.3225 18.3499 72.3225 17.6007C72.3225 16.8515 72.9281 16.2458 73.6773 16.2458C75.9183 16.2458 77.7419 18.0695 77.7419 20.3104C77.7419 21.0596 77.1363 21.6652 76.387 21.6652Z" fill="#545C66"/>
<path d="M76.3871 37.9233C75.6378 37.9233 75.0322 37.3177 75.0322 36.5685V20.3104C75.0322 19.5612 75.6378 18.9556 76.3871 18.9556C77.1363 18.9556 77.7419 19.5612 77.7419 20.3104V36.5685C77.7419 37.3177 77.1363 37.9233 76.3871 37.9233Z" fill="#545C66"/>
<path d="M73.6774 18.9555H72.3226C71.5733 18.9555 70.9677 18.3499 70.9677 17.6007C70.9677 16.8515 71.5733 16.2458 72.3226 16.2458H73.6774C74.4266 16.2458 75.0322 16.8515 75.0322 17.6007C75.0322 18.3499 74.4266 18.9555 73.6774 18.9555Z" fill="#545C66"/>
<path d="M68.2581 29.793H73.6774V59.5994H68.2581V29.793Z" fill="#656D78"/>
<path d="M73.6774 17.5994V29.793H68.2581V16.2446C68.2581 14.7529 69.4774 13.5349 70.9677 13.5349C72.4581 13.5349 73.6774 14.7529 73.6774 16.2446V17.5994Z" fill="#656D78"/>
<path d="M73.6774 59.5994V62.309L70.9677 66.3736L68.2581 62.309V59.5994H73.6774Z" fill="#CCD1D9"/>
<path d="M68.2581 29.1169H73.6774V30.4718H68.2581V29.1169Z" fill="#545C66"/>
<path d="M53.3547 46.0712H18.1289C17.3797 46.0712 16.774 45.4656 16.774 44.7164C16.774 43.9672 17.3797 43.3616 18.1289 43.3616H53.3547C54.1039 43.3616 54.7095 43.9672 54.7095 44.7164C54.7095 45.4656 54.1039 46.0712 53.3547 46.0712Z" fill="#CCD1D9"/>
<path d="M53.3547 42.0026H18.1289C17.3797 42.0026 16.774 41.397 16.774 40.6478C16.774 39.8986 17.3797 39.293 18.1289 39.293H53.3547C54.1039 39.293 54.7095 39.8986 54.7095 40.6478C54.7095 41.397 54.1039 42.0026 53.3547 42.0026Z" fill="#CCD1D9"/>
<path d="M53.3547 37.934H18.1289C17.3797 37.934 16.774 37.3284 16.774 36.5792C16.774 35.83 17.3797 35.2244 18.1289 35.2244H53.3547C54.1039 35.2244 54.7095 35.83 54.7095 36.5792C54.7095 37.3284 54.1039 37.934 53.3547 37.934Z" fill="#CCD1D9"/>
<path d="M53.3547 50.133H18.1289C17.3797 50.133 16.774 49.5274 16.774 48.7782C16.774 48.029 17.3797 47.4233 18.1289 47.4233H53.3547C54.1039 47.4233 54.7095 48.029 54.7095 48.7782C54.7095 49.5274 54.1039 50.133 53.3547 50.133Z" fill="#CCD1D9"/>
<path d="M53.3547 54.1948H18.1289C17.3797 54.1948 16.774 53.5892 16.774 52.8399C16.774 52.0907 17.3797 51.4851 18.1289 51.4851H53.3547C54.1039 51.4851 54.7095 52.0907 54.7095 52.8399C54.7095 53.5892 54.1039 54.1948 53.3547 54.1948Z" fill="#CCD1D9"/>
<path d="M35.7418 58.2568H18.1289C17.3797 58.2568 16.774 57.6512 16.774 56.902C16.774 56.1527 17.3797 55.5471 18.1289 55.5471H35.7418C36.491 55.5471 37.0966 56.1527 37.0966 56.902C37.0966 57.6512 36.491 58.2568 35.7418 58.2568Z" fill="#CCD1D9"/>
<path d="M53.3548 66.3816H43.8709C43.1217 66.3816 42.5161 65.7759 42.5161 65.0267C42.5161 64.2775 43.1217 63.6719 43.8709 63.6719H53.3548C54.104 63.6719 54.7096 64.2775 54.7096 65.0267C54.7096 65.7759 54.104 66.3816 53.3548 66.3816Z" fill="#CCD1D9"/>
<path d="M46.5806 69.0914C45.8314 69.0914 45.2258 68.4858 45.2258 67.7366V62.3172C45.2258 61.568 45.8314 60.9624 46.5806 60.9624C47.3298 60.9624 47.9354 61.568 47.9354 62.3172V67.7366C47.9354 68.4858 47.3298 69.0914 46.5806 69.0914Z" fill="#AC92EC"/>
<path d="M46.5806 69.0914C46.2974 69.0914 46.0116 69.0033 45.7677 68.8204C45.1702 68.372 45.0483 67.5225 45.4981 66.925L49.5626 61.5056C50.0097 60.9068 50.8592 60.7876 51.4567 61.2347C52.0568 61.6831 52.1788 62.5326 51.729 63.1301L47.6645 68.5495C47.3989 68.9044 46.9938 69.0914 46.5806 69.0914Z" fill="#AC92EC"/>
<path d="M50.6451 69.0914C49.8958 69.0914 49.2902 68.4858 49.2902 67.7366V62.3172C49.2902 61.568 49.8958 60.9624 50.6451 60.9624C51.3943 60.9624 51.9999 61.568 51.9999 62.3172V67.7366C51.9999 68.4858 51.3943 69.0914 50.6451 69.0914Z" fill="#AC92EC"/>
<path d="M27.602 20.3212H23.5375C22.7883 20.3212 22.1827 19.7156 22.1827 18.9664C22.1827 18.2172 22.7883 17.6116 23.5375 17.6116H27.602C28.3513 17.6116 28.9569 18.2172 28.9569 18.9664C28.9569 19.7156 28.3513 20.3212 27.602 20.3212Z" fill="#CCD1D9"/>
</svg>
