<svg width="69" height="90" viewBox="0 0 69 90" fill="none" xmlns="http://www.w3.org/2000/svg">
<path d="M34.5167 0C30.1396 0 26.6066 3.53303 26.6066 7.91016C26.6066 12.2869 30.1396 15.8203 34.5167 15.8203C38.8939 15.8203 42.4269 12.2869 42.4269 7.91016C42.4269 3.53303 38.8939 0 34.5167 0Z" fill="#465A61"/>
<path d="M58.2472 21.2695L49.0187 26.543H17.6945L10.7863 21.2695C14.0031 14.783 20.6476 10.7227 27.8722 10.7227H41.1614C48.3859 10.7227 55.0306 14.783 58.2472 21.2695Z" fill="#656D78"/>
<path d="M34.5167 15.8203V0C38.8939 0 42.4269 3.53303 42.4269 7.91016C42.4269 12.2869 38.8939 15.8203 34.5167 15.8203Z" fill="#656D78"/>
<path d="M58.2472 21.2695L49.0187 26.543H34.5167V10.7227H41.1614C48.3859 10.7227 55.0306 14.783 58.2472 21.2695Z" fill="#656D78"/>
<path d="M58.2472 27.9141V21.2695H10.7862V27.9141C-1.18466 37.7754 -3.55735 55.1248 5.51278 67.9393L16.0597 82.7576V90H52.9737V82.7576L63.5206 67.992C72.5384 55.3885 70.1124 37.7227 58.2472 27.9141Z" fill="#AAB2BD"/>
<path d="M63.5206 67.9922L52.9738 82.7578V90H34.5167V21.2695H58.2472V27.9141C70.1124 37.7227 72.5384 55.3885 63.5206 67.9922Z" fill="#CCD1D9"/>
<path d="M52.9738 42.3633H34.5167V63.457H52.9738V42.3633Z" fill="#D3D3D8"/>
<path d="M16.0597 42.3633V63.457H52.9738V42.3633H16.0597Z" fill="#E6E9ED"/>
</svg>
