<svg width="78" height="77" viewBox="0 0 78 77" fill="none" xmlns="http://www.w3.org/2000/svg">
<path d="M67.3767 32.1665L60.5668 38.9764L64.4526 54.3904L77.0266 41.8164L67.3767 32.1665Z" fill="#656D78"/>
<path d="M35.21 0L22.76 12.4501L38.039 16.471L44.86 9.64988L35.21 0Z" fill="#656D78"/>
<path d="M4.71462 44.4344L0 49.1488L17.1907 60.2385L26.8395 43.0518L4.71462 44.4344Z" fill="#62BAF9"/>
<path d="M16.371 59.2286L27.3416 76.4902L32.0561 71.776L33.4388 49.6509L16.371 59.2286Z" fill="#6DC2FF"/>
<path d="M60.4271 22.8145L43.0856 41.543L64.8124 76.5474L73.1616 68.1979L60.4271 22.8145Z" fill="#CCD1D9"/>
<path d="M8.8092 3.88428L0.468994 12.2242L35.4839 33.9404L54.2142 16.5976L8.8092 3.88428Z" fill="#AAB2BD"/>
<path d="M74.611 1.8923L16.1756 60.3277L14.0936 58.2473L16.1028 53.1175C18.8534 46.8671 21.7663 42.3924 25.5511 38.6091L53.9311 10.2292C57.6173 6.54293 62.4317 3.41168 68.2378 0.921835L68.7625 0.697416C70.7413 -0.150222 73.0037 0.284969 74.5276 1.80738L74.611 1.8923Z" fill="#EDF5FF"/>
<path d="M76.1729 8.10784C73.9879 13.2088 71.3434 18.5509 66.8307 23.062L38.4174 51.4753C33.9609 55.9319 28.7356 58.5749 23.7528 60.7675L23.6664 60.8039L18.6246 62.7767L16.1757 60.3278L74.6111 1.89233L75.063 2.34421C76.5854 3.86662 77.0221 6.12901 76.1729 8.10784Z" fill="#D5E8FE"/>
</svg>
