<svg width="78" height="78" viewBox="0 0 78 78" fill="none" xmlns="http://www.w3.org/2000/svg">
<path d="M39 77.9688C60.5218 77.9688 77.9688 60.5218 77.9688 39C77.9688 17.4782 60.5218 0.03125 39 0.03125C17.4782 0.03125 0.03125 17.4782 0.03125 39C0.03125 60.5218 17.4782 77.9688 39 77.9688Z" fill="#AAB2BD"/>
<path d="M39 69.9062C56.069 69.9062 69.9062 56.069 69.9062 39C69.9062 21.931 56.069 8.09375 39 8.09375C21.931 8.09375 8.09375 21.931 8.09375 39C8.09375 56.069 21.931 69.9062 39 69.9062Z" fill="#D5E8FE"/>
<path d="M32.2812 43.0312C31.9249 43.0312 31.5831 43.1728 31.3311 43.4248C31.0791 43.6768 30.9375 44.0186 30.9375 44.375C30.9375 44.7314 31.0791 45.0732 31.3311 45.3252C31.5831 45.5772 31.9249 45.7188 32.2812 45.7188H33.625V55.125C33.625 55.4814 33.7666 55.8232 34.0186 56.0752C34.2706 56.3272 34.6124 56.4688 34.9688 56.4688C35.3251 56.4688 35.6669 56.3272 35.9189 56.0752C36.1709 55.8232 36.3125 55.4814 36.3125 55.125V45.7188H45.7188C46.0751 45.7188 46.4169 45.5772 46.6689 45.3252C46.9209 45.0732 47.0625 44.7314 47.0625 44.375C47.0625 44.0186 46.9209 43.6768 46.6689 43.4248C46.4169 43.1728 46.0751 43.0312 45.7188 43.0312H36.3125V40.3438H44.375C46.5133 40.3438 48.564 39.4943 50.076 37.9823C51.5881 36.4703 52.4375 34.4196 52.4375 32.2812C52.4375 30.1429 51.5881 28.0922 50.076 26.5802C48.564 25.0682 46.5133 24.2188 44.375 24.2188H34.9688C34.6124 24.2188 34.2706 24.3603 34.0186 24.6123C33.7666 24.8643 33.625 25.2061 33.625 25.5625V37.6562H32.2812C31.9249 37.6562 31.5831 37.7978 31.3311 38.0498C31.0791 38.3018 30.9375 38.6436 30.9375 39C30.9375 39.3564 31.0791 39.6982 31.3311 39.9502C31.5831 40.2022 31.9249 40.3438 32.2812 40.3438H33.625V43.0312H32.2812ZM49.75 32.2812C49.7484 33.7063 49.1816 35.0725 48.1739 36.0802C47.1663 37.0878 45.8 37.6546 44.375 37.6562H36.3125V26.9062H44.375C45.8 26.9079 47.1663 27.4747 48.1739 28.4823C49.1816 29.49 49.7484 30.8562 49.75 32.2812Z" fill="#6DC2FF"/>
<path d="M8.56104 34.9688C8.36477 34.9691 8.17084 34.9263 7.99287 34.8436C7.81491 34.7608 7.65723 34.6401 7.53093 34.4899C7.40462 34.3396 7.31276 34.1636 7.26179 33.974C7.21083 33.7845 7.202 33.5861 7.23593 33.3928C8.39148 26.8785 11.5199 20.8763 16.1982 16.1981C20.8764 11.52 26.8786 8.39153 33.3929 7.23603C33.7439 7.17446 34.105 7.25487 34.3968 7.45956C34.6885 7.66425 34.887 7.97645 34.9486 8.32749C35.0102 8.67853 34.9298 9.03965 34.7251 9.3314C34.5204 9.62316 34.2082 9.82165 33.8571 9.88322C27.8865 10.9423 22.3851 13.8096 18.0973 18.0974C13.8095 22.3852 10.9422 27.8866 9.88312 33.8572C9.82855 34.1684 9.66612 34.4503 9.42435 34.6536C9.18257 34.8569 8.87691 34.9685 8.56104 34.9688Z" fill="#EDF5FF"/>
<path d="M44.3733 70.7844C44.0369 70.7846 43.7126 70.6585 43.4646 70.4311C43.2166 70.2037 43.063 69.8915 43.034 69.5563C43.0051 69.2211 43.1029 68.8873 43.3082 68.6207C43.5135 68.3542 43.8114 68.1743 44.1429 68.1167C50.1136 67.0577 55.6149 64.1903 59.9027 59.9025C64.1906 55.6147 67.058 50.1134 68.1171 44.1427C68.1464 43.9679 68.21 43.8005 68.3043 43.6504C68.3986 43.5002 68.5217 43.3702 68.6665 43.2678C68.8112 43.1655 68.9748 43.0928 69.1478 43.0539C69.3208 43.015 69.4998 43.0108 69.6744 43.0414C69.8491 43.0721 70.0159 43.137 70.1654 43.2324C70.3148 43.3278 70.4439 43.4518 70.5452 43.5974C70.6465 43.7429 70.718 43.907 70.7555 44.0803C70.7931 44.2536 70.796 44.4326 70.7641 44.607C69.6086 51.1213 66.4801 57.1235 61.8019 61.8017C57.1237 66.48 51.1214 69.6084 44.6071 70.7639C44.5299 70.7775 44.4517 70.7844 44.3733 70.7844Z" fill="#EDF5FF"/>
<path d="M8.09375 40.3438C8.83588 40.3438 9.4375 39.7421 9.4375 39C9.4375 38.2579 8.83588 37.6562 8.09375 37.6562C7.35162 37.6562 6.75 38.2579 6.75 39C6.75 39.7421 7.35162 40.3438 8.09375 40.3438Z" fill="#EDF5FF"/>
<path d="M39 9.4375C39.7421 9.4375 40.3438 8.83588 40.3438 8.09375C40.3438 7.35162 39.7421 6.75 39 6.75C38.2579 6.75 37.6562 7.35162 37.6562 8.09375C37.6562 8.83588 38.2579 9.4375 39 9.4375Z" fill="#EDF5FF"/>
<path d="M69.9062 40.3438C70.6484 40.3438 71.25 39.7421 71.25 39C71.25 38.2579 70.6484 37.6562 69.9062 37.6562C69.1641 37.6562 68.5625 38.2579 68.5625 39C68.5625 39.7421 69.1641 40.3438 69.9062 40.3438Z" fill="#EDF5FF"/>
<path d="M39 71.25C39.7421 71.25 40.3438 70.6484 40.3438 69.9062C40.3438 69.1641 39.7421 68.5625 39 68.5625C38.2579 68.5625 37.6562 69.1641 37.6562 69.9062C37.6562 70.6484 38.2579 71.25 39 71.25Z" fill="#EDF5FF"/>
</svg>
