<?xml version="1.0" encoding="UTF-8" standalone="no"?>
<svg
   width="26"
   height="31"
   viewBox="0 0 26 31"
   fill="none"
   version="1.1"
   id="svg1266"
   sodipodi:docname="1.svg"
   inkscape:version="1.1.2 (b8e25be833, 2022-02-05)"
   xmlns:inkscape="http://www.inkscape.org/namespaces/inkscape"
   xmlns:sodipodi="http://sodipodi.sourceforge.net/DTD/sodipodi-0.dtd"
   xmlns="http://www.w3.org/2000/svg"
   xmlns:svg="http://www.w3.org/2000/svg">
  <sodipodi:namedview
     id="namedview1268"
     pagecolor="#ffffff"
     bordercolor="#666666"
     borderopacity="1.0"
     inkscape:pageshadow="2"
     inkscape:pageopacity="0"
     inkscape:pagecheckerboard="true"
     showgrid="false"
     width="45px"
     inkscape:zoom="23.277955"
     inkscape:cx="9.4080428"
     inkscape:cy="16.668131"
     inkscape:window-width="1920"
     inkscape:window-height="1009"
     inkscape:window-x="-8"
     inkscape:window-y="-8"
     inkscape:window-maximized="1"
     inkscape:current-layer="svg1266"
     showborder="true" />
  <g
     filter="url(#filter0_d_969_134)"
     id="g1245"
     transform="translate(-9.9665111,-5.3269284)">
    <path
       d="M 32.1924,9.80218 C 29.7371,7.3504 26.4724,6 22.9999,6 19.5276,6 16.2629,7.3504 13.8076,9.80218 11.3523,12.254 10,15.5139 10,18.9813 c 0,3.4675 1.3523,6.7275 3.8076,9.1793 l 6.9066,6.8969 C 21.323,35.6654 22.1346,36 22.9999,36 c 0.865,0 1.6767,-0.3346 2.2854,-0.9425 l 6.9071,-6.8969 C 34.6479,25.7088 36,22.4488 36,18.9813 36,15.5139 34.6479,12.254 32.1924,9.80218 Z"
       fill="#269ff7"
       id="path1243" />
  </g>
  <path
     d="m 18.310761,11.602176 c -2.8104,-0.4911 -4.4699,2.231 -6.0221,4.2113 -0.7688,0.977 -1.7823,2.0637 -3.0403993,2.1683 -1.2239,0.0992 -2.3353,-0.8465 -2.5213,-2.137 -0.1859,-1.3271 0.6758,-2.7274 1.9242,-2.8475 1.5566993,-0.1464 2.0220993,0.7158 2.7658993,1.395 l 0.8569,-1.0555 c -0.0049,-0.0052 -0.0049,-0.0052 -0.0049,-0.0052 l 0.1126,-0.1463 c -1.2582,-0.8986 -1.3708,-3.2027997 -0.2349,-4.2634997 1.1358,-1.0658 2.8299,-0.7994 3.8581,0.2874 -0.896,-2.231 -3.77,-2.3198 -5.2044,-0.6792 -0.773699,0.8778 -1.0525993,2.0637997 -0.8959993,3.1766997 -0.3475,-0.115 -0.7052,-0.1776 -1.0722,-0.1515 -1.2973,0.0783 -2.487,0.9143 -3.0747,2.1526 -1.1603,2.4714 0.4698,5.5018 3.0453,5.6847 2.7218993,0.2037 4.2594993,-2.4871 5.7916993,-4.4151 0.7785,-0.9822 1.8165,-2.0167 3.0991,-2.022 1.2288,0 2.2863,1.0294 2.3695,2.3408 0.0881,1.2331 -0.7194,2.3825 -1.8552,2.6437 -1.0967,0.2508 -2.0857,-0.6687 -2.8593,-1.3793 l -0.8569,1.0554 c 0.896,0.8256 2.027,1.7765 3.2704,1.7765 1.3023,0 2.5364,-0.8099 3.1628,-2.0116 1.219,-2.3355 -0.1517,-5.3503 -2.6142,-5.7787 z"
     fill="#ffffff"
     id="path1247" />
  <defs
     id="defs1264">
    <filter
       id="filter0_d_969_134"
       x="0"
       y="0"
       width="46"
       height="50"
       filterUnits="userSpaceOnUse"
       color-interpolation-filters="sRGB">
      <feFlood
         flood-opacity="0"
         result="BackgroundImageFix"
         id="feFlood1249" />
      <feColorMatrix
         in="SourceAlpha"
         type="matrix"
         values="0 0 0 0 0 0 0 0 0 0 0 0 0 0 0 0 0 0 127 0"
         result="hardAlpha"
         id="feColorMatrix1251" />
      <feOffset
         dy="4"
         id="feOffset1253" />
      <feGaussianBlur
         stdDeviation="5"
         id="feGaussianBlur1255" />
      <feColorMatrix
         type="matrix"
         values="0 0 0 0 0.149028 0 0 0 0 0.623258 0 0 0 0 0.966667 0 0 0 0.25 0"
         id="feColorMatrix1257" />
      <feBlend
         mode="normal"
         in2="BackgroundImageFix"
         result="effect1_dropShadow_969_134"
         id="feBlend1259" />
      <feBlend
         mode="normal"
         in="SourceGraphic"
         in2="effect1_dropShadow_969_134"
         result="shape"
         id="feBlend1261" />
    </filter>
  </defs>
</svg>
