<svg width="26" height="21" viewBox="0 0 26 21" fill="none" xmlns="http://www.w3.org/2000/svg">
<path d="M22.2474 0H3.75266C1.88734 0 0.336244 1.35326 0.0484639 3.11925L10.5404 8.86994C12.0807 9.71411 13.9196 9.71394 15.4596 8.86994L25.9516 3.11925C25.6638 1.35326 24.1127 0 22.2474 0Z" fill="#269FF7"/>
<path d="M16.6722 11.0344C15.5226 11.6645 14.2611 11.9797 13 11.9797C11.7386 11.9797 10.4776 11.6647 9.32784 11.0344L0 5.92182V16.5102C0 18.557 1.68347 20.2222 3.75266 20.2222H22.2473C24.3166 20.2223 26 18.5571 26 16.5103V5.92182L16.6722 11.0344Z" fill="#269FF7"/>
</svg>
