<svg width="26" height="26" viewBox="0 0 26 26" fill="none" xmlns="http://www.w3.org/2000/svg">
<path fill-rule="evenodd" clip-rule="evenodd" d="M0 13C0 5.8203 5.8203 0 13 0C20.1765 0.00767161 25.9924 5.82351 26 13C26 20.1797 20.1797 26 13 26C5.8203 26 0 20.1797 0 13ZM13 2.88889C12.2023 2.88889 11.5556 3.53559 11.5556 4.33333V11.5556L5.77778 11.5556C4.98003 11.5556 4.33333 12.2023 4.33333 13C4.33333 13.7977 4.98003 14.4444 5.77778 14.4444H13C13.7977 14.4444 14.4444 13.7977 14.4444 13V4.33333C14.4444 3.53559 13.7977 2.88889 13 2.88889Z" fill="#269FF7"/>
</svg>
