<svg width="68" height="68" viewBox="0 0 68 68" fill="none" xmlns="http://www.w3.org/2000/svg">
<path d="M37.9745 16.1992H35.974V14.2157C35.974 13.1177 35.0888 12.2145 33.9912 12.2145C32.8935 12.2145 31.9906 13.1 31.9906 14.2157V16.2169H29.9901C28.8925 16.2169 27.9896 17.1023 27.9896 18.218C27.9896 19.316 28.8748 20.2192 29.9901 20.2192H31.9906V30.1897C31.9906 31.2876 32.8758 32.1908 33.9912 32.1908C35.0888 32.1908 35.974 31.3054 35.974 30.1897V20.1838H37.9745C39.0721 20.1838 39.975 19.2983 39.975 18.1826C39.9573 17.0846 39.0721 16.1992 37.9745 16.1992Z" fill="#4C6A9A"/>
<path d="M67.1856 36.5125L51.925 25.1608V18.2009C51.925 17.6696 51.7126 17.1738 51.3585 16.8019L35.4074 0.597695C34.6285 -0.199232 33.3538 -0.199232 32.5749 0.597695L16.6415 16.8019C16.2697 17.1738 16.075 17.6696 16.075 18.2009V25.1608L0.796668 36.5125C0.28326 36.8844 0 37.4866 0 38.1064V65.9988C0 67.1145 0.885186 68 2.00052 68H65.9995C67.0971 68 68 67.1145 68 65.9988V38.1241C67.9823 37.4866 67.6813 36.8844 67.1856 36.5125ZM12.0739 64.0154V55.7096C12.0739 53.3543 12.7644 51.1051 14.0745 49.1925C15.3668 51.1051 16.075 53.3543 16.075 55.7096V64.0154H12.0739ZM39.6209 48.0768H35.9917V41.8785C37.7797 43.5432 39.0544 45.686 39.6209 48.0768ZM39.9573 64.0154H35.974V52.0615H39.9573V64.0154ZM32.0083 48.0768H28.3791C28.9456 45.686 30.2203 43.5432 32.0083 41.8785V48.0768ZM28.025 52.0615H32.0083V64.0154H28.025V52.0615ZM51.925 64.0154V55.7096C51.925 53.3543 52.6155 51.1051 53.9255 49.1925C55.2179 51.1051 55.9261 53.3543 55.9261 55.7096V64.0154H51.925ZM59.874 64.0154V55.7096C59.874 51.5479 58.2452 47.6341 55.3064 44.6766C54.5275 43.8974 53.2705 43.8974 52.4915 44.6766C49.5527 47.6164 47.924 51.5479 47.924 55.7096V64.0154H43.9406V51.0166C43.9406 44.836 40.4707 39.169 34.9294 36.3709C34.6639 36.2292 34.3098 36.1229 33.9734 36.1229C33.6371 36.1229 33.283 36.2115 33.0174 36.3709C27.4762 39.169 24.0062 44.836 24.0062 51.0166V64.0154H20.0229V55.7096C20.0229 51.5479 18.3942 47.6341 15.4554 44.6766C14.6764 43.8974 13.4194 43.8974 12.6405 44.6766C9.70164 47.6164 8.0729 51.5479 8.0729 55.7096V64.0154H3.98334V39.1158L16.0573 30.1194V38.1064C16.0573 39.2044 16.9425 40.1076 18.0578 40.1076C19.1731 40.1076 20.0583 39.2221 20.0583 38.1064V19.0156L33.9911 4.83026L47.9417 19.0156V38.1241C47.9417 39.2221 48.8269 40.1253 49.9422 40.1253C51.0398 40.1253 51.9427 39.2398 51.9427 38.1241V30.1371L64.0344 39.1335V64.0154H59.874Z" fill="#4C6A9A"/>
</svg>
