<svg width="89" height="65" viewBox="0 0 89 65" fill="none" xmlns="http://www.w3.org/2000/svg">
<path d="M12 4C12 2.89543 12.8954 2 14 2H21C22.1046 2 23 2.89543 23 4V16.5V29C23 30.1046 22.1046 31 21 31H14C12.8954 31 12 30.1046 12 29V4Z" stroke="#4C6A9A" stroke-width="4" stroke-linejoin="round"/>
<path d="M36.1928 36.022C36.4128 35.1282 37.2143 34.5 38.1348 34.5H46.9572C47.8562 34.5 48.6447 35.0998 48.8846 35.9662L52.2769 48.2162C52.3736 48.5655 52.3736 48.9345 52.2769 49.2838L48.8846 61.5338C48.6447 62.4002 47.8562 63 46.9572 63H38.1348C37.2143 63 36.4128 62.3718 36.1928 61.478L33.1774 49.228C33.1001 48.914 33.1001 48.586 33.1774 48.272L36.1928 36.022Z" stroke="#4C6A9A" stroke-width="4" stroke-linejoin="round"/>
<path d="M63 4C63 2.89543 63.8954 2 65 2H72C73.1046 2 74 2.89543 74 4V16.5V29C74 30.1046 73.1046 31 72 31H65C63.8954 31 63 30.1046 63 29V4Z" stroke="#4C6A9A" stroke-width="4" stroke-linejoin="round"/>
<path d="M22.5 2.5L36 60" stroke="#4C6A9A" stroke-width="4"/>
<path d="M63.5001 2.5L49 61.2498" stroke="#4C6A9A" stroke-width="4"/>
<path d="M29 31L3.57628e-07 31" stroke="#4C6A9A" stroke-width="4"/>
<path d="M89 31L56 31" stroke="#4C6A9A" stroke-width="4"/>
</svg>
