<svg width="94" height="70" viewBox="0 0 94 70" fill="none" xmlns="http://www.w3.org/2000/svg">
<mask id="path-1-outside-1_3_1013" maskUnits="userSpaceOnUse" x="0" y="0" width="94" height="70" fill="black">
<rect fill="white" width="94" height="70"/>
<path d="M91.563 54.8351C90.7727 54.8351 90.1261 54.1977 90.1261 53.4186C90.1261 51.0814 88.1862 49.1691 85.8152 49.1691C85.0249 49.1691 84.3783 48.5317 84.3783 47.7526C84.3783 46.9736 85.0249 46.3361 85.8152 46.3361C89.7669 46.3361 93 49.5232 93 53.4186C93 54.1977 92.3534 54.8351 91.563 54.8351Z"/>
<path d="M85.8152 49.1691H71.4217C70.6314 49.1691 69.9848 48.5317 69.9848 47.7526C69.9848 46.9736 70.6314 46.3361 71.4217 46.3361H85.8152C86.6056 46.3361 87.2522 46.9736 87.2522 47.7526C87.2522 48.5317 86.6056 49.1691 85.8152 49.1691Z"/>
<path d="M91.563 63.334C90.7727 63.334 90.1261 62.6966 90.1261 61.9175V59.0846H85.7913C85.001 59.0846 84.3543 58.4471 84.3543 57.6681C84.3543 56.889 85.001 56.2516 85.7913 56.2516H91.563C92.3534 56.2516 93 56.889 93 57.6681V61.9175C93 62.6966 92.3534 63.334 91.563 63.334Z"/>
<path d="M71.4217 49.1691C71.1343 49.1691 70.847 49.0983 70.6075 48.9094L56.1182 38.994C55.4715 38.5454 55.3039 37.6719 55.7589 37.0109C56.214 36.3735 57.1001 36.2082 57.7707 36.6568L72.26 46.5722C72.9066 47.0208 73.0742 47.8943 72.6192 48.5553C72.3318 48.9566 71.8768 49.1691 71.4217 49.1691Z"/>
<path d="M56.9324 39.2537H11.0696C10.2793 39.2537 9.63269 38.6162 9.63269 37.8372C9.63269 37.0581 10.2793 36.4207 11.0696 36.4207H56.9324C57.7228 36.4207 58.3694 37.0581 58.3694 37.8372C58.3694 38.6162 57.7228 39.2537 56.9324 39.2537Z"/>
<path d="M5.32182 46.3361C5.01048 46.3361 4.69914 46.2417 4.4357 46.0292C3.81302 45.5335 3.71723 44.66 4.22016 44.0461L9.96798 36.9637C10.4709 36.3499 11.357 36.2554 11.9797 36.7512C12.6024 37.247 12.6982 38.1205 12.1953 38.7343L6.44744 45.8167C6.16005 46.1473 5.75291 46.3361 5.32182 46.3361Z"/>
<path d="M5.32182 49.1691C4.5315 49.1691 3.88487 48.5317 3.88487 47.7526V44.9196C3.88487 44.1406 4.5315 43.5031 5.32182 43.5031C6.11215 43.5031 6.75878 44.1406 6.75878 44.9196V47.7526C6.75878 48.5317 6.11215 49.1691 5.32182 49.1691Z"/>
<path d="M2.44792 54.8351C2.23237 54.8351 2.01683 54.7879 1.80129 54.6934C1.08281 54.3393 0.795418 53.4894 1.15466 52.7812L4.02857 47.1152C4.3878 46.407 5.24998 46.1237 5.96845 46.4778C6.68693 46.8319 6.97432 47.6818 6.61508 48.39L3.74117 54.056C3.47773 54.5518 2.9748 54.8351 2.44792 54.8351Z"/>
<path d="M2.44792 63.334C1.65759 63.334 1.01096 62.6966 1.01096 61.9175V53.4186C1.01096 52.6395 1.65759 52.0021 2.44792 52.0021C3.23824 52.0021 3.88487 52.6395 3.88487 53.4186V61.9175C3.88487 62.6966 3.23824 63.334 2.44792 63.334Z"/>
<path d="M52.7413 49.1691C51.951 49.1691 51.3044 48.5317 51.3044 47.7526V37.8372C51.3044 37.0581 51.951 36.4207 52.7413 36.4207C53.5317 36.4207 54.1783 37.0581 54.1783 37.8372V47.7526C54.1783 48.5317 53.5556 49.1691 52.7413 49.1691Z"/>
<path d="M38.3718 49.1691C37.5815 49.1691 36.9348 48.5317 36.9348 47.7526V37.8372C36.9348 37.0581 37.5815 36.4207 38.3718 36.4207C39.1621 36.4207 39.8087 37.0581 39.8087 37.8372V47.7526C39.8087 48.5317 39.1621 49.1691 38.3718 49.1691Z"/>
<path d="M91.563 59.0846C90.7727 59.0846 90.1261 58.4471 90.1261 57.6681V53.4186C90.1261 52.6395 90.7727 52.0021 91.563 52.0021C92.3534 52.0021 93 52.6395 93 53.4186V57.6681C93 58.4471 92.3534 59.0846 91.563 59.0846Z"/>
<path d="M19.6914 69C15.7397 69 12.5066 65.8129 12.5066 61.9175C12.5066 58.0222 15.7397 54.8351 19.6914 54.8351C23.643 54.8351 26.8761 58.0222 26.8761 61.9175C26.8761 65.8129 23.643 69 19.6914 69ZM19.6914 57.6681C17.3204 57.6681 15.3805 59.5803 15.3805 61.9175C15.3805 64.2548 17.3204 66.167 19.6914 66.167C22.0623 66.167 24.0022 64.2548 24.0022 61.9175C24.0022 59.5803 22.0623 57.6681 19.6914 57.6681Z"/>
<path d="M19.6914 69C15.7397 69 12.5066 65.8129 12.5066 61.9175C12.5066 58.0222 15.7397 54.8351 19.6914 54.8351C23.643 54.8351 26.8761 58.0222 26.8761 61.9175C26.8761 65.8129 23.643 69 19.6914 69ZM19.6914 57.6681C17.3204 57.6681 15.3805 59.5803 15.3805 61.9175C15.3805 64.2548 17.3204 66.167 19.6914 66.167C22.0623 66.167 24.0022 64.2548 24.0022 61.9175C24.0022 59.5803 22.0623 57.6681 19.6914 57.6681Z"/>
<path d="M71.4217 69C67.4701 69 64.237 65.8129 64.237 61.9175C64.237 58.0222 67.4701 54.8351 71.4217 54.8351C75.3734 54.8351 78.6065 58.0222 78.6065 61.9175C78.6065 65.8129 75.3734 69 71.4217 69ZM71.4217 57.6681C69.0508 57.6681 67.1109 59.5803 67.1109 61.9175C67.1109 64.2548 69.0508 66.167 71.4217 66.167C73.7927 66.167 75.7326 64.2548 75.7326 61.9175C75.7326 59.5803 73.7927 57.6681 71.4217 57.6681Z"/>
<path d="M13.9436 63.334H2.44792C1.65759 63.334 1.01096 62.6966 1.01096 61.9175C1.01096 61.1385 1.65759 60.501 2.44792 60.501H13.9436C14.7339 60.501 15.3805 61.1385 15.3805 61.9175C15.3805 62.6966 14.7339 63.334 13.9436 63.334Z"/>
<path d="M65.6739 63.334H25.4392C24.6489 63.334 24.0022 62.6966 24.0022 61.9175C24.0022 61.1385 24.6489 60.501 25.4392 60.501H65.6739C66.4642 60.501 67.1109 61.1385 67.1109 61.9175C67.1109 62.6966 66.4642 63.334 65.6739 63.334Z"/>
<path d="M91.563 63.334H77.1695C76.3792 63.334 75.7326 62.6966 75.7326 61.9175C75.7326 61.1385 76.3792 60.501 77.1695 60.501H91.563C92.3534 60.501 93 61.1385 93 61.9175C93 62.6966 92.3534 63.334 91.563 63.334Z"/>
<path d="M71.4217 49.1691H38.3718C37.5815 49.1691 36.9348 48.5317 36.9348 47.7526C36.9348 46.9736 37.5815 46.3361 38.3718 46.3361H71.4217C72.2121 46.3361 72.8587 46.9736 72.8587 47.7526C72.8587 48.5317 72.2121 49.1691 71.4217 49.1691Z"/>
<path d="M25.4392 49.1691H5.32182C4.5315 49.1691 3.88487 48.5317 3.88487 47.7526C3.88487 46.9736 4.5315 46.3361 5.32182 46.3361H25.4392C26.2295 46.3361 26.8761 46.9736 26.8761 47.7526C26.8761 48.5317 26.2295 49.1691 25.4392 49.1691Z"/>
<path d="M55.6152 53.4186H54.1783C53.388 53.4186 52.7413 52.7812 52.7413 52.0021C52.7413 51.223 53.388 50.5856 54.1783 50.5856H55.6152C56.4056 50.5856 57.0522 51.223 57.0522 52.0021C57.0522 52.7812 56.4056 53.4186 55.6152 53.4186Z"/>
<path d="M41.2457 53.4186H39.8087C39.0184 53.4186 38.3718 52.7812 38.3718 52.0021C38.3718 51.223 39.0184 50.5856 39.8087 50.5856H41.2457C42.036 50.5856 42.6826 51.223 42.6826 52.0021C42.6826 52.7812 42.036 53.4186 41.2457 53.4186Z"/>
<path d="M71.4696 63.334C70.6793 63.334 70.0327 62.6966 70.0327 61.9175C70.0327 61.1385 70.6554 60.501 71.4696 60.501H71.4936C72.2839 60.501 72.9305 61.1385 72.9305 61.9175C72.9066 62.6966 72.26 63.334 71.4696 63.334Z"/>
<path d="M19.7393 63.334C18.9489 63.334 18.3023 62.6966 18.3023 61.9175C18.3023 61.1385 18.925 60.501 19.7393 60.501H19.7632C20.5535 60.501 21.2002 61.1385 21.2002 61.9175C21.1762 62.6966 20.5296 63.334 19.7393 63.334Z"/>
<path d="M61.363 20.8393H24.0022C23.2119 20.8393 22.5653 20.2019 22.5653 19.4228V6.67436C22.5653 5.89529 23.2119 5.25787 24.0022 5.25787H61.363C62.1534 5.25787 62.8 5.89529 62.8 6.67436V19.4228C62.8 20.2019 62.1534 20.8393 61.363 20.8393ZM25.4392 18.0063H59.9261V8.09086H25.4392V18.0063Z"/>
<path d="M69.9848 20.8393H61.363C60.5727 20.8393 59.9261 20.2019 59.9261 19.4228V6.67436C59.9261 5.89529 60.5727 5.25787 61.363 5.25787H69.9848C70.7751 5.25787 71.4217 5.89529 71.4217 6.67436V19.4228C71.4217 20.2019 70.7751 20.8393 69.9848 20.8393ZM62.8 18.0063H68.5478V8.09086H62.8V18.0063Z"/>
<path d="M55.6152 15.1733H29.7501C28.9597 15.1733 28.3131 14.5359 28.3131 13.7568C28.3131 12.9778 28.9597 12.3403 29.7501 12.3403H55.6152C56.4056 12.3403 57.0522 12.9778 57.0522 13.7568C57.0522 14.5359 56.4056 15.1733 55.6152 15.1733Z"/>
<path d="M29.7501 15.1733C28.9597 15.1733 28.3131 14.5359 28.3131 13.7568V12.3403C28.3131 11.5613 28.9597 10.9238 29.7501 10.9238C30.5404 10.9238 31.187 11.5613 31.187 12.3403V13.7568C31.187 14.5359 30.5404 15.1733 29.7501 15.1733Z"/>
<path d="M55.6152 15.1733C54.8249 15.1733 54.1783 14.5359 54.1783 13.7568V12.3403C54.1783 11.5613 54.8249 10.9238 55.6152 10.9238C56.4056 10.9238 57.0522 11.5613 57.0522 12.3403L57.0522 13.7568C57.0522 14.5359 56.4056 15.1733 55.6152 15.1733Z"/>
<path d="M24.0022 8.09086C23.7388 8.09086 23.4514 8.02003 23.2119 7.85477C22.5413 7.42983 22.3737 6.53271 22.8048 5.89529L25.6787 1.64582C26.1098 0.984789 27.0198 0.819532 27.6665 1.24448C28.337 1.66943 28.5047 2.56654 28.0736 3.20396L25.1997 7.45343C24.9363 7.87838 24.4573 8.09086 24.0022 8.09086Z"/>
<path d="M69.9848 8.09086C69.5297 8.09086 69.0747 7.87838 68.7873 7.45343L65.9134 3.20396C65.4823 2.54293 65.65 1.66943 66.3205 1.24448C66.9672 0.795923 67.8772 0.984789 68.3083 1.64582L71.1822 5.89529C71.6133 6.55632 71.4457 7.42983 70.7751 7.85477C70.5356 8.02003 70.2482 8.09086 69.9848 8.09086Z"/>
<path d="M61.3631 8.09086C60.908 8.09086 60.453 7.87838 60.1656 7.45343L57.2917 3.20396C56.8606 2.54293 57.0282 1.66943 57.6988 1.24448C58.3454 0.795923 59.2555 0.984789 59.6866 1.64582L62.5605 5.89529C62.9916 6.55632 62.824 7.42983 62.1534 7.85477C61.9139 8.02003 61.6265 8.09086 61.3631 8.09086Z"/>
<path d="M67.1109 3.84138H26.8761C26.0858 3.84138 25.4392 3.20396 25.4392 2.42489C25.4392 1.64582 26.0858 1.0084 26.8761 1.0084H67.1109C67.9012 1.0084 68.5478 1.64582 68.5478 2.42489C68.5478 3.20396 67.9012 3.84138 67.1109 3.84138Z"/>
<path d="M46.9935 33.5877C46.2032 33.5877 45.5566 32.9503 45.5566 32.1712V23.6723C45.5566 22.8932 46.2032 22.2558 46.9935 22.2558C47.7838 22.2558 48.4305 22.8932 48.4305 23.6723V32.1712C48.4305 32.9503 47.7838 33.5877 46.9935 33.5877Z"/>
<path d="M46.9935 33.5877C46.6343 33.5877 46.2511 33.4461 45.9876 33.1628C45.4368 32.6198 45.4368 31.7227 45.9876 31.1561L48.8615 28.3231C49.4124 27.7801 50.3225 27.7801 50.8972 28.3231C51.4481 28.8661 51.4481 29.7632 50.8972 30.3298L48.0233 33.1628C47.7359 33.4461 47.3527 33.5877 46.9935 33.5877Z"/>
<path d="M46.9935 33.5877C46.6343 33.5877 46.2511 33.4461 45.9876 33.1628L43.1137 30.3298C42.5629 29.7868 42.5629 28.8897 43.1137 28.3231C43.6646 27.7801 44.5746 27.7801 45.1494 28.3231L48.0233 31.1561C48.5742 31.699 48.5742 32.5962 48.0233 33.1628C47.7359 33.4461 47.3527 33.5877 46.9935 33.5877Z"/>
<path d="M58.4891 33.5877C57.6988 33.5877 57.0522 32.9503 57.0522 32.1712V23.6723C57.0522 22.8932 57.6988 22.2558 58.4891 22.2558C59.2795 22.2558 59.9261 22.8932 59.9261 23.6723V32.1712C59.9261 32.9503 59.2795 33.5877 58.4891 33.5877Z"/>
<path d="M58.4891 33.5877C58.1299 33.5877 57.7467 33.4461 57.4833 33.1628C56.9324 32.6198 56.9324 31.7227 57.4833 31.1561L60.3572 28.3231C60.908 27.7801 61.8181 27.7801 62.3929 28.3231C62.9437 28.8661 62.9437 29.7632 62.3929 30.3298L59.519 33.1628C59.2316 33.4461 58.8484 33.5877 58.4891 33.5877Z"/>
<path d="M58.4891 33.5877C58.1299 33.5877 57.7467 33.4461 57.4833 33.1628L54.6094 30.3298C54.0585 29.7868 54.0585 28.8897 54.6094 28.3231C55.1602 27.7801 56.0703 27.7801 56.6451 28.3231L59.519 31.1561C60.0698 31.699 60.0698 32.5962 59.519 33.1628C59.2316 33.4461 58.8484 33.5877 58.4891 33.5877Z"/>
<path d="M35.4979 33.5877C34.7075 33.5877 34.0609 32.9503 34.0609 32.1712V23.6723C34.0609 22.8932 34.7075 22.2558 35.4979 22.2558C36.2882 22.2558 36.9348 22.8932 36.9348 23.6723V32.1712C36.9348 32.9503 36.2882 33.5877 35.4979 33.5877Z"/>
<path d="M35.4979 33.5877C35.1386 33.5877 34.7554 33.4461 34.492 33.1628C33.9412 32.6198 33.9412 31.7227 34.492 31.1561L37.3659 28.3231C37.9167 27.7801 38.8268 27.7801 39.4016 28.3231C39.9524 28.8661 39.9524 29.7632 39.4016 30.3298L36.5277 33.1628C36.2403 33.4461 35.8571 33.5877 35.4979 33.5877Z"/>
<path d="M35.4979 33.5877C35.1386 33.5877 34.7554 33.4461 34.492 33.1628L31.6181 30.3298C31.0673 29.7868 31.0673 28.8897 31.6181 28.3231C32.1689 27.7801 33.079 27.7801 33.6538 28.3231L36.5277 31.1561C37.0785 31.699 37.0785 32.5962 36.5277 33.1628C36.2403 33.4461 35.8571 33.5877 35.4979 33.5877Z"/>
</mask>
<path d="M91.563 54.8351C90.7727 54.8351 90.1261 54.1977 90.1261 53.4186C90.1261 51.0814 88.1862 49.1691 85.8152 49.1691C85.0249 49.1691 84.3783 48.5317 84.3783 47.7526C84.3783 46.9736 85.0249 46.3361 85.8152 46.3361C89.7669 46.3361 93 49.5232 93 53.4186C93 54.1977 92.3534 54.8351 91.563 54.8351Z" fill="#4C6A9A"/>
<path d="M85.8152 49.1691H71.4217C70.6314 49.1691 69.9848 48.5317 69.9848 47.7526C69.9848 46.9736 70.6314 46.3361 71.4217 46.3361H85.8152C86.6056 46.3361 87.2522 46.9736 87.2522 47.7526C87.2522 48.5317 86.6056 49.1691 85.8152 49.1691Z" fill="#4C6A9A"/>
<path d="M91.563 63.334C90.7727 63.334 90.1261 62.6966 90.1261 61.9175V59.0846H85.7913C85.001 59.0846 84.3543 58.4471 84.3543 57.6681C84.3543 56.889 85.001 56.2516 85.7913 56.2516H91.563C92.3534 56.2516 93 56.889 93 57.6681V61.9175C93 62.6966 92.3534 63.334 91.563 63.334Z" fill="#4C6A9A"/>
<path d="M71.4217 49.1691C71.1343 49.1691 70.847 49.0983 70.6075 48.9094L56.1182 38.994C55.4715 38.5454 55.3039 37.6719 55.7589 37.0109C56.214 36.3735 57.1001 36.2082 57.7707 36.6568L72.26 46.5722C72.9066 47.0208 73.0742 47.8943 72.6192 48.5553C72.3318 48.9566 71.8768 49.1691 71.4217 49.1691Z" fill="#4C6A9A"/>
<path d="M56.9324 39.2537H11.0696C10.2793 39.2537 9.63269 38.6162 9.63269 37.8372C9.63269 37.0581 10.2793 36.4207 11.0696 36.4207H56.9324C57.7228 36.4207 58.3694 37.0581 58.3694 37.8372C58.3694 38.6162 57.7228 39.2537 56.9324 39.2537Z" fill="#4C6A9A"/>
<path d="M5.32182 46.3361C5.01048 46.3361 4.69914 46.2417 4.4357 46.0292C3.81302 45.5335 3.71723 44.66 4.22016 44.0461L9.96798 36.9637C10.4709 36.3499 11.357 36.2554 11.9797 36.7512C12.6024 37.247 12.6982 38.1205 12.1953 38.7343L6.44744 45.8167C6.16005 46.1473 5.75291 46.3361 5.32182 46.3361Z" fill="#4C6A9A"/>
<path d="M5.32182 49.1691C4.5315 49.1691 3.88487 48.5317 3.88487 47.7526V44.9196C3.88487 44.1406 4.5315 43.5031 5.32182 43.5031C6.11215 43.5031 6.75878 44.1406 6.75878 44.9196V47.7526C6.75878 48.5317 6.11215 49.1691 5.32182 49.1691Z" fill="#4C6A9A"/>
<path d="M2.44792 54.8351C2.23237 54.8351 2.01683 54.7879 1.80129 54.6934C1.08281 54.3393 0.795418 53.4894 1.15466 52.7812L4.02857 47.1152C4.3878 46.407 5.24998 46.1237 5.96845 46.4778C6.68693 46.8319 6.97432 47.6818 6.61508 48.39L3.74117 54.056C3.47773 54.5518 2.9748 54.8351 2.44792 54.8351Z" fill="#4C6A9A"/>
<path d="M2.44792 63.334C1.65759 63.334 1.01096 62.6966 1.01096 61.9175V53.4186C1.01096 52.6395 1.65759 52.0021 2.44792 52.0021C3.23824 52.0021 3.88487 52.6395 3.88487 53.4186V61.9175C3.88487 62.6966 3.23824 63.334 2.44792 63.334Z" fill="#4C6A9A"/>
<path d="M52.7413 49.1691C51.951 49.1691 51.3044 48.5317 51.3044 47.7526V37.8372C51.3044 37.0581 51.951 36.4207 52.7413 36.4207C53.5317 36.4207 54.1783 37.0581 54.1783 37.8372V47.7526C54.1783 48.5317 53.5556 49.1691 52.7413 49.1691Z" fill="#4C6A9A"/>
<path d="M38.3718 49.1691C37.5815 49.1691 36.9348 48.5317 36.9348 47.7526V37.8372C36.9348 37.0581 37.5815 36.4207 38.3718 36.4207C39.1621 36.4207 39.8087 37.0581 39.8087 37.8372V47.7526C39.8087 48.5317 39.1621 49.1691 38.3718 49.1691Z" fill="#4C6A9A"/>
<path d="M91.563 59.0846C90.7727 59.0846 90.1261 58.4471 90.1261 57.6681V53.4186C90.1261 52.6395 90.7727 52.0021 91.563 52.0021C92.3534 52.0021 93 52.6395 93 53.4186V57.6681C93 58.4471 92.3534 59.0846 91.563 59.0846Z" fill="#4C6A9A"/>
<path d="M19.6914 69C15.7397 69 12.5066 65.8129 12.5066 61.9175C12.5066 58.0222 15.7397 54.8351 19.6914 54.8351C23.643 54.8351 26.8761 58.0222 26.8761 61.9175C26.8761 65.8129 23.643 69 19.6914 69ZM19.6914 57.6681C17.3204 57.6681 15.3805 59.5803 15.3805 61.9175C15.3805 64.2548 17.3204 66.167 19.6914 66.167C22.0623 66.167 24.0022 64.2548 24.0022 61.9175C24.0022 59.5803 22.0623 57.6681 19.6914 57.6681Z" fill="#4C6A9A"/>
<path d="M19.6914 69C15.7397 69 12.5066 65.8129 12.5066 61.9175C12.5066 58.0222 15.7397 54.8351 19.6914 54.8351C23.643 54.8351 26.8761 58.0222 26.8761 61.9175C26.8761 65.8129 23.643 69 19.6914 69ZM19.6914 57.6681C17.3204 57.6681 15.3805 59.5803 15.3805 61.9175C15.3805 64.2548 17.3204 66.167 19.6914 66.167C22.0623 66.167 24.0022 64.2548 24.0022 61.9175C24.0022 59.5803 22.0623 57.6681 19.6914 57.6681Z" fill="#4C6A9A"/>
<path d="M71.4217 69C67.4701 69 64.237 65.8129 64.237 61.9175C64.237 58.0222 67.4701 54.8351 71.4217 54.8351C75.3734 54.8351 78.6065 58.0222 78.6065 61.9175C78.6065 65.8129 75.3734 69 71.4217 69ZM71.4217 57.6681C69.0508 57.6681 67.1109 59.5803 67.1109 61.9175C67.1109 64.2548 69.0508 66.167 71.4217 66.167C73.7927 66.167 75.7326 64.2548 75.7326 61.9175C75.7326 59.5803 73.7927 57.6681 71.4217 57.6681Z" fill="#4C6A9A"/>
<path d="M13.9436 63.334H2.44792C1.65759 63.334 1.01096 62.6966 1.01096 61.9175C1.01096 61.1385 1.65759 60.501 2.44792 60.501H13.9436C14.7339 60.501 15.3805 61.1385 15.3805 61.9175C15.3805 62.6966 14.7339 63.334 13.9436 63.334Z" fill="#4C6A9A"/>
<path d="M65.6739 63.334H25.4392C24.6489 63.334 24.0022 62.6966 24.0022 61.9175C24.0022 61.1385 24.6489 60.501 25.4392 60.501H65.6739C66.4642 60.501 67.1109 61.1385 67.1109 61.9175C67.1109 62.6966 66.4642 63.334 65.6739 63.334Z" fill="#4C6A9A"/>
<path d="M91.563 63.334H77.1695C76.3792 63.334 75.7326 62.6966 75.7326 61.9175C75.7326 61.1385 76.3792 60.501 77.1695 60.501H91.563C92.3534 60.501 93 61.1385 93 61.9175C93 62.6966 92.3534 63.334 91.563 63.334Z" fill="#4C6A9A"/>
<path d="M71.4217 49.1691H38.3718C37.5815 49.1691 36.9348 48.5317 36.9348 47.7526C36.9348 46.9736 37.5815 46.3361 38.3718 46.3361H71.4217C72.2121 46.3361 72.8587 46.9736 72.8587 47.7526C72.8587 48.5317 72.2121 49.1691 71.4217 49.1691Z" fill="#4C6A9A"/>
<path d="M25.4392 49.1691H5.32182C4.5315 49.1691 3.88487 48.5317 3.88487 47.7526C3.88487 46.9736 4.5315 46.3361 5.32182 46.3361H25.4392C26.2295 46.3361 26.8761 46.9736 26.8761 47.7526C26.8761 48.5317 26.2295 49.1691 25.4392 49.1691Z" fill="#4C6A9A"/>
<path d="M55.6152 53.4186H54.1783C53.388 53.4186 52.7413 52.7812 52.7413 52.0021C52.7413 51.223 53.388 50.5856 54.1783 50.5856H55.6152C56.4056 50.5856 57.0522 51.223 57.0522 52.0021C57.0522 52.7812 56.4056 53.4186 55.6152 53.4186Z" fill="#4C6A9A"/>
<path d="M41.2457 53.4186H39.8087C39.0184 53.4186 38.3718 52.7812 38.3718 52.0021C38.3718 51.223 39.0184 50.5856 39.8087 50.5856H41.2457C42.036 50.5856 42.6826 51.223 42.6826 52.0021C42.6826 52.7812 42.036 53.4186 41.2457 53.4186Z" fill="#4C6A9A"/>
<path d="M71.4696 63.334C70.6793 63.334 70.0327 62.6966 70.0327 61.9175C70.0327 61.1385 70.6554 60.501 71.4696 60.501H71.4936C72.2839 60.501 72.9305 61.1385 72.9305 61.9175C72.9066 62.6966 72.26 63.334 71.4696 63.334Z" fill="#4C6A9A"/>
<path d="M19.7393 63.334C18.9489 63.334 18.3023 62.6966 18.3023 61.9175C18.3023 61.1385 18.925 60.501 19.7393 60.501H19.7632C20.5535 60.501 21.2002 61.1385 21.2002 61.9175C21.1762 62.6966 20.5296 63.334 19.7393 63.334Z" fill="#4C6A9A"/>
<path d="M61.363 20.8393H24.0022C23.2119 20.8393 22.5653 20.2019 22.5653 19.4228V6.67436C22.5653 5.89529 23.2119 5.25787 24.0022 5.25787H61.363C62.1534 5.25787 62.8 5.89529 62.8 6.67436V19.4228C62.8 20.2019 62.1534 20.8393 61.363 20.8393ZM25.4392 18.0063H59.9261V8.09086H25.4392V18.0063Z" fill="#4C6A9A"/>
<path d="M69.9848 20.8393H61.363C60.5727 20.8393 59.9261 20.2019 59.9261 19.4228V6.67436C59.9261 5.89529 60.5727 5.25787 61.363 5.25787H69.9848C70.7751 5.25787 71.4217 5.89529 71.4217 6.67436V19.4228C71.4217 20.2019 70.7751 20.8393 69.9848 20.8393ZM62.8 18.0063H68.5478V8.09086H62.8V18.0063Z" fill="#4C6A9A"/>
<path d="M55.6152 15.1733H29.7501C28.9597 15.1733 28.3131 14.5359 28.3131 13.7568C28.3131 12.9778 28.9597 12.3403 29.7501 12.3403H55.6152C56.4056 12.3403 57.0522 12.9778 57.0522 13.7568C57.0522 14.5359 56.4056 15.1733 55.6152 15.1733Z" fill="#4C6A9A"/>
<path d="M29.7501 15.1733C28.9597 15.1733 28.3131 14.5359 28.3131 13.7568V12.3403C28.3131 11.5613 28.9597 10.9238 29.7501 10.9238C30.5404 10.9238 31.187 11.5613 31.187 12.3403V13.7568C31.187 14.5359 30.5404 15.1733 29.7501 15.1733Z" fill="#4C6A9A"/>
<path d="M55.6152 15.1733C54.8249 15.1733 54.1783 14.5359 54.1783 13.7568V12.3403C54.1783 11.5613 54.8249 10.9238 55.6152 10.9238C56.4056 10.9238 57.0522 11.5613 57.0522 12.3403L57.0522 13.7568C57.0522 14.5359 56.4056 15.1733 55.6152 15.1733Z" fill="#4C6A9A"/>
<path d="M24.0022 8.09086C23.7388 8.09086 23.4514 8.02003 23.2119 7.85477C22.5413 7.42983 22.3737 6.53271 22.8048 5.89529L25.6787 1.64582C26.1098 0.984789 27.0198 0.819532 27.6665 1.24448C28.337 1.66943 28.5047 2.56654 28.0736 3.20396L25.1997 7.45343C24.9363 7.87838 24.4573 8.09086 24.0022 8.09086Z" fill="#4C6A9A"/>
<path d="M69.9848 8.09086C69.5297 8.09086 69.0747 7.87838 68.7873 7.45343L65.9134 3.20396C65.4823 2.54293 65.65 1.66943 66.3205 1.24448C66.9672 0.795923 67.8772 0.984789 68.3083 1.64582L71.1822 5.89529C71.6133 6.55632 71.4457 7.42983 70.7751 7.85477C70.5356 8.02003 70.2482 8.09086 69.9848 8.09086Z" fill="#4C6A9A"/>
<path d="M61.3631 8.09086C60.908 8.09086 60.453 7.87838 60.1656 7.45343L57.2917 3.20396C56.8606 2.54293 57.0282 1.66943 57.6988 1.24448C58.3454 0.795923 59.2555 0.984789 59.6866 1.64582L62.5605 5.89529C62.9916 6.55632 62.824 7.42983 62.1534 7.85477C61.9139 8.02003 61.6265 8.09086 61.3631 8.09086Z" fill="#4C6A9A"/>
<path d="M67.1109 3.84138H26.8761C26.0858 3.84138 25.4392 3.20396 25.4392 2.42489C25.4392 1.64582 26.0858 1.0084 26.8761 1.0084H67.1109C67.9012 1.0084 68.5478 1.64582 68.5478 2.42489C68.5478 3.20396 67.9012 3.84138 67.1109 3.84138Z" fill="#4C6A9A"/>
<path d="M46.9935 33.5877C46.2032 33.5877 45.5566 32.9503 45.5566 32.1712V23.6723C45.5566 22.8932 46.2032 22.2558 46.9935 22.2558C47.7838 22.2558 48.4305 22.8932 48.4305 23.6723V32.1712C48.4305 32.9503 47.7838 33.5877 46.9935 33.5877Z" fill="#4C6A9A"/>
<path d="M46.9935 33.5877C46.6343 33.5877 46.2511 33.4461 45.9876 33.1628C45.4368 32.6198 45.4368 31.7227 45.9876 31.1561L48.8615 28.3231C49.4124 27.7801 50.3225 27.7801 50.8972 28.3231C51.4481 28.8661 51.4481 29.7632 50.8972 30.3298L48.0233 33.1628C47.7359 33.4461 47.3527 33.5877 46.9935 33.5877Z" fill="#4C6A9A"/>
<path d="M46.9935 33.5877C46.6343 33.5877 46.2511 33.4461 45.9876 33.1628L43.1137 30.3298C42.5629 29.7868 42.5629 28.8897 43.1137 28.3231C43.6646 27.7801 44.5746 27.7801 45.1494 28.3231L48.0233 31.1561C48.5742 31.699 48.5742 32.5962 48.0233 33.1628C47.7359 33.4461 47.3527 33.5877 46.9935 33.5877Z" fill="#4C6A9A"/>
<path d="M58.4891 33.5877C57.6988 33.5877 57.0522 32.9503 57.0522 32.1712V23.6723C57.0522 22.8932 57.6988 22.2558 58.4891 22.2558C59.2795 22.2558 59.9261 22.8932 59.9261 23.6723V32.1712C59.9261 32.9503 59.2795 33.5877 58.4891 33.5877Z" fill="#4C6A9A"/>
<path d="M58.4891 33.5877C58.1299 33.5877 57.7467 33.4461 57.4833 33.1628C56.9324 32.6198 56.9324 31.7227 57.4833 31.1561L60.3572 28.3231C60.908 27.7801 61.8181 27.7801 62.3929 28.3231C62.9437 28.8661 62.9437 29.7632 62.3929 30.3298L59.519 33.1628C59.2316 33.4461 58.8484 33.5877 58.4891 33.5877Z" fill="#4C6A9A"/>
<path d="M58.4891 33.5877C58.1299 33.5877 57.7467 33.4461 57.4833 33.1628L54.6094 30.3298C54.0585 29.7868 54.0585 28.8897 54.6094 28.3231C55.1602 27.7801 56.0703 27.7801 56.6451 28.3231L59.519 31.1561C60.0698 31.699 60.0698 32.5962 59.519 33.1628C59.2316 33.4461 58.8484 33.5877 58.4891 33.5877Z" fill="#4C6A9A"/>
<path d="M35.4979 33.5877C34.7075 33.5877 34.0609 32.9503 34.0609 32.1712V23.6723C34.0609 22.8932 34.7075 22.2558 35.4979 22.2558C36.2882 22.2558 36.9348 22.8932 36.9348 23.6723V32.1712C36.9348 32.9503 36.2882 33.5877 35.4979 33.5877Z" fill="#4C6A9A"/>
<path d="M35.4979 33.5877C35.1386 33.5877 34.7554 33.4461 34.492 33.1628C33.9412 32.6198 33.9412 31.7227 34.492 31.1561L37.3659 28.3231C37.9167 27.7801 38.8268 27.7801 39.4016 28.3231C39.9524 28.8661 39.9524 29.7632 39.4016 30.3298L36.5277 33.1628C36.2403 33.4461 35.8571 33.5877 35.4979 33.5877Z" fill="#4C6A9A"/>
<path d="M35.4979 33.5877C35.1386 33.5877 34.7554 33.4461 34.492 33.1628L31.6181 30.3298C31.0673 29.7868 31.0673 28.8897 31.6181 28.3231C32.1689 27.7801 33.079 27.7801 33.6538 28.3231L36.5277 31.1561C37.0785 31.699 37.0785 32.5962 36.5277 33.1628C36.2403 33.4461 35.8571 33.5877 35.4979 33.5877Z" fill="#4C6A9A"/>
<path d="M92.85 61.9175C92.85 62.6117 92.2726 63.184 91.563 63.184V63.484C92.4342 63.484 93.15 62.7815 93.15 61.9175H92.85ZM5.32182 49.0191C4.61231 49.0191 4.03487 48.4468 4.03487 47.7526H3.73487C3.73487 48.6166 4.45069 49.3191 5.32182 49.3191V49.0191ZM2.44792 63.184C1.7384 63.184 1.16096 62.6117 1.16096 61.9175H0.860961C0.860961 62.7815 1.57678 63.484 2.44792 63.484V63.184ZM38.3718 49.0191C37.6623 49.0191 37.0848 48.4468 37.0848 47.7526H36.7848C36.7848 48.6166 37.5006 49.3191 38.3718 49.3191V49.0191ZM19.6914 68.85C15.8206 68.85 12.6566 65.728 12.6566 61.9175H12.3566C12.3566 65.8978 15.6589 69.15 19.6914 69.15V68.85ZM12.6566 61.9175C12.6566 58.1071 15.8206 54.9851 19.6914 54.9851V54.6851C15.6589 54.6851 12.3566 57.9373 12.3566 61.9175H12.6566ZM19.6914 54.9851C23.5622 54.9851 26.7261 58.1071 26.7261 61.9175H27.0261C27.0261 57.9373 23.7238 54.6851 19.6914 54.6851V54.9851ZM26.7261 61.9175C26.7261 65.728 23.5622 68.85 19.6914 68.85V69.15C23.7238 69.15 27.0261 65.8978 27.0261 61.9175H26.7261ZM19.6914 57.5181C17.2396 57.5181 15.2305 59.4955 15.2305 61.9175H15.5305C15.5305 59.6652 17.4012 57.8181 19.6914 57.8181V57.5181ZM15.2305 61.9175C15.2305 64.3396 17.2396 66.317 19.6914 66.317V66.017C17.4012 66.017 15.5305 64.1699 15.5305 61.9175H15.2305ZM19.6914 66.317C22.1432 66.317 24.1522 64.3396 24.1522 61.9175H23.8522C23.8522 64.1699 21.9815 66.017 19.6914 66.017V66.317ZM24.1522 61.9175C24.1522 59.4955 22.1432 57.5181 19.6914 57.5181V57.8181C21.9815 57.8181 23.8522 59.6652 23.8522 61.9175H24.1522ZM29.7501 15.0233C29.0405 15.0233 28.4631 14.451 28.4631 13.7568H28.1631C28.1631 14.6208 28.8789 15.3233 29.7501 15.3233V15.0233ZM56.9022 13.7568C56.9022 14.451 56.3247 15.0233 55.6152 15.0233V15.3233C56.4864 15.3233 57.2022 14.6208 57.2022 13.7568H56.9022ZM46.9935 33.4377C46.6707 33.4377 46.3291 33.3097 46.0975 33.0606L45.8778 33.2649C46.173 33.5824 46.5979 33.7377 46.9935 33.7377V33.4377ZM47.918 33.0559C47.6599 33.3104 47.315 33.4377 46.9935 33.4377V33.7377C47.3905 33.7377 47.812 33.5817 48.1286 33.2696L47.918 33.0559ZM58.4891 33.4377C58.1663 33.4377 57.8248 33.3097 57.5931 33.0606L57.3734 33.2649C57.6687 33.5824 58.0935 33.7377 58.4891 33.7377V33.4377ZM59.4137 33.0559C59.1555 33.3104 58.8107 33.4377 58.4891 33.4377V33.7377C58.8861 33.7377 59.3076 33.5817 59.6243 33.2696L59.4137 33.0559ZM35.4979 33.4377C35.175 33.4377 34.8335 33.3097 34.6018 33.0606L34.3822 33.2649C34.6774 33.5824 35.1022 33.7377 35.4979 33.7377V33.4377ZM36.4224 33.0559C36.1642 33.3104 35.8194 33.4377 35.4979 33.4377V33.7377C35.8948 33.7377 36.3164 33.5817 36.633 33.2696L36.4224 33.0559ZM90.1261 59.0846H90.4261V58.7846H90.1261V59.0846ZM70.6075 48.9094L70.7932 48.6739L70.7853 48.6676L70.7769 48.6618L70.6075 48.9094ZM56.1182 38.994L55.9472 39.2405L55.9487 39.2416L56.1182 38.994ZM55.7589 37.0109L55.5147 36.8366L55.5118 36.8408L55.7589 37.0109ZM57.7707 36.6568L57.9401 36.4092L57.9375 36.4074L57.7707 36.6568ZM72.26 46.5722L72.431 46.3257L72.4294 46.3246L72.26 46.5722ZM72.6192 48.5553L72.8632 48.73L72.8663 48.7254L72.6192 48.5553ZM4.4357 46.0292L4.62404 45.7957L4.62257 45.7945L4.4357 46.0292ZM4.22016 44.0461L4.45222 44.2363L4.4531 44.2352L4.22016 44.0461ZM9.96798 36.9637L9.73592 36.7735L9.73504 36.7746L9.96798 36.9637ZM12.1953 38.7343L11.9632 38.5442L11.9623 38.5452L12.1953 38.7343ZM6.44744 45.8167L6.67396 46.0137L6.68038 46.0058L6.44744 45.8167ZM1.80129 54.6934L1.66852 54.9628L1.6809 54.9682L1.80129 54.6934ZM1.15466 52.7812L0.887106 52.6455L1.15466 52.7812ZM4.02857 47.1152L4.29612 47.2509L4.02857 47.1152ZM3.74117 54.056L4.00614 54.1968L4.00873 54.1917L3.74117 54.056ZM72.9305 61.9175L73.2305 61.9268V61.9175H72.9305ZM21.2002 61.9175L21.5002 61.9268V61.9175H21.2002ZM25.4392 18.0063H25.1392V18.3063H25.4392V18.0063ZM59.9261 18.0063V18.3063H60.2261V18.0063H59.9261ZM59.9261 8.09086H60.2261V7.79086H59.9261V8.09086ZM25.4392 8.09086V7.79086H25.1392V8.09086H25.4392ZM62.8 18.0063H62.5V18.3063H62.8V18.0063ZM68.5478 18.0063V18.3063H68.8478V18.0063H68.5478ZM68.5478 8.09086H68.8478V7.79086H68.5478V8.09086ZM62.8 8.09086V7.79086H62.5V8.09086H62.8ZM57.0522 12.3403L57.3522 12.3403V12.3403H57.0522ZM23.2119 7.85477L23.3824 7.60766L23.3725 7.60137L23.2119 7.85477ZM22.8048 5.89529L22.5563 5.72723L22.8048 5.89529ZM25.6787 1.64582L25.9272 1.81391L25.93 1.80969L25.6787 1.64582ZM27.6665 1.24448L27.5017 1.49522L27.5059 1.49788L27.6665 1.24448ZM28.0736 3.20396L28.3221 3.37202L28.0736 3.20396ZM25.1997 7.45343L24.951 7.28524L24.9447 7.29536L25.1997 7.45343ZM68.7873 7.45343L68.5388 7.6215L68.7873 7.45343ZM65.9134 3.20396L65.6621 3.36786L65.6649 3.37202L65.9134 3.20396ZM66.3205 1.24448L66.4813 1.4981L66.4915 1.49098L66.3205 1.24448ZM68.3083 1.64582L68.057 1.80972L68.0598 1.81388L68.3083 1.64582ZM71.1822 5.89529L71.4336 5.7314L71.4307 5.72723L71.1822 5.89529ZM70.7751 7.85477L70.6144 7.60118L70.6047 7.60785L70.7751 7.85477ZM60.1656 7.45343L59.9171 7.6215L60.1656 7.45343ZM57.2917 3.20396L57.0404 3.36786L57.0432 3.37202L57.2917 3.20396ZM57.6988 1.24448L57.8595 1.4981L57.8698 1.49098L57.6988 1.24448ZM59.6866 1.64582L59.4353 1.80972L59.4381 1.81388L59.6866 1.64582ZM62.5605 5.89529L62.8118 5.7314L62.809 5.72723L62.5605 5.89529ZM62.1534 7.85477L61.9927 7.60118L61.983 7.60785L62.1534 7.85477ZM45.9876 31.1561L45.777 30.9424L45.7725 30.9469L45.9876 31.1561ZM50.8972 28.3231L51.1079 28.1094L51.1032 28.105L50.8972 28.3231ZM50.8972 30.3298L51.1079 30.5435L51.1123 30.5389L50.8972 30.3298ZM48.0233 33.1628L47.8082 32.9536L48.2339 33.3764L48.0233 33.1628ZM43.1137 28.3231L42.9031 28.1094L42.8986 28.114L43.1137 28.3231ZM45.1494 28.3231L45.3601 28.1094L45.3554 28.105L45.1494 28.3231ZM57.4833 31.1561L57.2726 30.9424L57.2682 30.9469L57.4833 31.1561ZM62.3929 28.3231L62.6035 28.1094L62.5989 28.105L62.3929 28.3231ZM62.3929 30.3298L62.6035 30.5435L62.608 30.5389L62.3929 30.3298ZM59.519 33.1628L59.3039 32.9536L59.7296 33.3764L59.519 33.1628ZM54.6094 28.3231L54.3987 28.1094L54.3943 28.114L54.6094 28.3231ZM56.6451 28.3231L56.8557 28.1094L56.8511 28.105L56.6451 28.3231ZM34.492 31.1561L34.2813 30.9424L34.2769 30.9469L34.492 31.1561ZM39.4016 28.3231L39.6123 28.1094L39.6076 28.105L39.4016 28.3231ZM39.4016 30.3298L39.6123 30.5435L39.6167 30.5389L39.4016 30.3298ZM36.5277 33.1628L36.3126 32.9536L36.7383 33.3764L36.5277 33.1628ZM31.6181 30.3298L31.4075 30.5434L31.6181 30.3298ZM31.6181 28.3231L31.4074 28.1094L31.403 28.114L31.6181 28.3231ZM33.6538 28.3231L33.8644 28.1094L33.8598 28.105L33.6538 28.3231ZM91.563 54.5351C90.9343 54.5351 90.4261 54.0279 90.4261 53.4186H89.8261C89.8261 54.3674 90.6111 55.1351 91.563 55.1351V54.5351ZM90.4261 53.4186C90.4261 50.9117 88.3478 48.8691 85.8152 48.8691V49.4691C88.0246 49.4691 89.8261 51.2511 89.8261 53.4186H90.4261ZM85.8152 48.8691C85.1865 48.8691 84.6783 48.362 84.6783 47.7526H84.0783C84.0783 48.7014 84.8633 49.4691 85.8152 49.4691V48.8691ZM84.6783 47.7526C84.6783 47.1433 85.1865 46.6361 85.8152 46.6361V46.0361C84.8633 46.0361 84.0783 46.8038 84.0783 47.7526H84.6783ZM85.8152 46.6361C89.6052 46.6361 92.7 49.693 92.7 53.4186H93.3C93.3 49.3535 89.9285 46.0361 85.8152 46.0361V46.6361ZM92.7 53.4186C92.7 54.0279 92.1918 54.5351 91.563 54.5351V55.1351C92.515 55.1351 93.3 54.3674 93.3 53.4186H92.7ZM85.8152 48.8691H71.4217V49.4691H85.8152V48.8691ZM71.4217 48.8691C70.793 48.8691 70.2848 48.362 70.2848 47.7526H69.6848C69.6848 48.7014 70.4698 49.4691 71.4217 49.4691V48.8691ZM70.2848 47.7526C70.2848 47.1433 70.793 46.6361 71.4217 46.6361V46.0361C70.4698 46.0361 69.6848 46.8038 69.6848 47.7526H70.2848ZM71.4217 46.6361H85.8152V46.0361H71.4217V46.6361ZM85.8152 46.6361C86.4439 46.6361 86.9522 47.1433 86.9522 47.7526H87.5522C87.5522 46.8038 86.7672 46.0361 85.8152 46.0361V46.6361ZM86.9522 47.7526C86.9522 48.362 86.4439 48.8691 85.8152 48.8691V49.4691C86.7672 49.4691 87.5522 48.7014 87.5522 47.7526H86.9522ZM91.563 63.034C90.9343 63.034 90.4261 62.5269 90.4261 61.9175H89.8261C89.8261 62.8663 90.6111 63.634 91.563 63.634V63.034ZM90.4261 61.9175V59.0846H89.8261V61.9175H90.4261ZM90.1261 58.7846H85.7913V59.3846H90.1261V58.7846ZM85.7913 58.7846C85.1626 58.7846 84.6543 58.2774 84.6543 57.6681H84.0543C84.0543 58.6169 84.8393 59.3846 85.7913 59.3846V58.7846ZM84.6543 57.6681C84.6543 57.0587 85.1626 56.5516 85.7913 56.5516V55.9516C84.8393 55.9516 84.0543 56.7193 84.0543 57.6681H84.6543ZM85.7913 56.5516H91.563V55.9516H85.7913V56.5516ZM91.563 56.5516C92.1918 56.5516 92.7 57.0587 92.7 57.6681H93.3C93.3 56.7193 92.515 55.9516 91.563 55.9516V56.5516ZM92.7 57.6681V61.9175H93.3V57.6681H92.7ZM71.4217 48.8691C71.1827 48.8691 70.9666 48.8106 70.7932 48.6739L70.4217 49.145C70.7273 49.386 71.086 49.4691 71.4217 49.4691V48.8691ZM70.7769 48.6618L56.2876 38.7464L55.9487 39.2416L70.438 49.157L70.7769 48.6618ZM56.2892 38.7475C55.7775 38.3926 55.6453 37.7051 56.006 37.181L55.5118 36.8408C54.9625 37.6387 55.1655 38.6983 55.9472 39.2405L56.2892 38.7475ZM56.0031 37.1852C56.3629 36.6812 57.0665 36.5467 57.6039 36.9061L57.9375 36.4074C57.1336 35.8697 56.0651 36.0657 55.5148 36.8366L56.0031 37.1852ZM57.6012 36.9044L72.0905 46.8198L72.4294 46.3246L57.9401 36.4092L57.6012 36.9044ZM72.089 46.8187C72.6006 47.1736 72.7329 47.8611 72.3721 48.3852L72.8663 48.7254C73.4156 47.9275 73.2126 46.8679 72.4309 46.3257L72.089 46.8187ZM72.3753 48.3806C72.1471 48.6993 71.785 48.8691 71.4217 48.8691V49.4691C71.9685 49.4691 72.5165 49.214 72.8631 48.73L72.3753 48.3806ZM56.9324 38.9537H11.0696V39.5537H56.9324V38.9537ZM11.0696 38.9537C10.4409 38.9537 9.93269 38.4465 9.93269 37.8372H9.33269C9.33269 38.786 10.1177 39.5537 11.0696 39.5537V38.9537ZM9.93269 37.8372C9.93269 37.2278 10.4409 36.7207 11.0696 36.7207V36.1207C10.1177 36.1207 9.33269 36.8884 9.33269 37.8372H9.93269ZM11.0696 36.7207H56.9324V36.1207H11.0696V36.7207ZM56.9324 36.7207C57.5611 36.7207 58.0694 37.2278 58.0694 37.8372H58.6694C58.6694 36.8884 57.8844 36.1207 56.9324 36.1207V36.7207ZM58.0694 37.8372C58.0694 38.4465 57.5611 38.9537 56.9324 38.9537V39.5537C57.8844 39.5537 58.6694 38.786 58.6694 37.8372H58.0694ZM5.32182 46.0361C5.07209 46.0361 4.82899 45.961 4.62404 45.7957L4.24737 46.2627C4.5693 46.5224 4.94888 46.6361 5.32182 46.6361V46.0361ZM4.62257 45.7945C4.12964 45.4021 4.05626 44.7195 4.45221 44.2363L3.98811 43.856C3.37819 44.6004 3.49641 45.6648 4.24884 46.2639L4.62257 45.7945ZM4.4531 44.2352L10.2009 37.1527L9.73504 36.7746L3.98722 43.8571L4.4531 44.2352ZM10.2 37.1538C10.5988 36.6671 11.2983 36.5921 11.7928 36.9859L12.1666 36.5165C11.4158 35.9187 10.343 36.0326 9.73592 36.7735L10.2 37.1538ZM11.7928 36.9859C12.2858 37.3784 12.3592 38.0609 11.9632 38.5442L12.4273 38.9244C13.0372 38.18 12.919 37.1156 12.1666 36.5165L11.7928 36.9859ZM11.9623 38.5452L6.2145 45.6277L6.68038 46.0058L12.4282 38.9233L11.9623 38.5452ZM6.22105 45.6199C5.9891 45.8867 5.66376 46.0361 5.32182 46.0361V46.6361C5.84207 46.6361 6.331 46.4079 6.67383 46.0136L6.22105 45.6199ZM4.18487 47.7526V44.9196H3.58487V47.7526H4.18487ZM4.18487 44.9196C4.18487 44.3103 4.69311 43.8031 5.32182 43.8031V43.2031C4.36989 43.2031 3.58487 43.9708 3.58487 44.9196H4.18487ZM5.32182 43.8031C5.95054 43.8031 6.45878 44.3103 6.45878 44.9196H7.05878C7.05878 43.9708 6.27376 43.2031 5.32182 43.2031V43.8031ZM6.45878 44.9196V47.7526H7.05878V44.9196H6.45878ZM6.45878 47.7526C6.45878 48.362 5.95054 48.8691 5.32182 48.8691V49.4691C6.27376 49.4691 7.05878 48.7014 7.05878 47.7526H6.45878ZM2.44792 54.5351C2.27749 54.5351 2.10278 54.498 1.92167 54.4186L1.6809 54.9682C1.93088 55.0777 2.18726 55.1351 2.44792 55.1351V54.5351ZM1.93392 54.4243C1.36303 54.143 1.13964 53.474 1.42221 52.9169L0.887106 52.6455C0.451191 53.5049 0.802584 54.5356 1.66866 54.9625L1.93392 54.4243ZM1.42221 52.9169L4.29612 47.2509L3.76102 46.9795L0.887106 52.6455L1.42221 52.9169ZM4.29612 47.2509C4.57993 46.6914 5.26261 46.4643 5.83583 46.7469L6.10108 46.2087C5.23735 45.783 4.19568 46.1226 3.76102 46.9795L4.29612 47.2509ZM5.83583 46.7469C6.40671 47.0282 6.6301 47.6973 6.34753 48.2543L6.88263 48.5257C7.31855 47.6663 6.96716 46.6356 6.10108 46.2087L5.83583 46.7469ZM6.34753 48.2543L3.47362 53.9203L4.00873 54.1917L6.88263 48.5257L6.34753 48.2543ZM3.47625 53.9152C3.26642 54.3101 2.86716 54.5351 2.44792 54.5351V55.1351C3.08244 55.1351 3.68905 54.7934 4.0061 54.1968L3.47625 53.9152ZM1.31096 61.9175V53.4186H0.710961V61.9175H1.31096ZM1.31096 53.4186C1.31096 52.8092 1.81921 52.3021 2.44792 52.3021V51.7021C1.49598 51.7021 0.710961 52.4698 0.710961 53.4186H1.31096ZM2.44792 52.3021C3.07663 52.3021 3.58487 52.8092 3.58487 53.4186H4.18487C4.18487 52.4698 3.39986 51.7021 2.44792 51.7021V52.3021ZM3.58487 53.4186V61.9175H4.18487V53.4186H3.58487ZM3.58487 61.9175C3.58487 62.5269 3.07663 63.034 2.44792 63.034V63.634C3.39986 63.634 4.18487 62.8663 4.18487 61.9175H3.58487ZM52.7413 48.8691C52.1126 48.8691 51.6044 48.362 51.6044 47.7526H51.0044C51.0044 48.7014 51.7894 49.4691 52.7413 49.4691V48.8691ZM51.6044 47.7526V37.8372H51.0044V47.7526H51.6044ZM51.6044 37.8372C51.6044 37.2278 52.1126 36.7207 52.7413 36.7207V36.1207C51.7894 36.1207 51.0044 36.8884 51.0044 37.8372H51.6044ZM52.7413 36.7207C53.37 36.7207 53.8783 37.2278 53.8783 37.8372H54.4783C54.4783 36.8884 53.6933 36.1207 52.7413 36.1207V36.7207ZM53.8783 37.8372V47.7526H54.4783V37.8372H53.8783ZM53.8783 47.7526C53.8783 48.3652 53.3907 48.8691 52.7413 48.8691V49.4691C53.7205 49.4691 54.4783 48.6982 54.4783 47.7526H53.8783ZM37.2348 47.7526V37.8372H36.6348V47.7526H37.2348ZM37.2348 37.8372C37.2348 37.2278 37.7431 36.7207 38.3718 36.7207V36.1207C37.4198 36.1207 36.6348 36.8884 36.6348 37.8372H37.2348ZM38.3718 36.7207C39.0005 36.7207 39.5087 37.2278 39.5087 37.8372H40.1087C40.1087 36.8884 39.3237 36.1207 38.3718 36.1207V36.7207ZM39.5087 37.8372V47.7526H40.1087V37.8372H39.5087ZM39.5087 47.7526C39.5087 48.362 39.0005 48.8691 38.3718 48.8691V49.4691C39.3237 49.4691 40.1087 48.7014 40.1087 47.7526H39.5087ZM91.563 58.7846C90.9343 58.7846 90.4261 58.2774 90.4261 57.6681H89.8261C89.8261 58.6169 90.6111 59.3846 91.563 59.3846V58.7846ZM90.4261 57.6681V53.4186H89.8261V57.6681H90.4261ZM90.4261 53.4186C90.4261 52.8092 90.9343 52.3021 91.563 52.3021V51.7021C90.6111 51.7021 89.8261 52.4698 89.8261 53.4186H90.4261ZM91.563 52.3021C92.1918 52.3021 92.7 52.8092 92.7 53.4186H93.3C93.3 52.4698 92.515 51.7021 91.563 51.7021V52.3021ZM92.7 53.4186V57.6681H93.3V53.4186H92.7ZM92.7 57.6681C92.7 58.2774 92.1918 58.7846 91.563 58.7846V59.3846C92.515 59.3846 93.3 58.6169 93.3 57.6681H92.7ZM71.4217 68.7C67.6317 68.7 64.537 65.6432 64.537 61.9175H63.937C63.937 65.9826 67.3085 69.3 71.4217 69.3V68.7ZM64.537 61.9175C64.537 58.1919 67.6317 55.1351 71.4217 55.1351V54.5351C67.3085 54.5351 63.937 57.8525 63.937 61.9175H64.537ZM71.4217 55.1351C75.2117 55.1351 78.3065 58.1919 78.3065 61.9175H78.9065C78.9065 57.8525 75.535 54.5351 71.4217 54.5351V55.1351ZM78.3065 61.9175C78.3065 65.6432 75.2117 68.7 71.4217 68.7V69.3C75.535 69.3 78.9065 65.9826 78.9065 61.9175H78.3065ZM71.4217 57.3681C68.8891 57.3681 66.8109 59.4106 66.8109 61.9175H67.4109C67.4109 59.7501 69.2124 57.9681 71.4217 57.9681V57.3681ZM66.8109 61.9175C66.8109 64.4245 68.8891 66.467 71.4217 66.467V65.867C69.2124 65.867 67.4109 64.085 67.4109 61.9175H66.8109ZM71.4217 66.467C73.9543 66.467 76.0326 64.4245 76.0326 61.9175H75.4326C75.4326 64.085 73.6311 65.867 71.4217 65.867V66.467ZM76.0326 61.9175C76.0326 59.4106 73.9543 57.3681 71.4217 57.3681V57.9681C73.6311 57.9681 75.4326 59.7501 75.4326 61.9175H76.0326ZM13.9436 63.034H2.44792V63.634H13.9436V63.034ZM1.31096 61.9175C1.31096 61.3082 1.81921 60.801 2.44792 60.801V60.201C1.49598 60.201 0.710961 60.9687 0.710961 61.9175H1.31096ZM2.44792 60.801H13.9436V60.201H2.44792V60.801ZM13.9436 60.801C14.5723 60.801 15.0805 61.3082 15.0805 61.9175H15.6805C15.6805 60.9687 14.8955 60.201 13.9436 60.201V60.801ZM15.0805 61.9175C15.0805 62.5269 14.5723 63.034 13.9436 63.034V63.634C14.8955 63.634 15.6805 62.8663 15.6805 61.9175H15.0805ZM65.6739 63.034H25.4392V63.634H65.6739V63.034ZM25.4392 63.034C24.8105 63.034 24.3022 62.5269 24.3022 61.9175H23.7022C23.7022 62.8663 24.4872 63.634 25.4392 63.634V63.034ZM24.3022 61.9175C24.3022 61.3082 24.8105 60.801 25.4392 60.801V60.201C24.4872 60.201 23.7022 60.9687 23.7022 61.9175H24.3022ZM25.4392 60.801H65.6739V60.201H25.4392V60.801ZM65.6739 60.801C66.3026 60.801 66.8109 61.3082 66.8109 61.9175H67.4109C67.4109 60.9687 66.6259 60.201 65.6739 60.201V60.801ZM66.8109 61.9175C66.8109 62.5269 66.3026 63.034 65.6739 63.034V63.634C66.6259 63.634 67.4109 62.8663 67.4109 61.9175H66.8109ZM91.563 63.034H77.1695V63.634H91.563V63.034ZM77.1695 63.034C76.5408 63.034 76.0326 62.5269 76.0326 61.9175H75.4326C75.4326 62.8663 76.2176 63.634 77.1695 63.634V63.034ZM76.0326 61.9175C76.0326 61.3082 76.5408 60.801 77.1695 60.801V60.201C76.2176 60.201 75.4326 60.9687 75.4326 61.9175H76.0326ZM77.1695 60.801H91.563V60.201H77.1695V60.801ZM91.563 60.801C92.1918 60.801 92.7 61.3082 92.7 61.9175H93.3C93.3 60.9687 92.515 60.201 91.563 60.201V60.801ZM71.4217 48.8691H38.3718V49.4691H71.4217V48.8691ZM37.2348 47.7526C37.2348 47.1433 37.7431 46.6361 38.3718 46.6361V46.0361C37.4198 46.0361 36.6348 46.8038 36.6348 47.7526H37.2348ZM38.3718 46.6361H71.4217V46.0361H38.3718V46.6361ZM71.4217 46.6361C72.0504 46.6361 72.5587 47.1433 72.5587 47.7526H73.1587C73.1587 46.8038 72.3737 46.0361 71.4217 46.0361V46.6361ZM72.5587 47.7526C72.5587 48.362 72.0504 48.8691 71.4217 48.8691V49.4691C72.3737 49.4691 73.1587 48.7014 73.1587 47.7526H72.5587ZM25.4392 48.8691H5.32182V49.4691H25.4392V48.8691ZM4.18487 47.7526C4.18487 47.1433 4.69311 46.6361 5.32182 46.6361V46.0361C4.36989 46.0361 3.58487 46.8038 3.58487 47.7526H4.18487ZM5.32182 46.6361H25.4392V46.0361H5.32182V46.6361ZM25.4392 46.6361C26.0679 46.6361 26.5761 47.1433 26.5761 47.7526H27.1761C27.1761 46.8038 26.3911 46.0361 25.4392 46.0361V46.6361ZM26.5761 47.7526C26.5761 48.362 26.0679 48.8691 25.4392 48.8691V49.4691C26.3911 49.4691 27.1761 48.7014 27.1761 47.7526H26.5761ZM55.6152 53.1186H54.1783V53.7186H55.6152V53.1186ZM54.1783 53.1186C53.5496 53.1186 53.0413 52.6114 53.0413 52.0021H52.4413C52.4413 52.9509 53.2263 53.7186 54.1783 53.7186V53.1186ZM53.0413 52.0021C53.0413 51.3928 53.5496 50.8856 54.1783 50.8856V50.2856C53.2263 50.2856 52.4413 51.0533 52.4413 52.0021H53.0413ZM54.1783 50.8856H55.6152V50.2856H54.1783V50.8856ZM55.6152 50.8856C56.2439 50.8856 56.7522 51.3928 56.7522 52.0021H57.3522C57.3522 51.0533 56.5672 50.2856 55.6152 50.2856V50.8856ZM56.7522 52.0021C56.7522 52.6114 56.2439 53.1186 55.6152 53.1186V53.7186C56.5672 53.7186 57.3522 52.9509 57.3522 52.0021H56.7522ZM41.2457 53.1186H39.8087V53.7186H41.2457V53.1186ZM39.8087 53.1186C39.18 53.1186 38.6718 52.6114 38.6718 52.0021H38.0718C38.0718 52.9509 38.8568 53.7186 39.8087 53.7186V53.1186ZM38.6718 52.0021C38.6718 51.3928 39.18 50.8856 39.8087 50.8856V50.2856C38.8568 50.2856 38.0718 51.0533 38.0718 52.0021H38.6718ZM39.8087 50.8856H41.2457V50.2856H39.8087V50.8856ZM41.2457 50.8856C41.8744 50.8856 42.3826 51.3928 42.3826 52.0021H42.9826C42.9826 51.0533 42.1976 50.2856 41.2457 50.2856V50.8856ZM42.3826 52.0021C42.3826 52.6114 41.8744 53.1186 41.2457 53.1186V53.7186C42.1976 53.7186 42.9826 52.9509 42.9826 52.0021H42.3826ZM71.4696 63.034C70.8409 63.034 70.3327 62.5269 70.3327 61.9175H69.7327C69.7327 62.8663 70.5177 63.634 71.4696 63.634V63.034ZM70.3327 61.9175C70.3327 61.3049 70.8203 60.801 71.4696 60.801V60.201C70.4905 60.201 69.7327 60.972 69.7327 61.9175H70.3327ZM71.4696 60.801H71.4936V60.201H71.4696V60.801ZM71.4936 60.801C72.1223 60.801 72.6305 61.3082 72.6305 61.9175H73.2305C73.2305 60.9687 72.4455 60.201 71.4936 60.201V60.801ZM72.6307 61.9083C72.6117 62.5268 72.0965 63.034 71.4696 63.034V63.634C72.4234 63.634 73.2015 62.8665 73.2304 61.9268L72.6307 61.9083ZM19.7393 63.034C19.1106 63.034 18.6023 62.5269 18.6023 61.9175H18.0023C18.0023 62.8663 18.7873 63.634 19.7393 63.634V63.034ZM18.6023 61.9175C18.6023 61.3049 19.0899 60.801 19.7393 60.801V60.201C18.7601 60.201 18.0023 60.972 18.0023 61.9175H18.6023ZM19.7393 60.801H19.7632V60.201H19.7393V60.801ZM19.7632 60.801C20.3919 60.801 20.9002 61.3082 20.9002 61.9175H21.5002C21.5002 60.9687 20.7152 60.201 19.7632 60.201V60.801ZM20.9003 61.9083C20.8813 62.5268 20.3661 63.034 19.7393 63.034V63.634C20.6931 63.634 21.4711 62.8665 21.5 61.9268L20.9003 61.9083ZM61.363 20.5393H24.0022V21.1393H61.363V20.5393ZM24.0022 20.5393C23.3735 20.5393 22.8653 20.0321 22.8653 19.4228H22.2653C22.2653 20.3716 23.0503 21.1393 24.0022 21.1393V20.5393ZM22.8653 19.4228V6.67436H22.2653V19.4228H22.8653ZM22.8653 6.67436C22.8653 6.06502 23.3735 5.55787 24.0022 5.55787V4.95787C23.0503 4.95787 22.2653 5.72557 22.2653 6.67436H22.8653ZM24.0022 5.55787H61.363V4.95787H24.0022V5.55787ZM61.363 5.55787C61.9918 5.55787 62.5 6.06502 62.5 6.67436H63.1C63.1 5.72556 62.315 4.95787 61.363 4.95787V5.55787ZM62.5 6.67436V19.4228H63.1V6.67436H62.5ZM62.5 19.4228C62.5 20.0321 61.9918 20.5393 61.363 20.5393V21.1393C62.315 21.1393 63.1 20.3716 63.1 19.4228H62.5ZM25.4392 18.3063H59.9261V17.7063H25.4392V18.3063ZM60.2261 18.0063V8.09086H59.6261V18.0063H60.2261ZM59.9261 7.79086H25.4392V8.39086H59.9261V7.79086ZM25.1392 8.09086V18.0063H25.7392V8.09086H25.1392ZM69.9848 20.5393H61.363V21.1393H69.9848V20.5393ZM61.363 20.5393C60.7343 20.5393 60.2261 20.0321 60.2261 19.4228H59.6261C59.6261 20.3716 60.4111 21.1393 61.363 21.1393V20.5393ZM60.2261 19.4228V6.67436H59.6261V19.4228H60.2261ZM60.2261 6.67436C60.2261 6.06502 60.7343 5.55787 61.363 5.55787V4.95787C60.4111 4.95787 59.6261 5.72557 59.6261 6.67436H60.2261ZM61.363 5.55787H69.9848V4.95787H61.363V5.55787ZM69.9848 5.55787C70.6135 5.55787 71.1217 6.06502 71.1217 6.67436H71.7217C71.7217 5.72557 70.9367 4.95787 69.9848 4.95787V5.55787ZM71.1217 6.67436V19.4228H71.7217V6.67436H71.1217ZM71.1217 19.4228C71.1217 20.0321 70.6135 20.5393 69.9848 20.5393V21.1393C70.9367 21.1393 71.7217 20.3716 71.7217 19.4228H71.1217ZM62.8 18.3063H68.5478V17.7063H62.8V18.3063ZM68.8478 18.0063V8.09086H68.2478V18.0063H68.8478ZM68.5478 7.79086H62.8V8.39086H68.5478V7.79086ZM62.5 8.09086V18.0063H63.1V8.09086H62.5ZM55.6152 14.8733H29.7501V15.4733H55.6152V14.8733ZM28.6131 13.7568C28.6131 13.1475 29.1213 12.6403 29.7501 12.6403V12.0403C28.7981 12.0403 28.0131 12.808 28.0131 13.7568H28.6131ZM29.7501 12.6403H55.6152V12.0403H29.7501V12.6403ZM55.6152 12.6403C56.2439 12.6403 56.7522 13.1475 56.7522 13.7568H57.3522C57.3522 12.808 56.5672 12.0403 55.6152 12.0403V12.6403ZM28.6131 13.7568V12.3403H28.0131V13.7568H28.6131ZM28.6131 12.3403C28.6131 11.731 29.1213 11.2238 29.7501 11.2238V10.6238C28.7981 10.6238 28.0131 11.3915 28.0131 12.3403H28.6131ZM29.7501 11.2238C30.3788 11.2238 30.887 11.731 30.887 12.3403H31.487C31.487 11.3915 30.702 10.6238 29.7501 10.6238V11.2238ZM30.887 12.3403V13.7568H31.487V12.3403H30.887ZM30.887 13.7568C30.887 14.3662 30.3788 14.8733 29.7501 14.8733V15.4733C30.702 15.4733 31.487 14.7056 31.487 13.7568H30.887ZM55.6152 14.8733C54.9865 14.8733 54.4783 14.3662 54.4783 13.7568H53.8783C53.8783 14.7056 54.6633 15.4733 55.6152 15.4733V14.8733ZM54.4783 13.7568V12.3403H53.8783V13.7568H54.4783ZM54.4783 12.3403C54.4783 11.731 54.9865 11.2238 55.6152 11.2238V10.6238C54.6633 10.6238 53.8783 11.3915 53.8783 12.3403H54.4783ZM55.6152 11.2238C56.2439 11.2238 56.7522 11.731 56.7522 12.3403H57.3522C57.3522 11.3915 56.5672 10.6238 55.6152 10.6238V11.2238ZM56.7522 12.3403L56.7522 13.7568L57.3522 13.7568L57.3522 12.3403L56.7522 12.3403ZM24.0022 7.79086C23.789 7.79086 23.5635 7.73293 23.3823 7.60785L23.0415 8.10169C23.3393 8.30713 23.6886 8.39086 24.0022 8.39086V7.79086ZM23.3725 7.60137C22.8483 7.26916 22.7147 6.56402 23.0533 6.06336L22.5563 5.72723C22.0327 6.50141 22.2344 7.59049 23.0513 8.10818L23.3725 7.60137ZM23.0533 6.06336L25.9272 1.81388L25.4302 1.47776L22.5563 5.72723L23.0533 6.06336ZM25.93 1.80969C26.2664 1.29377 26.9878 1.15749 27.5017 1.49519L27.8312 0.993771C27.0518 0.481571 25.9531 0.67581 25.4274 1.48194L25.93 1.80969ZM27.5059 1.49788C28.0301 1.83009 28.1637 2.53523 27.8251 3.0359L28.3221 3.37202C28.8457 2.59784 28.644 1.50876 27.8271 0.991076L27.5059 1.49788ZM27.8251 3.0359L24.9512 7.28537L25.4482 7.6215L28.3221 3.37202L27.8251 3.0359ZM24.9447 7.29536C24.745 7.61753 24.3718 7.79086 24.0022 7.79086V8.39086C24.5428 8.39086 25.1275 8.13923 25.4547 7.6115L24.9447 7.29536ZM69.9848 7.79086C69.6234 7.79086 69.2641 7.62298 69.0358 7.28537L68.5388 7.6215C68.8853 8.13378 69.4361 8.39086 69.9848 8.39086V7.79086ZM69.0358 7.28537L66.1619 3.0359L65.6649 3.37202L68.5388 7.6215L69.0358 7.28537ZM66.1647 3.04008C65.8206 2.51246 65.9584 1.82913 66.4811 1.49788L66.16 0.991076C65.3415 1.50973 65.144 2.5734 65.6621 3.36783L66.1647 3.04008ZM66.4915 1.49098C66.9957 1.14128 67.7159 1.28654 68.057 1.80969L68.5596 1.48194C68.0386 0.683034 66.9387 0.450563 66.1496 0.99798L66.4915 1.49098ZM68.0598 1.81388L70.9337 6.06336L71.4307 5.72723L68.5568 1.47776L68.0598 1.81388ZM70.931 6.05917C71.275 6.58679 71.1372 7.27013 70.6145 7.60137L70.9357 8.10818C71.7541 7.58953 71.9516 6.52585 71.4335 5.73142L70.931 6.05917ZM70.6047 7.60785C70.4235 7.73293 70.1981 7.79086 69.9848 7.79086V8.39086C70.2984 8.39086 70.6478 8.30713 70.9455 8.10169L70.6047 7.60785ZM61.3631 7.79086C61.0016 7.79086 60.6424 7.62298 60.4141 7.28537L59.9171 7.6215C60.2635 8.13378 60.8144 8.39086 61.3631 8.39086V7.79086ZM60.4141 7.28537L57.5402 3.0359L57.0432 3.37202L59.9171 7.6215L60.4141 7.28537ZM57.543 3.04008C57.1989 2.51246 57.3367 1.82913 57.8594 1.49788L57.5382 0.991076C56.7198 1.50973 56.5223 2.5734 57.0404 3.36783L57.543 3.04008ZM57.8698 1.49098C58.3739 1.14128 59.0942 1.28654 59.4353 1.80969L59.9379 1.48194C59.4169 0.683034 58.317 0.450563 57.5278 0.99798L57.8698 1.49098ZM59.4381 1.81388L62.312 6.06336L62.809 5.72723L59.9351 1.47776L59.4381 1.81388ZM62.3092 6.05917C62.6533 6.58679 62.5155 7.27013 61.9928 7.60137L62.314 8.10818C63.1324 7.58952 63.3299 6.52585 62.8118 5.73142L62.3092 6.05917ZM61.983 7.60785C61.8017 7.73293 61.5763 7.79086 61.3631 7.79086V8.39086C61.6767 8.39086 62.026 8.30713 62.3238 8.10169L61.983 7.60785ZM67.1109 3.54138H26.8761V4.14138H67.1109V3.54138ZM26.8761 3.54138C26.2474 3.54138 25.7392 3.03423 25.7392 2.42489H25.1392C25.1392 3.37369 25.9242 4.14138 26.8761 4.14138V3.54138ZM25.7392 2.42489C25.7392 1.81555 26.2474 1.3084 26.8761 1.3084V0.708397C25.9242 0.708397 25.1392 1.47609 25.1392 2.42489H25.7392ZM26.8761 1.3084H67.1109V0.708397H26.8761V1.3084ZM67.1109 1.3084C67.7396 1.3084 68.2478 1.81555 68.2478 2.42489H68.8478C68.8478 1.47609 68.0628 0.708397 67.1109 0.708397V1.3084ZM68.2478 2.42489C68.2478 3.03423 67.7396 3.54138 67.1109 3.54138V4.14138C68.0628 4.14138 68.8478 3.37369 68.8478 2.42489H68.2478ZM46.9935 33.2877C46.3648 33.2877 45.8566 32.7806 45.8566 32.1712H45.2566C45.2566 33.12 46.0416 33.8877 46.9935 33.8877V33.2877ZM45.8566 32.1712V23.6723H45.2566V32.1712H45.8566ZM45.8566 23.6723C45.8566 23.0629 46.3648 22.5558 46.9935 22.5558V21.9558C46.0416 21.9558 45.2566 22.7235 45.2566 23.6723H45.8566ZM46.9935 22.5558C47.6222 22.5558 48.1305 23.0629 48.1305 23.6723H48.7305C48.7305 22.7235 47.9454 21.9558 46.9935 21.9558V22.5558ZM48.1305 23.6723V32.1712H48.7305V23.6723H48.1305ZM48.1305 32.1712C48.1305 32.7806 47.6222 33.2877 46.9935 33.2877V33.8877C47.9454 33.8877 48.7305 33.12 48.7305 32.1712H48.1305ZM46.1982 32.9491C45.7691 32.5261 45.7626 31.8179 46.2027 31.3652L45.7725 30.9469C45.111 31.6274 45.1045 32.7135 45.777 33.3764L46.1982 32.9491ZM46.1982 31.3697L49.0722 28.5367L48.6509 28.1094L45.777 30.9424L46.1982 31.3697ZM49.0722 28.5367C49.5038 28.1113 50.2295 28.105 50.6912 28.5412L51.1032 28.105C50.4154 27.4552 49.321 27.4489 48.6509 28.1094L49.0722 28.5367ZM50.6866 28.5367C51.1158 28.9598 51.1222 29.668 50.6821 30.1207L51.1123 30.5389C51.7739 29.8584 51.7803 28.7724 51.1078 28.1094L50.6866 28.5367ZM50.6866 30.1161L47.8127 32.9491L48.2339 33.3764L51.1078 30.5434L50.6866 30.1161ZM46.1982 32.9491L43.3243 30.1161L42.9031 30.5434L45.777 33.3764L46.1982 32.9491ZM43.3243 30.1161C42.8952 29.6931 42.8887 28.9849 43.3288 28.5322L42.8986 28.114C42.2371 28.7944 42.2306 29.8805 42.9031 30.5434L43.3243 30.1161ZM43.3243 28.5367C43.7559 28.1113 44.4817 28.105 44.9434 28.5412L45.3554 28.105C44.6675 27.4552 43.5732 27.4489 42.9031 28.1094L43.3243 28.5367ZM44.9388 28.5367L47.8127 31.3697L48.2339 30.9424L45.36 28.1094L44.9388 28.5367ZM47.8127 31.3697C48.2419 31.7928 48.2483 32.5009 47.8082 32.9536L48.2384 33.3719C48.9 32.6914 48.9064 31.6053 48.2339 30.9424L47.8127 31.3697ZM58.4891 33.2877C57.8604 33.2877 57.3522 32.7806 57.3522 32.1712H56.7522C56.7522 33.12 57.5372 33.8877 58.4891 33.8877V33.2877ZM57.3522 32.1712V23.6723H56.7522V32.1712H57.3522ZM57.3522 23.6723C57.3522 23.0629 57.8604 22.5558 58.4891 22.5558V21.9558C57.5372 21.9558 56.7522 22.7235 56.7522 23.6723H57.3522ZM58.4891 22.5558C59.1179 22.5558 59.6261 23.0629 59.6261 23.6723H60.2261C60.2261 22.7235 59.4411 21.9558 58.4891 21.9558V22.5558ZM59.6261 23.6723V32.1712H60.2261V23.6723H59.6261ZM59.6261 32.1712C59.6261 32.7806 59.1179 33.2877 58.4891 33.2877V33.8877C59.4411 33.8877 60.2261 33.12 60.2261 32.1712H59.6261ZM57.6939 32.9491C57.2647 32.5261 57.2583 31.8179 57.6984 31.3652L57.2682 30.9469C56.6066 31.6274 56.6002 32.7135 57.2727 33.3764L57.6939 32.9491ZM57.6939 31.3697L60.5678 28.5367L60.1466 28.1094L57.2727 30.9424L57.6939 31.3697ZM60.5678 28.5367C60.9994 28.1113 61.7252 28.105 62.1869 28.5412L62.5989 28.105C61.911 27.4552 60.8166 27.4489 60.1466 28.1094L60.5678 28.5367ZM62.1823 28.5367C62.6114 28.9598 62.6179 29.668 62.1778 30.1207L62.608 30.5389C63.2695 29.8584 63.276 28.7724 62.6035 28.1094L62.1823 28.5367ZM62.1823 30.1161L59.3084 32.9491L59.7296 33.3764L62.6035 30.5434L62.1823 30.1161ZM57.6939 32.9491L54.82 30.1161L54.3988 30.5434L57.2727 33.3764L57.6939 32.9491ZM54.82 30.1161C54.3908 29.6931 54.3844 28.9849 54.8245 28.5322L54.3943 28.114C53.7327 28.7944 53.7263 29.8805 54.3988 30.5434L54.82 30.1161ZM54.82 28.5367C55.2516 28.1113 55.9774 28.105 56.439 28.5412L56.8511 28.105C56.1632 27.4552 55.0688 27.4489 54.3988 28.1094L54.82 28.5367ZM56.4344 28.5367L59.3084 31.3697L59.7296 30.9424L56.8557 28.1094L56.4344 28.5367ZM59.3084 31.3697C59.7375 31.7928 59.744 32.5009 59.3039 32.9536L59.7341 33.3719C60.3956 32.6914 60.4021 31.6053 59.7296 30.9424L59.3084 31.3697ZM35.4979 33.2877C34.8692 33.2877 34.3609 32.7806 34.3609 32.1712H33.7609C33.7609 33.12 34.5459 33.8877 35.4979 33.8877V33.2877ZM34.3609 32.1712V23.6723H33.7609V32.1712H34.3609ZM34.3609 23.6723C34.3609 23.0629 34.8692 22.5558 35.4979 22.5558V21.9558C34.5459 21.9558 33.7609 22.7235 33.7609 23.6723H34.3609ZM35.4979 22.5558C36.1266 22.5558 36.6348 23.0629 36.6348 23.6723H37.2348C37.2348 22.7235 36.4498 21.9558 35.4979 21.9558V22.5558ZM36.6348 23.6723V32.1712H37.2348V23.6723H36.6348ZM36.6348 32.1712C36.6348 32.7806 36.1266 33.2877 35.4979 33.2877V33.8877C36.4498 33.8877 37.2348 33.12 37.2348 32.1712H36.6348ZM34.7026 32.9491C34.2734 32.5261 34.267 31.8179 34.7071 31.3652L34.2769 30.9469C33.6153 31.6274 33.6089 32.7135 34.2814 33.3764L34.7026 32.9491ZM34.7026 31.3697L37.5765 28.5367L37.1553 28.1094L34.2814 30.9424L34.7026 31.3697ZM37.5765 28.5367C38.0081 28.1113 38.7339 28.105 39.1956 28.5412L39.6076 28.105C38.9197 27.4552 37.8254 27.4489 37.1553 28.1094L37.5765 28.5367ZM39.191 28.5367C39.6202 28.9598 39.6266 29.668 39.1865 30.1207L39.6167 30.5389C40.2783 29.8584 40.2847 28.7724 39.6122 28.1094L39.191 28.5367ZM39.191 30.1161L36.3171 32.9491L36.7383 33.3764L39.6122 30.5434L39.191 30.1161ZM34.7026 32.9491L31.8287 30.1161L31.4075 30.5434L34.2814 33.3764L34.7026 32.9491ZM31.8287 30.1161C31.3995 29.6931 31.3931 28.9849 31.8332 28.5322L31.403 28.114C30.7414 28.7944 30.735 29.8805 31.4075 30.5434L31.8287 30.1161ZM31.8287 28.5367C32.2603 28.1113 32.9861 28.105 33.4478 28.5412L33.8598 28.105C33.1719 27.4552 32.0775 27.4489 31.4075 28.1094L31.8287 28.5367ZM33.4432 28.5367L36.3171 31.3697L36.7383 30.9424L33.8644 28.1094L33.4432 28.5367ZM36.3171 31.3697C36.7463 31.7928 36.7527 32.5009 36.3126 32.9536L36.7428 33.3719C37.4044 32.6914 37.4108 31.6053 36.7383 30.9424L36.3171 31.3697Z" fill="#4C6A9A" mask="url(#path-1-outside-1_3_1013)"/>
</svg>
