<svg width="60" height="68" viewBox="0 0 60 68" fill="none" xmlns="http://www.w3.org/2000/svg">
<path d="M53.7618 43.474C53.3531 43.2969 52.66 43.0844 51.9846 42.9427V21.9229C51.9846 9.82812 42.1209 0 30 0C17.8791 0 7.99763 9.82812 7.99763 21.9229V42.9427C7.32228 43.0844 6.64692 43.2969 6.22038 43.474C2.5237 44.9792 0 48.5917 0 52.7V66.0167C0 67.1146 0.888626 68 2.00829 68H57.9917C59.0936 68 60 67.1146 60 65.999V52.6823C59.9822 48.5917 57.4585 44.9792 53.7618 43.474ZM27.5474 64.0156L26.4988 59.8542C27.6363 59.9781 28.8092 60.0312 29.9822 60.0312C31.1552 60.0312 32.3104 59.9781 33.4656 59.8542L32.4171 64.0156H27.5474ZM30 56.0469C21.327 56.0469 13.4716 52.275 9.95261 46.626C11.5699 46.325 20.6694 44.625 21.6114 44.4479C24.0284 46.4844 27.0142 47.5115 30 47.5115C32.9858 47.5115 35.9893 46.4844 38.3886 44.4479C39.3306 44.625 48.4301 46.325 50.0474 46.626C46.5284 52.275 38.673 56.0469 30 56.0469ZM19.9941 21.9229C19.9941 21.2323 20.0652 20.5771 20.1896 19.9219H39.7749C39.8993 20.5594 39.9704 21.2323 39.9704 21.9229V31.4854C39.9704 34.0531 37.8732 36.1427 35.2962 36.1427C33.9277 36.1427 32.968 37.4708 33.3946 38.7635L34.5675 42.2875C31.7417 43.9698 28.1694 43.9698 25.3436 42.2875L26.5166 38.7635C26.9431 37.4708 25.9834 36.1427 24.6149 36.1427C22.0379 36.1427 19.9408 34.0531 19.9408 31.4854V21.9229H19.9941ZM22.0024 15.9375C23.8329 13.5115 26.7299 11.9531 30 11.9531C33.2701 11.9531 36.1671 13.5115 37.9976 15.9375H22.0024ZM30 3.98438C39.9171 3.98438 48.0036 12.024 48.0036 21.9229V42.199L38.1931 40.375L37.9799 39.7198C41.4633 38.6042 44.0047 35.3458 44.0047 31.5031V21.9406C44.0047 13.724 37.269 7.98646 30 7.98646C22.269 7.96875 15.9953 14.2198 15.9953 21.9229V31.4854C15.9953 35.3281 18.5367 38.5865 22.0201 39.7021L21.8069 40.3573L11.9964 42.1812V21.9229C11.9964 12.024 20.0652 3.98438 30 3.98438ZM3.99882 52.7C3.99882 50.876 4.83412 49.2115 6.16706 48.0958C9.47275 53.8687 15.7287 57.5698 22.1979 59.1281L23.4242 64.0156H3.99882V52.7ZM55.9834 64.0156H36.5581L37.7844 59.1281C44.2536 57.5875 50.5095 53.8865 53.8152 48.0958C55.1481 49.1937 55.9834 50.8583 55.9834 52.7V64.0156Z" fill="#4C6A9A"/>
</svg>
