<svg width="68" height="68" viewBox="0 0 68 68" fill="none" xmlns="http://www.w3.org/2000/svg">
<path d="M50.0662 44.0823H42.0996C32.1855 44.0823 24.1835 52.1552 24.1835 62.0161C24.1835 62.6358 24.2897 63.2377 24.4668 63.8042C20.6782 61.5735 18.3413 57.5548 18.3413 53.0935V39.7094C27.1931 38.6118 33.4779 30.6097 32.5042 21.7933C32.221 19.3148 30.5568 4.2843 30.2736 1.77037C30.1673 0.76126 29.2999 0 28.2907 0H4.39083C3.36402 0 2.51425 0.76126 2.40803 1.77037C-0.0173731 23.5459 0.0180341 21.9526 0.000330446 23.4928C-0.0527805 31.849 6.30283 38.7534 14.3403 39.7094V53.0935C14.3403 57.6787 11.8795 61.8037 7.87845 63.999H4.39083C3.29321 63.999 2.39032 64.8841 2.39032 65.9995C2.39032 67.0971 3.2755 68 4.39083 68H62.0162C65.309 68 68 65.3267 68 62.0161C67.9823 52.1552 59.9625 44.0823 50.0662 44.0823ZM26.5027 3.98334L27.8304 15.9334H24.7677C22.1653 15.9334 19.5451 15.3137 17.226 14.1453C14.3403 12.7113 11.1182 11.95 7.89615 11.95H5.25831C5.50616 9.77246 5.80712 7.1523 6.1612 3.98334H26.5027ZM3.98365 23.5105C3.98365 22.6962 4.00135 22.9086 4.79802 15.9334H7.87845C10.4809 15.9334 13.101 16.553 15.4202 17.7214C18.3059 19.1554 21.528 19.9167 24.75 19.9167H28.2553L28.5032 22.2182C29.2999 29.459 23.6347 35.85 16.3054 35.85C9.47178 35.85 3.93054 30.2557 3.98365 23.5105ZM16.3231 60.9362C16.9073 62.0161 17.5977 63.0253 18.4829 63.999H14.1809C15.0484 63.0253 15.7389 62.0161 16.3231 60.9362ZM62.0162 63.999C60.6176 63.999 31.5305 63.999 30.1496 63.999C29.052 63.999 28.1491 63.1138 28.1491 61.9984C28.1491 56.4395 31.4066 51.6418 36.1157 49.4111V54.0318C36.1157 55.1294 37.0009 56.0323 38.1163 56.0323C39.2139 56.0323 40.1168 55.1471 40.1168 54.0318V48.2072C40.7718 48.1187 41.4268 48.0656 42.1173 48.0656H44.0824V54.0495C44.0824 55.1471 44.9676 56.05 46.0829 56.05C47.1805 56.05 48.0834 55.1648 48.0834 54.0495V48.0656H50.0839C50.7567 48.0656 51.4294 48.1187 52.0844 48.2072V54.0318C52.0844 55.1294 52.9696 56.0323 54.0849 56.0323C55.1826 56.0323 56.0854 55.1471 56.0854 54.0318V49.4111C60.7946 51.6595 64.0521 56.4572 64.0521 61.9984C63.999 63.1138 63.1138 63.999 62.0162 63.999Z" fill="#4C6A9A"/>
</svg>
