<svg width="51" height="68" viewBox="0 0 51 68" fill="none" xmlns="http://www.w3.org/2000/svg">
<path d="M49.0472 0H1.97026C0.871795 0 0 0.885417 0 2.00104V66.0167C0 67.1146 0.871795 68 1.95282 68H49.0297C50.1108 68 51 67.1146 51 65.999V2.00104C51 0.885417 50.1282 0 49.0472 0ZM36.0226 57.1802L29.8851 54.0635L36.5631 50.6813L36.0226 57.1802ZM12.3097 24.774C12.2226 23.7646 12.3969 22.7906 12.7631 21.9229L21.1149 26.1552L12.7805 30.3875L12.3097 24.774ZM14.9774 57.1802L14.4369 50.6813L21.1149 54.0635L14.9774 57.1802ZM14.0533 46.024L13.1292 34.6729L25.5087 28.3865L37.8882 34.6729L36.9641 46.024L25.5262 51.8323L14.0533 46.024ZM38.2369 21.9229C38.6031 22.7906 38.7774 23.7646 38.6903 24.774L38.2369 30.3875L29.9026 26.1552L38.2369 21.9229ZM25.5087 23.9417L15.6051 18.9125C16.4595 18.4875 17 18.4521 18.3949 18.0802C19.441 17.8146 20.0862 16.7344 19.8246 15.6719C19.6851 15.1229 19.6328 14.6625 19.6328 14.2198V10.2354C19.6328 6.94167 22.2656 4.25 25.5262 4.25C28.7867 4.25 31.3846 6.92396 31.3846 10.2354V14.2198C31.3846 14.6448 31.3149 15.1052 31.1928 15.6719C30.9313 16.7344 31.5764 17.8146 32.6226 18.0802C34.0174 18.4698 34.5405 18.4875 35.4123 18.9125L25.5087 23.9417ZM3.92308 3.98438H17.8718C16.5118 5.70208 15.6923 7.8625 15.6923 10.2354C15.6923 10.2354 15.6923 14.5031 15.7097 14.6625C11.0718 15.8844 8.02051 20.276 8.4041 25.1281C8.68308 28.4573 10.7754 54.0812 11.1764 58.8802C11.3333 60.7042 11.9785 62.4927 13.0944 64.0333H3.92308V3.98438ZM20.9579 64.0156C18.8656 64.0156 16.9826 62.8646 15.9364 61.1469L25.5087 56.2948L35.081 61.1469C34.0349 62.8646 32.1518 64.0156 30.0595 64.0156H20.9579ZM47.0769 64.0156H37.8882C38.9518 62.5635 39.6492 60.7927 39.8236 58.8625C40.1549 54.7542 42.3518 27.9969 42.5959 25.1104C42.9969 20.2583 39.9282 15.8667 35.2903 14.6448C35.2903 14.5031 35.3077 14.3615 35.3077 14.2021V10.2354C35.3077 7.88021 34.4882 5.70208 33.1282 3.98438H47.0769V64.0156Z" fill="#4C6A9A"/>
</svg>
