<svg width="64" height="67" viewBox="0 0 64 67" fill="none" xmlns="http://www.w3.org/2000/svg">
<path d="M30.0006 47.3711C28.8986 47.3711 27.9922 48.2435 27.9922 49.3427V53.2685C27.9922 54.3503 28.8809 55.2401 30.0006 55.2401C31.1025 55.2401 32.0089 54.3677 32.0089 53.2685V49.3427C31.9911 48.2435 31.1025 47.3711 30.0006 47.3711Z" fill="#4C6A9A"/>
<path d="M57.9217 44.2654C57.3352 39.3974 53.1052 35.5938 47.9867 35.5938C44.8231 35.5938 41.8728 37.0768 39.9889 39.5195H35.99V37.5479C35.99 36.4661 35.1014 35.5763 33.9817 35.5763H31.9911V11.7773H33.9817C37.2874 11.7773 39.9889 9.14271 39.9889 5.87995V1.97161C39.9889 0.872396 39.1002 0 37.9806 0H21.985C20.8831 0 19.9767 0.872396 19.9767 1.97161V5.8974C19.9767 9.14271 22.6604 11.7948 25.9839 11.7948H27.9922V35.5938H25.9839C24.882 35.5938 23.9756 36.4661 23.9756 37.5654V39.537H17.9683C16.8664 39.537 15.96 40.4094 15.96 41.5086C15.96 43.2185 15.96 45.6263 15.9778 47.3885C15.9778 47.3885 15.9778 47.3885 15.96 47.3885C10.8414 47.3885 6.6115 51.1747 6.02499 56.0602C2.43488 57.5607 0 61.0677 0 65.0458C0 66.1276 0.888642 67 2.00833 67H29.9828C30.2138 67 30.4271 66.9651 30.6226 66.8953C36.4165 64.9935 40.842 60.6315 42.8325 55.2227H61.9917C63.0936 55.2227 64 54.3503 64 53.251C63.9822 49.2904 61.5473 45.7833 57.9217 44.2654ZM23.9933 5.8974V3.92578H35.99V5.8974C35.99 6.97917 35.1014 7.86901 33.9817 7.86901H25.9839C24.882 7.85156 23.9933 6.97917 23.9933 5.8974ZM4.33657 63.0742C4.99417 61.2771 6.52263 59.8464 8.51319 59.3578C9.41961 59.131 10.1483 58.276 9.98834 57.107C10.0417 53.8966 12.7254 51.2969 15.9956 51.2969C19.2658 51.2969 21.9495 53.8966 21.985 57.107C21.825 58.2586 22.536 59.131 23.4601 59.3578C25.4507 59.8464 26.9792 61.2771 27.6368 63.0742H4.33657ZM31.5823 62.2542C30.747 59.4799 28.6854 57.1943 25.9306 56.0427C25.504 52.5182 23.1758 49.5695 19.9944 48.2086V43.4453H26.0017C27.1036 43.4453 28.01 42.5729 28.01 41.4911V39.5195H31.9911V41.4911C31.9911 42.5729 32.8798 43.4453 33.9817 43.4453H39.9889V48.6971C39.9889 54.4724 36.6831 59.6719 31.5823 62.2542ZM43.8101 51.2969C43.9345 50.4419 43.9878 49.5695 43.9878 48.6971V41.4911C43.9878 41.3516 43.97 41.212 43.9345 41.0724C45.0186 40.0953 46.4582 39.5195 47.9867 39.5195C51.2569 39.5195 53.9406 42.1193 53.9761 45.3297C53.8162 46.4813 54.5271 47.3536 55.4513 47.5805C57.4418 48.069 58.9703 49.4997 59.6279 51.2969H43.8101Z" fill="#4C6A9A"/>
</svg>
