<svg width="60" height="60" viewBox="0 0 60 60" fill="none" xmlns="http://www.w3.org/2000/svg">
<path d="M58.148 1.85224C55.0075 -1.27663 48.9845 -0.12821 45.9026 2.9655L38.0281 10.8404L7.99478 5.82485C7.362 5.71938 6.72923 5.93031 6.28394 6.37562L0.706157 11.942C0.237436 12.4107 0.0382293 13.0787 0.167128 13.7349C0.296026 14.3794 0.75303 14.9185 1.36237 15.1646L24.4469 24.3988L16.6427 32.2152L10.7134 31.0316C10.0689 30.9027 9.40094 31.1019 8.93222 31.5706L0.577259 39.926C0.0616654 40.4416 -0.125823 41.1916 0.0851015 41.8947C0.296026 42.5979 0.87021 43.1135 1.58501 43.2541L14.2171 45.7853L16.7481 58.418C16.8888 59.1328 17.4161 59.707 18.1074 59.918C18.2949 59.9766 18.4824 60 18.6816 60C19.1972 60 19.7011 59.8008 20.0761 59.4258L28.431 51.0704C28.8998 50.6017 29.099 49.9337 28.9701 49.2892L27.7865 43.3596L35.6025 35.5433L44.8363 58.6289C45.0824 59.2383 45.6214 59.6953 46.2659 59.8242C46.3948 59.8477 46.5354 59.8594 46.6643 59.8594C47.1799 59.8594 47.6838 59.6602 48.0587 59.2852L53.6248 53.7188C54.0701 53.2735 54.281 52.629 54.1756 52.0079L49.172 21.9731L57.0465 14.0982C58.4761 12.6685 59.5424 10.4889 59.8822 8.27404C60.2807 5.66079 59.6596 3.37566 58.148 1.85224ZM5.6043 12.6216L8.34632 9.87949L34.6064 14.2505L27.4936 21.3637L5.6043 12.6216ZM50.1211 51.6563L47.3791 54.3985L38.6257 32.5198L45.7386 25.4067L50.1211 51.6563ZM55.9801 7.67639C55.7692 9.0709 55.1013 10.4654 54.2459 11.3092L24.2477 41.3205C23.779 41.7893 23.5798 42.4572 23.7087 43.1018L24.8922 49.0314L19.8886 54.0352L17.8262 43.7228C17.6739 42.9377 17.0645 42.3283 16.2794 42.176L5.96756 40.1135L10.9712 35.1097L16.9005 36.2932C17.545 36.4221 18.2129 36.2229 18.6816 35.7542L48.6798 5.74282C50.3438 4.07877 53.9412 3.23503 55.3591 4.64127C55.9567 5.23891 56.1911 6.35218 55.9801 7.67639Z" fill="#4C6A9A"/>
</svg>
