<svg width="68" height="68" viewBox="0 0 68 68" fill="none" xmlns="http://www.w3.org/2000/svg">
<path d="M6 19.9219C7.09734 19.9219 8 19.0365 8 17.9208C7.9823 16.8229 7.09734 15.9375 6 15.9375C4.40708 15.9375 3.30973 14.0427 4.54867 12.6438C5.15044 11.9531 5.22124 10.9615 4.70796 10.2C2.24779 6.60521 6.60177 2.21354 10.2124 4.675C10.9735 5.18854 11.9646 5.11771 12.6549 4.51562C14.0354 3.27604 15.9469 4.37396 15.9469 5.96771C15.9469 7.08333 16.8319 7.96875 17.9469 7.96875C19.0442 7.96875 19.9469 7.08333 19.9469 5.96771C19.9292 2.69167 17.2566 0 13.9646 0C13.0265 0 12.0885 0.247917 11.2389 0.690625C10.2124 0.230208 9.11504 0 7.9823 0C3.59292 0 0.0176991 3.57708 0.0176991 7.96875C0.0176991 9.10208 0.247788 10.2 0.707965 11.2094C-1.38053 15.1583 1.53982 19.9219 6 19.9219Z" fill="#4C6A9A"/>
<path d="M67.9823 7.96875C67.9823 3.57708 64.4071 0 60.0177 0C58.885 0 57.7876 0.230208 56.7788 0.690625C52.8319 -1.39896 48.0708 1.52292 48.0708 5.96771C48.0708 7.06562 48.9558 7.96875 50.0708 7.96875C51.1681 7.96875 52.0708 7.08333 52.0708 5.96771C52.0708 4.37396 53.9646 3.27604 55.3628 4.51562C56.0531 5.11771 57.0442 5.18854 57.8053 4.675C58.4602 4.23229 59.2389 3.98438 60.0354 3.98438C63.2566 3.98438 65.0974 7.59688 63.3274 10.2C62.8142 10.9615 62.885 11.9531 63.4867 12.6438C64.7257 14.025 63.6283 15.9375 62.0177 15.9375C60.9204 15.9375 60.0354 16.8229 60.0354 17.9208C60.0354 19.0187 60.9204 19.9219 62.0177 19.9219C66.4779 19.9219 69.3982 15.1583 67.292 11.2094C67.7522 10.2 67.9823 9.10208 67.9823 7.96875Z" fill="#4C6A9A"/>
<path d="M65.9823 64.0156H55.8938V38.126C55.8938 37.0281 55.0089 36.125 53.8938 36.125H51.8938V27.8906H53.8938C54.9911 27.8906 55.8938 27.0052 55.8938 25.8896V21.9052C55.8938 21.126 55.4336 20.4 54.708 20.0812C54.3363 19.9042 45.2743 15.9198 33.9823 15.9198C22.6903 15.9198 13.646 19.9042 13.2566 20.0812C12.531 20.4 12.0708 21.1083 12.0708 21.9052V25.8896C12.0708 26.9875 12.9558 27.8906 14.0708 27.8906H16.0708V36.125H14.0885C12.9911 36.125 12.0885 37.0104 12.0885 38.126V64.0156H2C0.902655 64.0156 0 64.901 0 66.0167C0.0176991 67.1146 0.902655 68 2.0177 68H66C67.0973 68 68 67.1146 68 65.999C67.9823 64.901 67.0974 64.0156 65.9823 64.0156ZM16.0885 23.2687C18.7965 22.2417 25.823 19.9219 34 19.9219C42.1593 19.9219 49.2212 22.2417 51.9115 23.2687V23.9062H16.0885V23.2687ZM20.0708 27.8906H47.9469V36.125H20.0708V27.8906ZM16.0885 40.1094H51.9292V64.0156H41.6637C43.0973 62.2094 43.9646 59.9427 43.9646 57.4635C43.9646 50.0969 37.9646 44.0938 30.6018 44.0938H30.0177C28.4248 44.0938 27.4867 45.8646 28.354 47.1927C29.4867 48.875 29.0443 51.2302 27.292 52.2927C25.1327 53.6031 24.0354 55.7281 24.0354 58.6323C24.0354 60.6333 24.6726 62.4927 25.7522 64.0333H16.0885V40.1094ZM28.0354 58.6146C28.0354 56.7552 28.708 56.0823 29.3805 55.6927C32 54.099 33.2566 51.1948 32.9204 48.3615C36.9734 49.3885 39.9823 53.0719 39.9823 57.4458C39.9823 61.0583 37.0442 63.9979 33.4336 63.9979C30.4425 64.0156 28.0354 61.5896 28.0354 58.6146Z" fill="#4C6A9A"/>
<path d="M8.56637 8.55312C7.78761 9.33229 7.78761 10.5896 8.56637 11.3687L12.5487 15.3531C13.3274 16.1323 14.5841 16.1323 15.3628 15.3531C16.1416 14.574 16.1416 13.3167 15.3628 12.5375L11.3805 8.55312C10.6018 7.77396 9.34513 7.77396 8.56637 8.55312Z" fill="#4C6A9A"/>
<path d="M55.4513 15.3531L59.4336 11.3687C60.2124 10.5896 60.2124 9.33229 59.4336 8.55312C58.6549 7.77396 57.3982 7.77396 56.6195 8.55312L52.6372 12.5375C51.8584 13.3167 51.8584 14.574 52.6372 15.3531C53.4159 16.1323 54.6726 16.1323 55.4513 15.3531Z" fill="#4C6A9A"/>
</svg>
