<svg width="67" height="67" viewBox="0 0 67 67" fill="none" xmlns="http://www.w3.org/2000/svg">
<path d="M65.0458 55.2083H62.7427C62.9521 54.5978 63.0742 53.9349 63.0742 53.2372C63.0742 50.6904 61.7307 49.6962 58.8867 44.4108C58.1365 43.1026 56.2521 43.1026 55.4844 44.4108C52.6404 49.7136 51.2969 50.6904 51.2969 53.2372C51.2969 53.9175 51.419 54.5803 51.6284 55.2083H49.3253C48.2435 55.2083 47.3536 56.0804 47.3536 57.1794C47.3536 59.3947 48.0865 61.4181 49.3253 63.0752H43.3057V39.2476H45.2773C46.3591 39.2476 47.249 38.3754 47.249 37.2765V35.3054H57.0547C58.1365 35.3054 59.0263 34.4332 59.0263 33.3517V17.6527C59.0263 16.5712 58.1539 15.6816 57.0547 15.6816H47.2315V13.7454C47.2315 12.6639 46.3591 11.7743 45.2599 11.7743H43.2883V1.9711C43.3232 0.872169 42.4333 0 41.3516 0H25.6484C24.5667 0 23.6768 0.872169 23.6768 1.9711V11.7917H21.7052C20.6234 11.7917 19.7336 12.6639 19.7336 13.7628V15.699H9.94531C8.86354 15.699 7.99115 16.5712 7.99115 17.6701V33.3692C7.99115 34.4507 8.86354 35.3228 9.94531 35.3228H19.7685V37.2939C19.7685 38.3754 20.6409 39.265 21.7401 39.265H23.7117V63.0752H17.6922C18.931 61.4356 19.6638 59.3947 19.6638 57.1794C19.6638 56.0979 18.7914 55.2083 17.6922 55.2083H15.3716C15.581 54.5978 15.7031 53.9349 15.7031 53.2372C15.7031 50.6904 14.3247 49.6438 11.5156 44.4108C10.7654 43.1026 8.88099 43.1026 8.11328 44.4108C5.25182 49.7311 3.92578 50.6904 3.92578 53.2372C3.92578 53.9175 4.04792 54.5803 4.25729 55.2083H1.97161C0.889844 55.2083 0 56.0804 0 57.1794C0 62.5868 4.39688 67 9.80573 67H57.1768C62.5857 67 67 62.6043 67 57.1794C67 56.0804 66.1276 55.2083 65.0458 55.2083ZM55.2227 53.2546C55.2227 52.3825 55.6589 52.1208 57.1943 49.3299C58.7646 52.1906 59.1659 52.3825 59.1659 53.2546C59.1659 54.3361 58.2935 55.2257 57.1943 55.2257C56.0951 55.2083 55.2227 54.3361 55.2227 53.2546ZM55.1005 19.6238V31.3981H47.249V19.6238H55.1005ZM27.6201 3.92476H39.3974V11.7743H27.6201V3.92476ZM23.6943 15.699H43.3232V35.3228H23.6943V15.699ZM11.8995 31.3981V19.6238H19.751V31.3981H11.8995ZM27.6201 39.2476H39.3974V63.0578H27.6201V39.2476ZM7.85156 53.2546C7.85156 52.3825 8.25286 52.1731 9.80573 49.3299C11.376 52.1906 11.7773 52.3825 11.7773 53.2546C11.7773 54.3361 10.9049 55.2257 9.80573 55.2257C8.72396 55.2083 7.85156 54.3361 7.85156 53.2546ZM4.25729 59.133H15.3542C14.5516 61.4181 12.3531 63.0578 9.80573 63.0578C7.25833 63.0578 5.07734 61.4181 4.25729 59.133ZM57.1943 63.0578C54.6294 63.0578 52.4484 61.4181 51.6458 59.133H62.7427C61.9227 61.4181 59.7417 63.0578 57.1943 63.0578Z" fill="#4C6A9A"/>
<path d="M29.5742 23.5486H37.4258C38.5076 23.5486 39.3974 22.6764 39.3974 21.5775C39.3974 20.4785 38.525 19.6064 37.4258 19.6064H29.5742C28.4924 19.6064 27.6026 20.4785 27.6026 21.5775C27.6026 22.6764 28.4924 23.5486 29.5742 23.5486Z" fill="#4C6A9A"/>
<path d="M29.5742 31.3981H37.4258C38.5076 31.3981 39.3974 30.5259 39.3974 29.427C39.3974 28.328 38.525 27.4559 37.4258 27.4559H29.5742C28.4924 27.4559 27.6026 28.328 27.6026 29.427C27.6026 30.5259 28.4924 31.3981 29.5742 31.3981Z" fill="#4C6A9A"/>
</svg>
