<svg width="101" height="105" viewBox="0 0 101 105" fill="none" xmlns="http://www.w3.org/2000/svg">
<path d="M6.05358 12.8374C27.867 12.8374 45.7143 12.8374 67.6841 12.8374C71.024 12.8374 73.7377 15.5511 73.7377 18.891V55.0032V63.5616V93.9333V96.5425C73.7377 100.613 70.4501 103.901 66.3795 103.901H6.05358C2.71369 103.901 0 101.187 0 97.8472V18.891C0 15.5511 2.71401 12.8374 6.05358 12.8374Z" fill="#FFD630"/>
<path d="M69.8228 16.3857H3.91309V100.3H69.8228V16.3857Z" fill="#F7F7F8"/>
<path d="M79.738 105C91.2097 105 100.509 95.7004 100.509 84.2288C100.509 72.7571 91.2097 63.4575 79.738 63.4575C68.2664 63.4575 58.9668 72.7571 58.9668 84.2288C58.9668 95.7004 68.2664 105 79.738 105Z" fill="#E84F4F"/>
<path d="M9.28931 23.2749H17.7954V33.0856H9.28931V23.2749ZM9.28931 75.9821H17.7954V85.7928H9.28931V75.9821ZM9.28931 58.3956H17.7954V68.2063H9.28931V58.3956ZM9.28931 40.8091H17.7954V50.6199H9.28931V40.8091Z" fill="#E84F4F"/>
<path d="M21.8135 26.8755H50.8806V29.4328H21.8135V26.8755ZM21.8135 79.5827H50.8806V82.14H21.8135V79.5827ZM21.8135 61.9962H50.8806V64.5535H21.8135V61.9962ZM21.8135 44.4097H50.8806V46.967H21.8135V44.4097Z" fill="#999999"/>
<path d="M79.738 101.765C89.4227 101.765 97.2738 93.9135 97.2738 84.2287C97.2738 74.5439 89.4227 66.6929 79.738 66.6929C70.0532 66.6929 62.2021 74.5439 62.2021 84.2287C62.2021 93.9135 70.0532 101.765 79.738 101.765Z" fill="#FFD630"/>
<path d="M64.9185 84.801L70.5026 84.1748L76.5561 89.55C76.5561 89.55 79.4788 77.3387 93.1511 74.4683C86.4713 78.069 82.3489 85.2186 79.5829 95.0815C78.9045 97.5863 77.0782 96.9079 76.5039 96.1772C75.5646 94.9767 69.3024 87.8275 64.9188 84.7485V84.801H64.9185Z" fill="white"/>
<path d="M31.0504 7.7237H31.9897C31.7288 7.30645 31.5724 6.78441 31.5724 6.26269V3.13143C31.5724 1.40926 33.1382 0.000488281 35.0687 0.000488281H38.6694C40.6002 0.000488281 42.1657 1.40957 42.1657 3.13143V6.26238C42.1657 6.78441 42.0093 7.2539 41.7481 7.72338H42.6874C49.1063 7.72338 54.3245 12.4723 54.3245 18.2125H19.3611C19.3611 12.4201 24.6318 7.72338 30.9981 7.72338H31.0504V7.7237Z" fill="#E84F4F"/>
<path d="M36.8952 0H38.7215C40.6523 0 42.2178 1.40908 42.2178 3.13094V6.26189C42.2178 6.78392 42.0614 7.25341 41.8002 7.72289H42.7395C49.1584 7.72289 54.3765 12.4719 54.3765 18.212H36.8945L36.8952 0Z" fill="#C94545"/>
</svg>
