<svg width="99" height="95" viewBox="0 0 99 95" fill="none" xmlns="http://www.w3.org/2000/svg">
<path d="M49.2766 90.5369C49.2766 90.5369 49.6125 90.5369 50.2214 90.5581C50.5363 90.5581 50.9142 90.5581 51.3552 90.5581C51.5861 90.5581 51.8171 90.5369 52.069 90.5369C52.3209 90.5369 52.5939 90.5157 52.8878 90.4944C54.0216 90.4307 55.4073 90.3034 56.982 90.0486C58.5566 89.7939 60.3203 89.4117 62.2099 88.8385C63.1547 88.5625 64.1205 88.2229 65.1073 87.8407C66.094 87.4586 67.1018 87.0128 68.1306 86.5245C69.1594 86.0362 70.1672 85.4842 71.196 84.8686C72.2247 84.2742 73.2535 83.5948 74.2613 82.873C76.2769 81.4294 78.2295 79.7523 80.0561 77.9053C81.8827 76.0371 83.5624 73.9778 85.053 71.7699C86.5437 69.562 87.8035 67.2055 88.8532 64.8066C89.882 62.3864 90.6798 59.9238 91.2677 57.5036C91.8346 55.0622 92.1705 52.6633 92.3175 50.3705C92.3595 49.7973 92.3805 49.2241 92.4015 48.6721C92.4015 48.1201 92.4225 47.5682 92.4015 47.0162C92.4015 45.9335 92.3385 44.8932 92.2545 43.8954C92.2125 43.4072 92.1705 42.8976 92.1075 42.4306C92.0446 41.9635 91.9816 41.4965 91.9186 41.0294C91.7716 40.1378 91.6246 39.2674 91.4567 38.4819C91.3097 37.6752 91.0998 36.9533 90.9318 36.274C90.8478 35.9343 90.7428 35.6159 90.6589 35.2974C90.6169 35.1488 90.5749 35.0002 90.5329 34.8516C90.5119 34.7879 90.4909 34.703 90.4699 34.6393C90.4489 34.5756 90.4279 34.4907 90.4069 34.427C90.3229 34.151 90.2389 33.8963 90.155 33.6415C90.113 33.5141 90.071 33.408 90.029 33.2806C89.987 33.1745 89.945 33.0471 89.903 32.9409C89.735 32.5164 89.6091 32.1555 89.5041 31.8582C89.3991 31.561 89.2941 31.3487 89.2312 31.2001C89.1682 31.0515 89.1472 30.9666 89.1472 30.9666L89.966 30.6269C89.966 30.6269 90.008 30.7118 90.05 30.8604C90.113 31.0091 90.2179 31.2426 90.3229 31.5398C90.4279 31.837 90.5749 32.2191 90.7218 32.6437C90.7638 32.7499 90.8058 32.856 90.8478 32.9834C90.8898 33.1108 90.9318 33.2169 90.9738 33.3443C91.0578 33.5991 91.1418 33.8751 91.2257 34.151C91.2467 34.2147 91.2677 34.2996 91.2887 34.3633C91.3097 34.427 91.3307 34.5119 91.3517 34.5969C91.3937 34.7455 91.4357 34.8941 91.4777 35.0639C91.5617 35.3824 91.6666 35.7008 91.7506 36.0617C91.9186 36.7623 92.1285 37.5053 92.2755 38.3333C92.4645 39.14 92.5904 40.0104 92.7374 40.9445C92.8004 41.4116 92.8634 41.8786 92.9264 42.3669C92.9894 42.8552 93.0313 43.3435 93.0733 43.853C93.1573 44.872 93.2203 45.9335 93.2203 47.0374C93.2413 47.5894 93.2203 48.1414 93.2203 48.7146C93.1993 49.2878 93.1783 49.861 93.1363 50.4554C93.0104 52.7906 92.6534 55.2533 92.1075 57.7371C91.5407 60.221 90.7428 62.7473 89.6931 65.2312C88.6433 67.6938 87.3625 70.114 85.8719 72.3856C84.3812 74.6571 82.6805 76.8013 80.8329 78.7332C78.9853 80.6651 76.9907 82.406 74.9332 83.9133C73.9044 84.6563 72.8546 85.3569 71.8258 85.9938C70.7761 86.6306 69.7263 87.2251 68.6975 87.7558C67.6477 88.2866 66.6189 88.7536 65.6111 89.1782C64.6034 89.6028 63.5956 89.9637 62.6298 90.3034C60.6982 90.9615 58.8716 91.4073 57.2549 91.747C55.6382 92.0867 54.1896 92.2777 53.0138 92.4051C52.7199 92.4476 52.4469 92.4688 52.174 92.49C51.901 92.5112 51.6701 92.5325 51.4391 92.5537C50.9772 92.5749 50.5783 92.6174 50.2634 92.6174C49.6335 92.6386 49.2766 92.6599 49.2766 92.6599V90.5369Z" fill="url(#paint0_linear_1_1404)"/>
<path d="M49.2766 90.5369C49.2766 90.5369 49.6125 90.5369 50.2214 90.5581C50.5363 90.5581 50.9142 90.5581 51.3552 90.5581C51.5861 90.5581 51.8171 90.5369 52.069 90.5369C52.3209 90.5369 52.5939 90.5157 52.8878 90.4944C54.0216 90.4307 55.4073 90.3034 56.982 90.0486C58.5566 89.7939 60.3203 89.4117 62.2099 88.8385C63.1547 88.5625 64.1205 88.2229 65.1073 87.8407C66.094 87.4586 67.1018 87.0128 68.1306 86.5245C69.1594 86.0362 70.1672 85.4842 71.196 84.8686C72.2247 84.2742 73.2535 83.5948 74.2613 82.873C76.2769 81.4294 78.2295 79.7523 80.0561 77.9053C81.8827 76.0371 83.5624 73.9778 85.053 71.7699C86.5437 69.562 87.8035 67.2055 88.8532 64.8066C89.882 62.3864 90.6798 59.9238 91.2677 57.5036C91.8346 55.0622 92.1705 52.6633 92.3175 50.3705C92.3595 49.7973 92.3805 49.2241 92.4015 48.6721C92.4015 48.1201 92.4225 47.5682 92.4015 47.0162C92.4015 45.9335 92.3385 44.8932 92.2545 43.8954C92.2125 43.4072 92.1705 42.8976 92.1075 42.4306C92.0446 41.9635 91.9816 41.4965 91.9186 41.0294C91.7716 40.1378 91.6246 39.2674 91.4567 38.4819C91.3097 37.6752 91.0998 36.9533 90.9318 36.274C90.8478 35.9343 90.7428 35.6159 90.6589 35.2974C90.6169 35.1488 90.5749 35.0002 90.5329 34.8516C90.5119 34.7879 90.4909 34.703 90.4699 34.6393C90.4489 34.5756 90.4279 34.4907 90.4069 34.427C90.3229 34.151 90.2389 33.8963 90.155 33.6415C90.113 33.5141 90.071 33.408 90.029 33.2806C89.987 33.1745 89.945 33.0471 89.903 32.9409C89.735 32.5164 89.6091 32.1555 89.5041 31.8582C89.3991 31.561 89.2941 31.3487 89.2312 31.2001C89.1682 31.0515 89.1472 30.9666 89.1472 30.9666L89.966 30.6269C89.966 30.6269 90.008 30.7118 90.05 30.8604C90.113 31.0091 90.2179 31.2426 90.3229 31.5398C90.4279 31.837 90.5749 32.2191 90.7218 32.6437C90.7638 32.7499 90.8058 32.856 90.8478 32.9834C90.8898 33.1108 90.9318 33.2169 90.9738 33.3443C91.0578 33.5991 91.1418 33.8751 91.2257 34.151C91.2467 34.2147 91.2677 34.2996 91.2887 34.3633C91.3097 34.427 91.3307 34.5119 91.3517 34.5969C91.3937 34.7455 91.4357 34.8941 91.4777 35.0639C91.5617 35.3824 91.6666 35.7008 91.7506 36.0617C91.9186 36.7623 92.1285 37.5053 92.2755 38.3333C92.4645 39.14 92.5904 40.0104 92.7374 40.9445C92.8004 41.4116 92.8634 41.8786 92.9264 42.3669C92.9894 42.8552 93.0313 43.3435 93.0733 43.853C93.1573 44.872 93.2203 45.9335 93.2203 47.0374C93.2413 47.5894 93.2203 48.1414 93.2203 48.7146C93.1993 49.2878 93.1783 49.861 93.1363 50.4554C93.0104 52.7906 92.6534 55.2533 92.1075 57.7371C91.5407 60.221 90.7428 62.7473 89.6931 65.2312C88.6433 67.6938 87.3625 70.114 85.8719 72.3856C84.3812 74.6571 82.6805 76.8013 80.8329 78.7332C78.9853 80.6651 76.9907 82.406 74.9332 83.9133C73.9044 84.6563 72.8546 85.3569 71.8258 85.9938C70.7761 86.6306 69.7263 87.2251 68.6975 87.7558C67.6477 88.2866 66.6189 88.7536 65.6111 89.1782C64.6034 89.6028 63.5956 89.9637 62.6298 90.3034C60.6982 90.9615 58.8716 91.4073 57.2549 91.747C55.6382 92.0867 54.1896 92.2777 53.0138 92.4051C52.7199 92.4476 52.4469 92.4688 52.174 92.49C51.901 92.5112 51.6701 92.5325 51.4391 92.5537C50.9772 92.5749 50.5783 92.6174 50.2634 92.6174C49.6335 92.6386 49.2766 92.6599 49.2766 92.6599V90.5369Z" fill="#269FF7"/>
<path d="M63.6586 83.9133C62.5458 85.6541 61.9369 87.3737 62.0209 88.8385C62.9447 88.4776 63.8685 87.9681 64.6873 87.2888C64.8973 87.1189 65.0863 86.9279 65.2752 86.758C65.3802 86.6731 65.4642 86.567 65.5482 86.482C65.6321 86.3759 65.7371 86.291 65.8211 86.1848C65.9891 85.9725 66.157 85.7815 66.325 85.5479C66.472 85.3356 66.6189 85.1021 66.7659 84.8686C66.9129 84.6351 67.0178 84.4015 67.1228 84.168C67.2278 83.9345 67.3328 83.701 67.3958 83.4887C67.5637 83.0428 67.6687 82.597 67.7317 82.1512C67.8577 81.2808 67.7737 80.4953 67.5637 79.8159C66.8499 80.283 66.157 80.8774 65.4852 81.578C64.8343 82.2573 64.2044 83.0428 63.6586 83.9133Z" fill="url(#paint1_linear_1_1404)"/>
<path d="M63.6586 83.9133C62.5458 85.6541 61.9369 87.3737 62.0209 88.8385C62.9447 88.4776 63.8685 87.9681 64.6873 87.2888C64.8973 87.1189 65.0863 86.9279 65.2752 86.758C65.3802 86.6731 65.4642 86.567 65.5482 86.482C65.6321 86.3759 65.7371 86.291 65.8211 86.1848C65.9891 85.9725 66.157 85.7815 66.325 85.5479C66.472 85.3356 66.6189 85.1021 66.7659 84.8686C66.9129 84.6351 67.0178 84.4015 67.1228 84.168C67.2278 83.9345 67.3328 83.701 67.3958 83.4887C67.5637 83.0428 67.6687 82.597 67.7317 82.1512C67.8577 81.2808 67.7737 80.4953 67.5637 79.8159C66.8499 80.283 66.157 80.8774 65.4852 81.578C64.8343 82.2573 64.2044 83.0428 63.6586 83.9133Z" fill="#269FF7"/>
<path d="M67.2278 92.9571C66.6399 92.8722 66.073 92.7448 65.5901 92.5749C65.0863 92.4051 64.6453 92.1928 64.2464 91.9805C63.4486 91.5135 62.8607 90.9403 62.4828 90.3246C63.4696 90.0698 64.5614 89.8788 65.6741 89.7939C65.9471 89.7726 66.241 89.7514 66.514 89.7514C66.6609 89.7514 66.8079 89.7514 66.9339 89.7514C67.0808 89.7514 67.2278 89.7514 67.3538 89.7514C67.6477 89.7514 67.9207 89.7514 68.2146 89.7726C68.5085 89.7939 68.7815 89.7939 69.0754 89.8363C71.3849 90.0486 73.2325 90.6643 74.2823 91.6833C73.2535 92.214 72.0778 92.6386 70.86 92.8509C69.6843 93.0844 68.4245 93.1269 67.2278 92.9571Z" fill="url(#paint2_linear_1_1404)"/>
<path d="M67.2278 92.9571C66.6399 92.8722 66.073 92.7448 65.5901 92.5749C65.0863 92.4051 64.6453 92.1928 64.2464 91.9805C63.4486 91.5135 62.8607 90.9403 62.4828 90.3246C63.4696 90.0698 64.5614 89.8788 65.6741 89.7939C65.9471 89.7726 66.241 89.7514 66.514 89.7514C66.6609 89.7514 66.8079 89.7514 66.9339 89.7514C67.0808 89.7514 67.2278 89.7514 67.3538 89.7514C67.6477 89.7514 67.9207 89.7514 68.2146 89.7726C68.5085 89.7939 68.7815 89.7939 69.0754 89.8363C71.3849 90.0486 73.2325 90.6643 74.2823 91.6833C73.2535 92.214 72.0778 92.6386 70.86 92.8509C69.6843 93.0844 68.4245 93.1269 67.2278 92.9571Z" fill="#269FF7"/>
<path d="M70.1042 80.6864C69.7263 81.6205 69.4743 82.5333 69.3484 83.3825C69.2854 83.8071 69.2644 84.2105 69.2644 84.6138C69.2854 84.996 69.3274 85.3781 69.4113 85.7178C70.2302 85.2083 71.028 84.5501 71.6789 83.7434C71.8468 83.5524 72.0148 83.3401 72.1618 83.1278C72.3087 82.9155 72.4557 82.6819 72.5817 82.4696C72.8336 82.0026 73.0646 81.5355 73.2535 81.0473C73.3375 80.7925 73.4215 80.559 73.4845 80.3255C73.5475 80.0919 73.5895 79.8372 73.6314 79.6249C73.6734 79.3913 73.6944 79.1578 73.7154 78.9455C73.7364 78.712 73.7364 78.4997 73.7154 78.2874C73.6944 77.4382 73.4845 76.6952 73.1486 76.0795C71.9518 77.2047 70.86 78.8181 70.1042 80.6864Z" fill="url(#paint3_linear_1_1404)"/>
<path d="M70.1042 80.6864C69.7263 81.6205 69.4743 82.5333 69.3484 83.3825C69.2854 83.8071 69.2644 84.2105 69.2644 84.6138C69.2854 84.996 69.3274 85.3781 69.4113 85.7178C70.2302 85.2083 71.028 84.5501 71.6789 83.7434C71.8468 83.5524 72.0148 83.3401 72.1618 83.1278C72.3087 82.9155 72.4557 82.6819 72.5817 82.4696C72.8336 82.0026 73.0646 81.5355 73.2535 81.0473C73.3375 80.7925 73.4215 80.559 73.4845 80.3255C73.5475 80.0919 73.5895 79.8372 73.6314 79.6249C73.6734 79.3913 73.6944 79.1578 73.7154 78.9455C73.7364 78.712 73.7364 78.4997 73.7154 78.2874C73.6944 77.4382 73.4845 76.6952 73.1486 76.0795C71.9518 77.2047 70.86 78.8181 70.1042 80.6864Z" fill="#269FF7"/>
<path d="M75.1641 88.7324C73.9884 88.7961 72.9806 88.6475 72.1198 88.3502C71.6999 88.2016 71.3219 88.0106 70.986 87.8195C70.6501 87.6072 70.3771 87.3737 70.1252 87.0977C71.028 86.6731 72.0358 86.3122 73.0856 86.015C73.3585 85.9513 73.6105 85.8876 73.8834 85.8239C74.1563 85.7602 74.4293 85.6965 74.7022 85.6541C75.2481 85.5479 75.815 85.4842 76.3819 85.4206C76.6548 85.3993 76.9487 85.3781 77.2007 85.3569C77.4736 85.3356 77.7256 85.3356 77.9775 85.3356C78.2295 85.3356 78.4814 85.3569 78.7334 85.3781C78.9643 85.3993 79.2163 85.4206 79.4262 85.463C80.329 85.6116 81.0849 85.8664 81.6728 86.2485C79.9091 87.6497 77.4946 88.605 75.1641 88.7324Z" fill="url(#paint4_linear_1_1404)"/>
<path d="M75.1641 88.7324C73.9884 88.7961 72.9806 88.6475 72.1198 88.3502C71.6999 88.2016 71.3219 88.0106 70.986 87.8195C70.6501 87.6072 70.3771 87.3737 70.1252 87.0977C71.028 86.6731 72.0358 86.3122 73.0856 86.015C73.3585 85.9513 73.6105 85.8876 73.8834 85.8239C74.1563 85.7602 74.4293 85.6965 74.7022 85.6541C75.2481 85.5479 75.815 85.4842 76.3819 85.4206C76.6548 85.3993 76.9487 85.3781 77.2007 85.3569C77.4736 85.3356 77.7256 85.3356 77.9775 85.3356C78.2295 85.3356 78.4814 85.3569 78.7334 85.3781C78.9643 85.3993 79.2163 85.4206 79.4262 85.463C80.329 85.6116 81.0849 85.8664 81.6728 86.2485C79.9091 87.6497 77.4946 88.605 75.1641 88.7324Z" fill="#269FF7"/>
<path d="M75.857 76.3131C75.815 76.5466 75.773 76.8013 75.731 77.0349C75.689 77.2684 75.668 77.5019 75.647 77.7354C75.626 77.969 75.605 78.1813 75.605 78.4148C75.605 78.6271 75.605 78.8394 75.605 79.0517C75.647 79.9009 75.794 80.6439 76.0879 81.2596C77.4946 80.007 78.6074 78.0751 78.9433 76.0795C79.0273 75.57 79.0693 75.103 79.0483 74.6359C79.0273 74.1689 78.9853 73.7443 78.9013 73.3409C78.7124 72.5342 78.3974 71.8548 77.9775 71.3241C77.0327 72.6403 76.2769 74.3812 75.857 76.3131Z" fill="url(#paint5_linear_1_1404)"/>
<path d="M75.857 76.3131C75.815 76.5466 75.773 76.8013 75.731 77.0349C75.689 77.2684 75.668 77.5019 75.647 77.7354C75.626 77.969 75.605 78.1813 75.605 78.4148C75.605 78.6271 75.605 78.8394 75.605 79.0517C75.647 79.9009 75.794 80.6439 76.0879 81.2596C77.4946 80.007 78.6074 78.0751 78.9433 76.0795C79.0273 75.57 79.0693 75.103 79.0483 74.6359C79.0273 74.1689 78.9853 73.7443 78.9013 73.3409C78.7124 72.5342 78.3974 71.8548 77.9775 71.3241C77.0327 72.6403 76.2769 74.3812 75.857 76.3131Z" fill="#269FF7"/>
<path d="M82.1556 83.1065C81.8827 83.1702 81.6098 83.2339 81.3578 83.2764C81.0849 83.3188 80.8329 83.3401 80.581 83.3613C80.329 83.3825 80.0981 83.3825 79.8671 83.3613C79.6362 83.3401 79.4052 83.3188 79.1953 83.2976C78.3345 83.1702 77.6206 82.873 77.0747 82.4696C78.6494 81.3232 80.623 80.3255 82.7645 79.7098C83.2894 79.5612 83.8143 79.4338 84.2972 79.3489C84.7801 79.264 85.263 79.2215 85.7039 79.2003C86.5857 79.1791 87.3835 79.2852 87.9924 79.5612C86.5017 81.2171 84.3602 82.5758 82.1556 83.1065Z" fill="url(#paint6_linear_1_1404)"/>
<path d="M82.1556 83.1065C81.8827 83.1702 81.6098 83.2339 81.3578 83.2764C81.0849 83.3188 80.8329 83.3401 80.581 83.3613C80.329 83.3825 80.0981 83.3825 79.8671 83.3613C79.6362 83.3401 79.4052 83.3188 79.1953 83.2976C78.3345 83.1702 77.6206 82.873 77.0747 82.4696C78.6494 81.3232 80.623 80.3255 82.7645 79.7098C83.2894 79.5612 83.8143 79.4338 84.2972 79.3489C84.7801 79.264 85.263 79.2215 85.7039 79.2003C86.5857 79.1791 87.3835 79.2852 87.9924 79.5612C86.5017 81.2171 84.3602 82.5758 82.1556 83.1065Z" fill="#269FF7"/>
<path d="M80.7489 70.9207C80.728 71.8761 80.8119 72.7889 80.9799 73.5744C81.0639 73.9778 81.1898 74.3387 81.3368 74.6784C81.4838 75.018 81.6518 75.3365 81.8407 75.5912C81.9877 75.4002 82.1137 75.2091 82.2396 75.018C82.3656 74.827 82.4916 74.6147 82.5966 74.4024C82.6595 74.2962 82.7015 74.1901 82.7645 74.0839C82.8065 73.9778 82.8695 73.8716 82.9115 73.7443C83.0165 73.5107 83.1004 73.2985 83.1844 73.0649C83.3314 72.5979 83.4574 72.1096 83.5414 71.6213C83.5834 71.3666 83.6043 71.133 83.6253 70.8783C83.6463 70.6235 83.6463 70.3688 83.6463 70.1352C83.6463 70.0079 83.6463 69.8805 83.6253 69.7743C83.6253 69.647 83.6043 69.5408 83.6043 69.4134C83.5833 69.1799 83.5414 68.9464 83.4994 68.7341C83.4154 68.2883 83.2894 67.8849 83.1214 67.524C82.9745 67.1631 82.7855 66.8234 82.5756 66.5262C82.3656 66.229 82.1347 65.9742 81.8827 65.7619C81.7987 65.953 81.7147 66.1228 81.6308 66.3351C81.5468 66.5262 81.4838 66.7173 81.4208 66.9296C81.3788 67.0357 81.3578 67.1419 81.3158 67.248C81.2738 67.3542 81.2528 67.4603 81.2318 67.5665C81.1689 67.7787 81.1269 67.991 81.0639 68.2033C80.9589 68.6279 80.8959 69.095 80.8329 69.562C80.8119 69.7956 80.7909 70.0291 80.7699 70.2626C80.7699 70.4325 80.7489 70.6872 80.7489 70.9207Z" fill="url(#paint7_linear_1_1404)"/>
<path d="M80.7489 70.9207C80.728 71.8761 80.8119 72.7889 80.9799 73.5744C81.0639 73.9778 81.1898 74.3387 81.3368 74.6784C81.4838 75.018 81.6518 75.3365 81.8407 75.5912C81.9877 75.4002 82.1137 75.2091 82.2396 75.018C82.3656 74.827 82.4916 74.6147 82.5966 74.4024C82.6595 74.2962 82.7015 74.1901 82.7645 74.0839C82.8065 73.9778 82.8695 73.8716 82.9115 73.7443C83.0165 73.5107 83.1004 73.2985 83.1844 73.0649C83.3314 72.5979 83.4574 72.1096 83.5414 71.6213C83.5834 71.3666 83.6043 71.133 83.6253 70.8783C83.6463 70.6235 83.6463 70.3688 83.6463 70.1352C83.6463 70.0079 83.6463 69.8805 83.6253 69.7743C83.6253 69.647 83.6043 69.5408 83.6043 69.4134C83.5833 69.1799 83.5414 68.9464 83.4994 68.7341C83.4154 68.2883 83.2894 67.8849 83.1214 67.524C82.9745 67.1631 82.7855 66.8234 82.5756 66.5262C82.3656 66.229 82.1347 65.9742 81.8827 65.7619C81.7987 65.953 81.7147 66.1228 81.6308 66.3351C81.5468 66.5262 81.4838 66.7173 81.4208 66.9296C81.3788 67.0357 81.3578 67.1419 81.3158 67.248C81.2738 67.3542 81.2528 67.4603 81.2318 67.5665C81.1689 67.7787 81.1269 67.991 81.0639 68.2033C80.9589 68.6279 80.8959 69.095 80.8329 69.562C80.8119 69.7956 80.7909 70.0291 80.7699 70.2626C80.7699 70.4325 80.7489 70.6872 80.7489 70.9207Z" fill="#269FF7"/>
<path d="M87.9924 76.2918C86.9846 76.7376 86.0188 76.9712 85.179 76.9924C84.7591 77.0136 84.3602 76.9712 84.0033 76.9075C83.6463 76.8438 83.3104 76.7164 83.0165 76.5678C83.1844 76.398 83.3524 76.2281 83.5204 76.0583C83.6883 75.8885 83.8773 75.7186 84.0662 75.5488C84.1502 75.4639 84.2552 75.379 84.3602 75.294C84.4652 75.2091 84.5491 75.1242 84.6541 75.0393C84.8431 74.8694 85.053 74.7208 85.263 74.5722C85.6829 74.2538 86.1238 73.9566 86.5647 73.6806C86.7957 73.532 87.0266 73.4046 87.2576 73.2772C87.4885 73.1498 87.7195 73.0225 87.9714 72.8951C88.0974 72.8314 88.2024 72.7889 88.3283 72.7252C88.4543 72.6616 88.5593 72.6191 88.6853 72.5554C88.9162 72.4493 89.1472 72.3643 89.3781 72.2794C89.84 72.1096 90.2599 71.9822 90.7008 71.8973C91.1208 71.8124 91.5197 71.7487 91.8976 71.7487C92.2755 71.7275 92.6324 71.7699 92.9474 71.8548C92.8004 72.0884 92.6534 72.3219 92.5065 72.5342C92.3385 72.7677 92.1705 72.98 92.0026 73.1923C91.9186 73.2984 91.8136 73.4046 91.7296 73.5107C91.6246 73.6169 91.5407 73.723 91.4357 73.8292C91.2467 74.0415 91.0368 74.2326 90.8268 74.4236C90.4069 74.8058 89.966 75.1667 89.4831 75.4639C89.2522 75.6125 89.0002 75.7611 88.7692 75.9097C88.4963 76.0583 88.2444 76.1857 87.9924 76.2918Z" fill="url(#paint8_linear_1_1404)"/>
<path d="M87.9924 76.2918C86.9846 76.7376 86.0188 76.9712 85.179 76.9924C84.7591 77.0136 84.3602 76.9712 84.0033 76.9075C83.6463 76.8438 83.3104 76.7164 83.0165 76.5678C83.1844 76.398 83.3524 76.2281 83.5204 76.0583C83.6883 75.8885 83.8773 75.7186 84.0662 75.5488C84.1502 75.4639 84.2552 75.379 84.3602 75.294C84.4652 75.2091 84.5491 75.1242 84.6541 75.0393C84.8431 74.8694 85.053 74.7208 85.263 74.5722C85.6829 74.2538 86.1238 73.9566 86.5647 73.6806C86.7957 73.532 87.0266 73.4046 87.2576 73.2772C87.4885 73.1498 87.7195 73.0225 87.9714 72.8951C88.0974 72.8314 88.2024 72.7889 88.3283 72.7252C88.4543 72.6616 88.5593 72.6191 88.6853 72.5554C88.9162 72.4493 89.1472 72.3643 89.3781 72.2794C89.84 72.1096 90.2599 71.9822 90.7008 71.8973C91.1208 71.8124 91.5197 71.7487 91.8976 71.7487C92.2755 71.7275 92.6324 71.7699 92.9474 71.8548C92.8004 72.0884 92.6534 72.3219 92.5065 72.5342C92.3385 72.7677 92.1705 72.98 92.0026 73.1923C91.9186 73.2984 91.8136 73.4046 91.7296 73.5107C91.6246 73.6169 91.5407 73.723 91.4357 73.8292C91.2467 74.0415 91.0368 74.2326 90.8268 74.4236C90.4069 74.8058 89.966 75.1667 89.4831 75.4639C89.2522 75.6125 89.0002 75.7611 88.7692 75.9097C88.4963 76.0583 88.2444 76.1857 87.9924 76.2918Z" fill="#269FF7"/>
<path d="M84.5911 64.7005C84.6541 65.1675 84.7591 65.6133 84.8851 66.0167C84.9901 66.4413 85.137 66.8234 85.305 67.1843C85.6199 67.9061 86.0188 68.5218 86.4807 68.9676C87.2786 67.3542 87.6145 65.2949 87.2366 63.3842C87.1316 62.9172 87.0056 62.4713 86.8587 62.068C86.6907 61.6646 86.5227 61.3037 86.2918 60.964C85.8719 60.3059 85.347 59.8176 84.8011 59.4992C84.3812 61.0277 84.2762 62.8322 84.5911 64.7005Z" fill="url(#paint9_linear_1_1404)"/>
<path d="M84.5911 64.7005C84.6541 65.1675 84.7591 65.6133 84.8851 66.0167C84.9901 66.4413 85.137 66.8234 85.305 67.1843C85.6199 67.9061 86.0188 68.5218 86.4807 68.9676C87.2786 67.3542 87.6145 65.2949 87.2366 63.3842C87.1316 62.9172 87.0056 62.4713 86.8587 62.068C86.6907 61.6646 86.5227 61.3037 86.2918 60.964C85.8719 60.3059 85.347 59.8176 84.8011 59.4992C84.3812 61.0277 84.2762 62.8322 84.5911 64.7005Z" fill="#269FF7"/>
<path d="M92.4855 68.543C92.0446 68.8402 91.6037 69.095 91.1837 69.3073C90.7428 69.4983 90.3229 69.647 89.924 69.7319C89.1262 69.9229 88.3913 69.9017 87.7615 69.7319C88.7483 68.1609 90.176 66.6111 91.8346 65.3373C93.4933 64.0848 95.1099 63.3842 96.4116 63.4267C95.6768 65.401 94.2491 67.3117 92.4855 68.543Z" fill="url(#paint10_linear_1_1404)"/>
<path d="M92.4855 68.543C92.0446 68.8402 91.6037 69.095 91.1837 69.3073C90.7428 69.4983 90.3229 69.647 89.924 69.7319C89.1262 69.9229 88.3913 69.9017 87.7615 69.7319C88.7483 68.1609 90.176 66.6111 91.8346 65.3373C93.4933 64.0848 95.1099 63.3842 96.4116 63.4267C95.6768 65.401 94.2491 67.3117 92.4855 68.543Z" fill="#269FF7"/>
<path d="M87.2156 57.8433C87.8245 59.5629 88.7273 60.9004 89.777 61.6009C90.2599 59.9238 90.197 57.8857 89.5041 56.1237C89.1472 55.2533 88.6853 54.5315 88.1604 53.9795C87.6355 53.4275 87.0686 53.0454 86.4807 52.8331C86.4177 53.5974 86.4387 54.4253 86.5647 55.2745C86.6907 56.1237 86.9216 56.9941 87.2156 57.8433Z" fill="url(#paint11_linear_1_1404)"/>
<path d="M87.2156 57.8433C87.8245 59.5629 88.7273 60.9004 89.777 61.6009C90.2599 59.9238 90.197 57.8857 89.5041 56.1237C89.1472 55.2533 88.6853 54.5315 88.1604 53.9795C87.6355 53.4275 87.0686 53.0454 86.4807 52.8331C86.4177 53.5974 86.4387 54.4253 86.5647 55.2745C86.6907 56.1237 86.9216 56.9941 87.2156 57.8433Z" fill="#269FF7"/>
<path d="M95.4668 60.0936C95.2779 60.2847 95.0889 60.4545 94.921 60.6031C94.732 60.773 94.543 60.9004 94.3541 61.049C93.9762 61.3249 93.6192 61.5372 93.2413 61.6858C92.5065 62.0043 91.8136 62.1317 91.1837 62.0892C91.8556 60.4121 92.9264 58.65 94.2911 57.1427C94.9839 56.3997 95.6768 55.784 96.3487 55.3382C97.0415 54.8924 97.6924 54.5952 98.3222 54.5102C98.1543 55.508 97.7973 56.5271 97.3145 57.4824C96.8316 58.4377 96.2017 59.3294 95.4668 60.0936Z" fill="url(#paint12_linear_1_1404)"/>
<path d="M95.4668 60.0936C95.2779 60.2847 95.0889 60.4545 94.921 60.6031C94.732 60.773 94.543 60.9004 94.3541 61.049C93.9762 61.3249 93.6192 61.5372 93.2413 61.6858C92.5065 62.0043 91.8136 62.1317 91.1837 62.0892C91.8556 60.4121 92.9264 58.65 94.2911 57.1427C94.9839 56.3997 95.6768 55.784 96.3487 55.3382C97.0415 54.8924 97.6924 54.5952 98.3222 54.5102C98.1543 55.508 97.7973 56.5271 97.3145 57.4824C96.8316 58.4377 96.2017 59.3294 95.4668 60.0936Z" fill="#269FF7"/>
<path d="M88.5383 50.604C88.7483 50.9861 89.0002 51.347 89.2522 51.6655C89.5041 51.9839 89.756 52.2811 90.008 52.5571C90.2809 52.8119 90.5329 53.0454 90.8058 53.2577C91.0788 53.4488 91.3517 53.6186 91.6456 53.7247C91.7926 52.0264 91.3937 50.0945 90.4069 48.5447C90.155 48.1626 89.903 47.8017 89.6301 47.5045C89.3571 47.2073 89.0632 46.9525 88.7692 46.719C88.1814 46.2944 87.5725 46.0184 86.9636 45.9122C86.9636 45.9547 86.9846 45.9972 86.9846 46.0609C86.9846 46.1033 86.9846 46.1458 87.0056 46.2095C87.0266 46.2944 87.0266 46.4005 87.0476 46.4854C87.0686 46.6765 87.1106 46.8676 87.1526 47.0586C87.1946 47.2497 87.2576 47.4408 87.2996 47.6531C87.3416 47.8441 87.4045 48.0564 87.4675 48.2475C87.5095 48.3536 87.5305 48.4386 87.5725 48.5447C87.6145 48.6509 87.6355 48.7358 87.6775 48.8419C87.7615 49.033 87.8454 49.2453 87.9294 49.4364C88.1184 49.8185 88.3074 50.2219 88.5383 50.604Z" fill="url(#paint13_linear_1_1404)"/>
<path d="M88.5383 50.604C88.7483 50.9861 89.0002 51.347 89.2522 51.6655C89.5041 51.9839 89.756 52.2811 90.008 52.5571C90.2809 52.8119 90.5329 53.0454 90.8058 53.2577C91.0788 53.4488 91.3517 53.6186 91.6456 53.7247C91.7926 52.0264 91.3937 50.0945 90.4069 48.5447C90.155 48.1626 89.903 47.8017 89.6301 47.5045C89.3571 47.2073 89.0632 46.9525 88.7692 46.719C88.1814 46.2944 87.5725 46.0184 86.9636 45.9122C86.9636 45.9547 86.9846 45.9972 86.9846 46.0609C86.9846 46.1033 86.9846 46.1458 87.0056 46.2095C87.0266 46.2944 87.0266 46.4005 87.0476 46.4854C87.0686 46.6765 87.1106 46.8676 87.1526 47.0586C87.1946 47.2497 87.2576 47.4408 87.2996 47.6531C87.3416 47.8441 87.4045 48.0564 87.4675 48.2475C87.5095 48.3536 87.5305 48.4386 87.5725 48.5447C87.6145 48.6509 87.6355 48.7358 87.6775 48.8419C87.7615 49.033 87.8454 49.2453 87.9294 49.4364C88.1184 49.8185 88.3074 50.2219 88.5383 50.604Z" fill="#269FF7"/>
<path d="M96.8525 51.2409C96.5586 51.6655 96.2647 52.0264 95.9497 52.3448C95.6348 52.6633 95.3199 52.9392 95.0049 53.1515C94.69 53.3638 94.3541 53.5549 94.0391 53.6823C93.7242 53.8097 93.4093 53.8946 93.1153 53.9158C93.4513 52.1962 94.1651 50.328 95.1939 48.6509C95.4458 48.2263 95.7188 47.8441 95.9917 47.5045C96.2647 47.1648 96.5376 46.8463 96.8316 46.5704C97.3984 46.0184 98.0073 45.6363 98.5742 45.4452C98.5742 45.5089 98.5742 45.5726 98.5742 45.6363C98.5742 45.6999 98.5742 45.7636 98.5742 45.8273C98.5742 45.9547 98.5532 46.0821 98.5532 46.2095C98.5322 46.4642 98.5112 46.719 98.4692 46.9737C98.4272 47.2285 98.3852 47.4832 98.3432 47.738C98.2802 47.9927 98.2173 48.2475 98.1543 48.481C98.1123 48.6084 98.0703 48.7358 98.0493 48.8632C98.0073 48.9905 97.9653 49.1179 97.9233 49.2241C97.8393 49.4576 97.7344 49.7123 97.6294 49.9459C97.3774 50.3705 97.1255 50.8163 96.8525 51.2409Z" fill="url(#paint14_linear_1_1404)"/>
<path d="M96.8525 51.2409C96.5586 51.6655 96.2647 52.0264 95.9497 52.3448C95.6348 52.6633 95.3199 52.9392 95.0049 53.1515C94.69 53.3638 94.3541 53.5549 94.0391 53.6823C93.7242 53.8097 93.4093 53.8946 93.1153 53.9158C93.4513 52.1962 94.1651 50.328 95.1939 48.6509C95.4458 48.2263 95.7188 47.8441 95.9917 47.5045C96.2647 47.1648 96.5376 46.8463 96.8316 46.5704C97.3984 46.0184 98.0073 45.6363 98.5742 45.4452C98.5742 45.5089 98.5742 45.5726 98.5742 45.6363C98.5742 45.6999 98.5742 45.7636 98.5742 45.8273C98.5742 45.9547 98.5532 46.0821 98.5532 46.2095C98.5322 46.4642 98.5112 46.719 98.4692 46.9737C98.4272 47.2285 98.3852 47.4832 98.3432 47.738C98.2802 47.9927 98.2173 48.2475 98.1543 48.481C98.1123 48.6084 98.0703 48.7358 98.0493 48.8632C98.0073 48.9905 97.9653 49.1179 97.9233 49.2241C97.8393 49.4576 97.7344 49.7123 97.6294 49.9459C97.3774 50.3705 97.1255 50.8163 96.8525 51.2409Z" fill="#269FF7"/>
<path d="M88.5383 43.1949C89.6511 44.4899 90.8898 45.3815 92.0446 45.615C91.8976 43.9591 91.1418 42.1971 89.966 40.9021C89.3571 40.2439 88.7273 39.7769 88.0764 39.4584C87.4255 39.14 86.7957 39.0126 86.2288 39.0126C86.6277 40.4138 87.4045 41.8998 88.5383 43.1949Z" fill="url(#paint15_linear_1_1404)"/>
<path d="M88.5383 43.1949C89.6511 44.4899 90.8898 45.3815 92.0446 45.615C91.8976 43.9591 91.1418 42.1971 89.966 40.9021C89.3571 40.2439 88.7273 39.7769 88.0764 39.4584C87.4255 39.14 86.7957 39.0126 86.2288 39.0126C86.6277 40.4138 87.4045 41.8998 88.5383 43.1949Z" fill="#269FF7"/>
<path d="M96.6006 42.3244C95.8028 44.129 94.627 45.2117 93.5143 45.5513C93.5352 43.853 93.8712 41.9423 94.585 40.159C94.921 39.2674 95.3619 38.5031 95.8028 37.8662C96.2437 37.2506 96.7476 36.7623 97.2725 36.4863C97.5874 38.3545 97.3774 40.5199 96.6006 42.3244Z" fill="url(#paint16_linear_1_1404)"/>
<path d="M96.6006 42.3244C95.8028 44.129 94.627 45.2117 93.5143 45.5513C93.5352 43.853 93.8712 41.9423 94.585 40.159C94.921 39.2674 95.3619 38.5031 95.8028 37.8662C96.2437 37.2506 96.7476 36.7623 97.2725 36.4863C97.5874 38.3545 97.3774 40.5199 96.6006 42.3244Z" fill="#269FF7"/>
<path d="M87.1736 35.9131C87.8244 36.4438 88.4963 36.8472 89.1262 37.1232C89.756 37.3992 90.3859 37.569 90.9528 37.569C90.5119 36.0192 89.4831 34.4907 88.1184 33.4505C86.7537 32.4102 85.326 32.113 84.2132 32.3253C84.8641 33.5991 85.8719 34.8728 87.1736 35.9131Z" fill="url(#paint17_linear_1_1404)"/>
<path d="M87.1736 35.9131C87.8244 36.4438 88.4963 36.8472 89.1262 37.1232C89.756 37.3992 90.3859 37.569 90.9528 37.569C90.5119 36.0192 89.4831 34.4907 88.1184 33.4505C86.7537 32.4102 85.326 32.113 84.2132 32.3253C84.8641 33.5991 85.8719 34.8728 87.1736 35.9131Z" fill="#269FF7"/>
<path d="M94.732 33.5991C94.501 34.5332 94.1861 35.2974 93.7662 35.9131C93.3463 36.5288 92.8634 36.9746 92.3595 37.2293C92.0656 35.5947 92.0446 33.7264 92.4225 31.9007C92.7794 30.075 93.4303 28.6526 94.3331 27.9308C94.9839 29.6504 95.1519 31.7521 94.732 33.5991Z" fill="url(#paint18_linear_1_1404)"/>
<path d="M94.732 33.5991C94.501 34.5332 94.1861 35.2974 93.7662 35.9131C93.3463 36.5288 92.8634 36.9746 92.3595 37.2293C92.0656 35.5947 92.0446 33.7264 92.4225 31.9007C92.7794 30.075 93.4303 28.6526 94.3331 27.9308C94.9839 29.6504 95.1519 31.7521 94.732 33.5991Z" fill="#269FF7"/>
<path d="M86.9846 28.1855C87.1106 28.419 87.2156 28.6526 87.3416 28.8649C87.4045 28.971 87.4675 29.0772 87.5305 29.1833C87.5935 29.2895 87.6565 29.3956 87.7195 29.5018C87.9714 29.9263 88.2444 30.3085 88.5173 30.6906C88.7903 31.0727 89.0842 31.4124 89.3571 31.7096C89.6301 32.0281 89.924 32.3041 90.2389 32.5588C90.3019 32.1767 90.3439 31.7521 90.3439 31.3275C90.3439 30.8817 90.2809 30.4359 90.2179 29.9476C90.155 29.4593 90.008 28.9922 89.861 28.4827C89.819 28.3554 89.777 28.228 89.735 28.1006C89.6931 27.9732 89.6511 27.8458 89.5881 27.7397C89.4831 27.4849 89.3781 27.2514 89.2522 26.9967C89.1892 26.8693 89.1262 26.7419 89.0632 26.6358C89.0002 26.5084 88.9372 26.4022 88.8532 26.2749C88.7063 26.0413 88.5593 25.829 88.4123 25.6167C88.2654 25.4044 88.1184 25.1921 87.9504 25.0011C87.7825 24.81 87.6145 24.6189 87.4675 24.4491C87.2996 24.2793 87.1316 24.1094 86.9636 23.9608C86.7957 23.8122 86.6067 23.6636 86.4387 23.5362C86.0818 23.2815 85.7459 23.0692 85.389 22.8781C85.41 23.2602 85.473 23.6848 85.5569 24.0882C85.5989 24.3005 85.6619 24.5128 85.7039 24.7251C85.7459 24.9374 85.8089 25.1709 85.8929 25.3832C85.9558 25.5955 86.0398 25.829 86.1238 26.0413C86.2078 26.2749 86.2918 26.4871 86.3758 26.7207C86.4597 26.9542 86.5647 27.1877 86.6697 27.4C86.7327 27.5062 86.7747 27.6335 86.8377 27.7397C86.8587 27.952 86.9216 28.0581 86.9846 28.1855Z" fill="url(#paint19_linear_1_1404)"/>
<path d="M86.9846 28.1855C87.1106 28.419 87.2156 28.6526 87.3416 28.8649C87.4045 28.971 87.4675 29.0772 87.5305 29.1833C87.5935 29.2895 87.6565 29.3956 87.7195 29.5018C87.9714 29.9263 88.2444 30.3085 88.5173 30.6906C88.7903 31.0727 89.0842 31.4124 89.3571 31.7096C89.6301 32.0281 89.924 32.3041 90.2389 32.5588C90.3019 32.1767 90.3439 31.7521 90.3439 31.3275C90.3439 30.8817 90.2809 30.4359 90.2179 29.9476C90.155 29.4593 90.008 28.9922 89.861 28.4827C89.819 28.3554 89.777 28.228 89.735 28.1006C89.6931 27.9732 89.6511 27.8458 89.5881 27.7397C89.4831 27.4849 89.3781 27.2514 89.2522 26.9967C89.1892 26.8693 89.1262 26.7419 89.0632 26.6358C89.0002 26.5084 88.9372 26.4022 88.8532 26.2749C88.7063 26.0413 88.5593 25.829 88.4123 25.6167C88.2654 25.4044 88.1184 25.1921 87.9504 25.0011C87.7825 24.81 87.6145 24.6189 87.4675 24.4491C87.2996 24.2793 87.1316 24.1094 86.9636 23.9608C86.7957 23.8122 86.6067 23.6636 86.4387 23.5362C86.0818 23.2815 85.7459 23.0692 85.389 22.8781C85.41 23.2602 85.473 23.6848 85.5569 24.0882C85.5989 24.3005 85.6619 24.5128 85.7039 24.7251C85.7459 24.9374 85.8089 25.1709 85.8929 25.3832C85.9558 25.5955 86.0398 25.829 86.1238 26.0413C86.2078 26.2749 86.2918 26.4871 86.3758 26.7207C86.4597 26.9542 86.5647 27.1877 86.6697 27.4C86.7327 27.5062 86.7747 27.6335 86.8377 27.7397C86.8587 27.952 86.9216 28.0581 86.9846 28.1855Z" fill="#269FF7"/>
<path d="M49.2766 90.5369C49.2766 90.5369 48.9407 90.5369 48.3318 90.5581C48.0169 90.5581 47.6389 90.5581 47.198 90.5581C46.9671 90.5581 46.7361 90.5369 46.4842 90.5369C46.2322 90.5369 45.9593 90.5157 45.6654 90.4944C44.5316 90.4307 43.1459 90.3034 41.5712 90.0486C39.9966 89.7939 38.2329 89.4117 36.3433 88.8385C35.3985 88.5625 34.4327 88.2229 33.4459 87.8407C32.4591 87.4586 31.4514 87.0128 30.4226 86.5245C29.3938 86.0362 28.386 85.4842 27.3572 84.8686C26.3284 84.2742 25.2997 83.5948 24.2919 82.873C22.2763 81.4294 20.3237 79.7523 18.4971 77.9053C16.6705 76.0371 14.9908 73.9778 13.5001 71.7699C12.0095 69.562 10.7497 67.2055 9.69995 64.8066C8.67117 62.3864 7.87334 59.9238 7.28546 57.5036C6.71858 55.0622 6.38265 52.6633 6.23568 50.3705C6.19369 49.7973 6.1727 49.2241 6.1517 48.6721C6.1517 48.1201 6.13071 47.5682 6.1517 47.0162C6.1517 45.9335 6.21469 44.8932 6.29867 43.8954C6.34066 43.4072 6.38265 42.8976 6.44564 42.4306C6.50863 41.9635 6.57161 41.4965 6.6346 41.0294C6.78157 40.1378 6.92854 39.2674 7.0965 38.4819C7.24347 37.6752 7.45343 36.9533 7.62139 36.274C7.70537 35.9343 7.81035 35.6159 7.89433 35.2974C7.93632 35.1488 7.97831 35.0002 8.02031 34.8516C8.0413 34.7879 8.0623 34.703 8.08329 34.6393C8.10429 34.5756 8.12528 34.4907 8.14628 34.427C8.23026 34.151 8.31424 33.8963 8.39823 33.6415C8.44022 33.5141 8.48221 33.408 8.5242 33.2806C8.56619 33.1745 8.60818 33.0471 8.65017 32.9409C8.81814 32.5164 8.94411 32.1555 9.04909 31.8582C9.15407 31.561 9.25904 31.3487 9.32203 31.2001C9.38502 31.0515 9.40601 30.9666 9.40601 30.9666L8.58719 30.6269C8.58719 30.6269 8.54519 30.7118 8.5032 30.8604C8.44022 31.0091 8.33524 31.2426 8.23026 31.5398C8.12528 31.837 7.97831 32.2191 7.83135 32.6437C7.78935 32.7499 7.74736 32.856 7.70537 32.9834C7.66338 33.1108 7.62139 33.2169 7.5794 33.3443C7.49542 33.5991 7.41143 33.8751 7.32745 34.151C7.30646 34.2147 7.28546 34.2996 7.26447 34.3633C7.24347 34.427 7.22247 34.5119 7.20148 34.5969C7.15949 34.7455 7.1175 34.8941 7.07551 35.0639C6.99152 35.3824 6.88655 35.7008 6.80256 36.0617C6.6346 36.7623 6.42464 37.5053 6.27767 38.3333C6.08871 39.14 5.96274 40.0104 5.81577 40.9445C5.75278 41.4116 5.6898 41.8786 5.62681 42.3669C5.56383 42.8552 5.52183 43.3435 5.47984 43.853C5.39586 44.872 5.33287 45.9335 5.33287 47.0374C5.31188 47.5894 5.33287 48.1414 5.33287 48.7146C5.35387 49.2878 5.37486 49.861 5.41686 50.4554C5.54283 52.7906 5.89975 55.2533 6.44564 57.7371C7.01252 60.221 7.81035 62.7473 8.86013 65.2312C9.90991 67.6938 11.1906 70.114 12.6813 72.3856C14.172 74.6571 15.8726 76.8013 17.7203 78.7332C19.5679 80.6651 21.5624 82.406 23.62 83.9133C24.6488 84.6563 25.6986 85.3569 26.7274 85.9938C27.7771 86.6306 28.8269 87.2251 29.8557 87.7558C30.9055 88.2866 31.9343 88.7536 32.942 89.1782C33.9498 89.6028 34.9576 89.9637 35.9234 90.3034C37.855 90.9615 39.6816 91.4073 41.2983 91.747C42.9149 92.0867 44.3636 92.2777 45.5394 92.4051C45.8333 92.4476 46.1063 92.4688 46.3792 92.49C46.6521 92.5112 46.8831 92.5325 47.1141 92.5537C47.576 92.5749 47.9749 92.6174 48.2898 92.6174C48.9197 92.6386 49.2766 92.6599 49.2766 92.6599V90.5369Z" fill="url(#paint20_linear_1_1404)"/>
<path d="M49.2766 90.5369C49.2766 90.5369 48.9407 90.5369 48.3318 90.5581C48.0169 90.5581 47.6389 90.5581 47.198 90.5581C46.9671 90.5581 46.7361 90.5369 46.4842 90.5369C46.2322 90.5369 45.9593 90.5157 45.6654 90.4944C44.5316 90.4307 43.1459 90.3034 41.5712 90.0486C39.9966 89.7939 38.2329 89.4117 36.3433 88.8385C35.3985 88.5625 34.4327 88.2229 33.4459 87.8407C32.4591 87.4586 31.4514 87.0128 30.4226 86.5245C29.3938 86.0362 28.386 85.4842 27.3572 84.8686C26.3284 84.2742 25.2997 83.5948 24.2919 82.873C22.2763 81.4294 20.3237 79.7523 18.4971 77.9053C16.6705 76.0371 14.9908 73.9778 13.5001 71.7699C12.0095 69.562 10.7497 67.2055 9.69995 64.8066C8.67117 62.3864 7.87334 59.9238 7.28546 57.5036C6.71858 55.0622 6.38265 52.6633 6.23568 50.3705C6.19369 49.7973 6.1727 49.2241 6.1517 48.6721C6.1517 48.1201 6.13071 47.5682 6.1517 47.0162C6.1517 45.9335 6.21469 44.8932 6.29867 43.8954C6.34066 43.4072 6.38265 42.8976 6.44564 42.4306C6.50863 41.9635 6.57161 41.4965 6.6346 41.0294C6.78157 40.1378 6.92854 39.2674 7.0965 38.4819C7.24347 37.6752 7.45343 36.9533 7.62139 36.274C7.70537 35.9343 7.81035 35.6159 7.89433 35.2974C7.93632 35.1488 7.97831 35.0002 8.02031 34.8516C8.0413 34.7879 8.0623 34.703 8.08329 34.6393C8.10429 34.5756 8.12528 34.4907 8.14628 34.427C8.23026 34.151 8.31424 33.8963 8.39823 33.6415C8.44022 33.5141 8.48221 33.408 8.5242 33.2806C8.56619 33.1745 8.60818 33.0471 8.65017 32.9409C8.81814 32.5164 8.94411 32.1555 9.04909 31.8582C9.15407 31.561 9.25904 31.3487 9.32203 31.2001C9.38502 31.0515 9.40601 30.9666 9.40601 30.9666L8.58719 30.6269C8.58719 30.6269 8.54519 30.7118 8.5032 30.8604C8.44022 31.0091 8.33524 31.2426 8.23026 31.5398C8.12528 31.837 7.97831 32.2191 7.83135 32.6437C7.78935 32.7499 7.74736 32.856 7.70537 32.9834C7.66338 33.1108 7.62139 33.2169 7.5794 33.3443C7.49542 33.5991 7.41143 33.8751 7.32745 34.151C7.30646 34.2147 7.28546 34.2996 7.26447 34.3633C7.24347 34.427 7.22247 34.5119 7.20148 34.5969C7.15949 34.7455 7.1175 34.8941 7.07551 35.0639C6.99152 35.3824 6.88655 35.7008 6.80256 36.0617C6.6346 36.7623 6.42464 37.5053 6.27767 38.3333C6.08871 39.14 5.96274 40.0104 5.81577 40.9445C5.75278 41.4116 5.6898 41.8786 5.62681 42.3669C5.56383 42.8552 5.52183 43.3435 5.47984 43.853C5.39586 44.872 5.33287 45.9335 5.33287 47.0374C5.31188 47.5894 5.33287 48.1414 5.33287 48.7146C5.35387 49.2878 5.37486 49.861 5.41686 50.4554C5.54283 52.7906 5.89975 55.2533 6.44564 57.7371C7.01252 60.221 7.81035 62.7473 8.86013 65.2312C9.90991 67.6938 11.1906 70.114 12.6813 72.3856C14.172 74.6571 15.8726 76.8013 17.7203 78.7332C19.5679 80.6651 21.5624 82.406 23.62 83.9133C24.6488 84.6563 25.6986 85.3569 26.7274 85.9938C27.7771 86.6306 28.8269 87.2251 29.8557 87.7558C30.9055 88.2866 31.9343 88.7536 32.942 89.1782C33.9498 89.6028 34.9576 89.9637 35.9234 90.3034C37.855 90.9615 39.6816 91.4073 41.2983 91.747C42.9149 92.0867 44.3636 92.2777 45.5394 92.4051C45.8333 92.4476 46.1063 92.4688 46.3792 92.49C46.6521 92.5112 46.8831 92.5325 47.1141 92.5537C47.576 92.5749 47.9749 92.6174 48.2898 92.6174C48.9197 92.6386 49.2766 92.6599 49.2766 92.6599V90.5369Z" fill="#269FF7"/>
<path d="M34.9156 83.9133C36.0284 85.6541 36.6373 87.3737 36.5533 88.8385C35.6295 88.4776 34.7057 87.9681 33.8868 87.2888C33.6769 87.1189 33.4879 86.9279 33.299 86.758C33.194 86.6731 33.11 86.567 33.026 86.482C32.942 86.3759 32.8371 86.291 32.7531 86.1848C32.5851 85.9725 32.4172 85.7815 32.2492 85.5479C32.1022 85.3356 31.9553 85.1021 31.8083 84.8686C31.6613 84.6351 31.5563 84.4015 31.4514 84.168C31.3464 83.9345 31.2414 83.701 31.1784 83.4887C31.0105 83.0428 30.9055 82.597 30.8425 82.1512C30.7165 81.2808 30.8005 80.4953 31.0105 79.8159C31.7243 80.283 32.4172 80.8774 33.089 81.578C33.7399 82.2573 34.3487 83.0428 34.9156 83.9133Z" fill="url(#paint21_linear_1_1404)"/>
<path d="M34.9156 83.9133C36.0284 85.6541 36.6373 87.3737 36.5533 88.8385C35.6295 88.4776 34.7057 87.9681 33.8868 87.2888C33.6769 87.1189 33.4879 86.9279 33.299 86.758C33.194 86.6731 33.11 86.567 33.026 86.482C32.942 86.3759 32.8371 86.291 32.7531 86.1848C32.5851 85.9725 32.4172 85.7815 32.2492 85.5479C32.1022 85.3356 31.9553 85.1021 31.8083 84.8686C31.6613 84.6351 31.5563 84.4015 31.4514 84.168C31.3464 83.9345 31.2414 83.701 31.1784 83.4887C31.0105 83.0428 30.9055 82.597 30.8425 82.1512C30.7165 81.2808 30.8005 80.4953 31.0105 79.8159C31.7243 80.283 32.4172 80.8774 33.089 81.578C33.7399 82.2573 34.3487 83.0428 34.9156 83.9133Z" fill="#269FF7"/>
<path d="M31.3254 92.9571C31.9133 92.8722 32.4801 92.7448 32.963 92.5749C33.4669 92.4051 33.9078 92.1928 34.3068 91.9805C35.1046 91.5135 35.6925 90.9403 36.0704 90.3246C35.0836 90.0698 33.9918 89.8788 32.8791 89.7939C32.6061 89.7726 32.3122 89.7514 32.0392 89.7514C31.8923 89.7514 31.7453 89.7514 31.6193 89.7514C31.4724 89.7514 31.3254 89.7514 31.1994 89.7514C30.9055 89.7514 30.6325 89.7514 30.3386 89.7726C30.0447 89.7939 29.7717 89.7939 29.4778 89.8363C27.1683 90.0486 25.3207 90.6643 24.2709 91.6833C25.2997 92.214 26.4754 92.6386 27.6932 92.8509C28.8899 93.0844 30.1496 93.1269 31.3254 92.9571Z" fill="url(#paint22_linear_1_1404)"/>
<path d="M31.3254 92.9571C31.9133 92.8722 32.4801 92.7448 32.963 92.5749C33.4669 92.4051 33.9078 92.1928 34.3068 91.9805C35.1046 91.5135 35.6925 90.9403 36.0704 90.3246C35.0836 90.0698 33.9918 89.8788 32.8791 89.7939C32.6061 89.7726 32.3122 89.7514 32.0392 89.7514C31.8923 89.7514 31.7453 89.7514 31.6193 89.7514C31.4724 89.7514 31.3254 89.7514 31.1994 89.7514C30.9055 89.7514 30.6325 89.7514 30.3386 89.7726C30.0447 89.7939 29.7717 89.7939 29.4778 89.8363C27.1683 90.0486 25.3207 90.6643 24.2709 91.6833C25.2997 92.214 26.4754 92.6386 27.6932 92.8509C28.8899 93.0844 30.1496 93.1269 31.3254 92.9571Z" fill="#269FF7"/>
<path d="M28.47 80.6864C28.8479 81.6205 29.0999 82.5333 29.2258 83.3825C29.2888 83.8071 29.3098 84.2105 29.3098 84.6138C29.2888 84.996 29.2468 85.3781 29.1628 85.7178C28.344 85.2083 27.5462 84.5501 26.8953 83.7434C26.7274 83.5524 26.5594 83.3401 26.4124 83.1278C26.2655 82.9155 26.1185 82.6819 25.9925 82.4696C25.7406 82.0026 25.5096 81.5355 25.3207 81.0473C25.2367 80.7925 25.1527 80.559 25.0897 80.3255C25.0267 80.0919 24.9847 79.8372 24.9427 79.6249C24.9007 79.3913 24.8797 79.1578 24.8588 78.9455C24.8378 78.712 24.8378 78.4997 24.8588 78.2874C24.8797 77.4382 25.0897 76.6952 25.4256 76.0795C26.6224 77.2047 27.7141 78.8181 28.47 80.6864Z" fill="url(#paint23_linear_1_1404)"/>
<path d="M28.47 80.6864C28.8479 81.6205 29.0999 82.5333 29.2258 83.3825C29.2888 83.8071 29.3098 84.2105 29.3098 84.6138C29.2888 84.996 29.2468 85.3781 29.1628 85.7178C28.344 85.2083 27.5462 84.5501 26.8953 83.7434C26.7274 83.5524 26.5594 83.3401 26.4124 83.1278C26.2655 82.9155 26.1185 82.6819 25.9925 82.4696C25.7406 82.0026 25.5096 81.5355 25.3207 81.0473C25.2367 80.7925 25.1527 80.559 25.0897 80.3255C25.0267 80.0919 24.9847 79.8372 24.9427 79.6249C24.9007 79.3913 24.8797 79.1578 24.8588 78.9455C24.8378 78.712 24.8378 78.4997 24.8588 78.2874C24.8797 77.4382 25.0897 76.6952 25.4256 76.0795C26.6224 77.2047 27.7141 78.8181 28.47 80.6864Z" fill="#269FF7"/>
<path d="M23.4101 88.7324C24.5858 88.7961 25.5936 88.6475 26.4544 88.3502C26.8743 88.2016 27.2522 88.0106 27.5882 87.8195C27.9241 87.6072 28.197 87.3737 28.449 87.0977C27.5462 86.6731 26.5384 86.3122 25.4886 86.015C25.2157 85.9513 24.9637 85.8876 24.6908 85.8239C24.4178 85.7602 24.1449 85.6965 23.872 85.6541C23.3261 85.5479 22.7592 85.4842 22.1923 85.4206C21.9194 85.3993 21.6254 85.3781 21.3735 85.3569C21.1005 85.3356 20.8486 85.3356 20.5967 85.3356C20.3447 85.3356 20.0928 85.3569 19.8408 85.3781C19.6099 85.3993 19.3579 85.4206 19.148 85.463C18.2451 85.6116 17.4893 85.8664 16.9014 86.2485C18.6651 87.6497 21.0795 88.605 23.4101 88.7324Z" fill="url(#paint24_linear_1_1404)"/>
<path d="M23.4101 88.7324C24.5858 88.7961 25.5936 88.6475 26.4544 88.3502C26.8743 88.2016 27.2522 88.0106 27.5882 87.8195C27.9241 87.6072 28.197 87.3737 28.449 87.0977C27.5462 86.6731 26.5384 86.3122 25.4886 86.015C25.2157 85.9513 24.9637 85.8876 24.6908 85.8239C24.4178 85.7602 24.1449 85.6965 23.872 85.6541C23.3261 85.5479 22.7592 85.4842 22.1923 85.4206C21.9194 85.3993 21.6254 85.3781 21.3735 85.3569C21.1005 85.3356 20.8486 85.3356 20.5967 85.3356C20.3447 85.3356 20.0928 85.3569 19.8408 85.3781C19.6099 85.3993 19.3579 85.4206 19.148 85.463C18.2451 85.6116 17.4893 85.8664 16.9014 86.2485C18.6651 87.6497 21.0795 88.605 23.4101 88.7324Z" fill="#269FF7"/>
<path d="M22.6962 76.3131C22.7382 76.5466 22.7802 76.8013 22.8222 77.0349C22.8642 77.2684 22.8852 77.5019 22.9062 77.7354C22.9272 77.969 22.9482 78.1813 22.9482 78.4148C22.9482 78.6271 22.9482 78.8394 22.9482 79.0517C22.9062 79.9009 22.7592 80.6439 22.4653 81.2596C21.0586 80.007 19.9458 78.0751 19.6099 76.0795C19.5259 75.57 19.4839 75.103 19.5049 74.6359C19.5259 74.1689 19.5679 73.7443 19.6518 73.3409C19.8408 72.5342 20.1557 71.8548 20.5757 71.3241C21.5415 72.6403 22.2973 74.3812 22.6962 76.3131Z" fill="url(#paint25_linear_1_1404)"/>
<path d="M22.6962 76.3131C22.7382 76.5466 22.7802 76.8013 22.8222 77.0349C22.8642 77.2684 22.8852 77.5019 22.9062 77.7354C22.9272 77.969 22.9482 78.1813 22.9482 78.4148C22.9482 78.6271 22.9482 78.8394 22.9482 79.0517C22.9062 79.9009 22.7592 80.6439 22.4653 81.2596C21.0586 80.007 19.9458 78.0751 19.6099 76.0795C19.5259 75.57 19.4839 75.103 19.5049 74.6359C19.5259 74.1689 19.5679 73.7443 19.6518 73.3409C19.8408 72.5342 20.1557 71.8548 20.5757 71.3241C21.5415 72.6403 22.2973 74.3812 22.6962 76.3131Z" fill="#269FF7"/>
<path d="M16.4185 83.1065C16.6915 83.1702 16.9644 83.2339 17.2164 83.2764C17.4893 83.3188 17.7413 83.3401 17.9932 83.3613C18.2451 83.3825 18.4761 83.3825 18.707 83.3613C18.938 83.3401 19.169 83.3188 19.3789 83.2976C20.2397 83.1702 20.9536 82.873 21.4995 82.4696C19.9248 81.3232 17.9512 80.3255 15.8097 79.7098C15.2848 79.5612 14.7599 79.4338 14.277 79.3489C13.7941 79.264 13.3112 79.2215 12.8703 79.2003C11.9885 79.1791 11.1906 79.2852 10.5818 79.5612C12.0725 81.2171 14.214 82.5758 16.4185 83.1065Z" fill="url(#paint26_linear_1_1404)"/>
<path d="M16.4185 83.1065C16.6915 83.1702 16.9644 83.2339 17.2164 83.2764C17.4893 83.3188 17.7413 83.3401 17.9932 83.3613C18.2451 83.3825 18.4761 83.3825 18.707 83.3613C18.938 83.3401 19.169 83.3188 19.3789 83.2976C20.2397 83.1702 20.9536 82.873 21.4995 82.4696C19.9248 81.3232 17.9512 80.3255 15.8097 79.7098C15.2848 79.5612 14.7599 79.4338 14.277 79.3489C13.7941 79.264 13.3112 79.2215 12.8703 79.2003C11.9885 79.1791 11.1906 79.2852 10.5818 79.5612C12.0725 81.2171 14.214 82.5758 16.4185 83.1065Z" fill="#269FF7"/>
<path d="M17.8252 70.9207C17.8462 71.8761 17.7622 72.7889 17.5943 73.5744C17.5103 73.9778 17.3843 74.3387 17.2374 74.6784C17.0904 75.018 16.9224 75.3365 16.7335 75.5912C16.5865 75.4002 16.4605 75.2091 16.3346 75.018C16.2086 74.827 16.0826 74.6147 15.9776 74.4024C15.9146 74.2962 15.8726 74.1901 15.8097 74.0839C15.7677 73.9778 15.7047 73.8716 15.6627 73.7443C15.5577 73.5107 15.4737 73.2985 15.3898 73.0649C15.2428 72.5979 15.1168 72.1096 15.0328 71.6213C14.9908 71.3666 14.9698 71.133 14.9488 70.8783C14.9278 70.6235 14.9278 70.3688 14.9278 70.1352C14.9278 70.0079 14.9278 69.8805 14.9488 69.7743C14.9488 69.647 14.9698 69.5408 14.9698 69.4134C14.9908 69.1799 15.0328 68.9464 15.0748 68.7341C15.1588 68.2883 15.2848 67.8849 15.4527 67.524C15.5997 67.1631 15.7887 66.8234 15.9986 66.5262C16.2086 66.229 16.4395 65.9742 16.6915 65.7619C16.7755 65.953 16.8594 66.1228 16.9434 66.3351C17.0274 66.5262 17.0904 66.7173 17.1534 66.9296C17.1954 67.0357 17.2164 67.1419 17.2584 67.248C17.3003 67.3542 17.3213 67.4603 17.3423 67.5665C17.4053 67.7787 17.4473 67.991 17.5103 68.2033C17.6153 68.6279 17.6783 69.095 17.7413 69.562C17.7622 69.7956 17.7832 70.0291 17.8042 70.2626C17.8042 70.4325 17.8042 70.6872 17.8252 70.9207Z" fill="url(#paint27_linear_1_1404)"/>
<path d="M17.8252 70.9207C17.8462 71.8761 17.7622 72.7889 17.5943 73.5744C17.5103 73.9778 17.3843 74.3387 17.2374 74.6784C17.0904 75.018 16.9224 75.3365 16.7335 75.5912C16.5865 75.4002 16.4605 75.2091 16.3346 75.018C16.2086 74.827 16.0826 74.6147 15.9776 74.4024C15.9146 74.2962 15.8726 74.1901 15.8097 74.0839C15.7677 73.9778 15.7047 73.8716 15.6627 73.7443C15.5577 73.5107 15.4737 73.2985 15.3898 73.0649C15.2428 72.5979 15.1168 72.1096 15.0328 71.6213C14.9908 71.3666 14.9698 71.133 14.9488 70.8783C14.9278 70.6235 14.9278 70.3688 14.9278 70.1352C14.9278 70.0079 14.9278 69.8805 14.9488 69.7743C14.9488 69.647 14.9698 69.5408 14.9698 69.4134C14.9908 69.1799 15.0328 68.9464 15.0748 68.7341C15.1588 68.2883 15.2848 67.8849 15.4527 67.524C15.5997 67.1631 15.7887 66.8234 15.9986 66.5262C16.2086 66.229 16.4395 65.9742 16.6915 65.7619C16.7755 65.953 16.8594 66.1228 16.9434 66.3351C17.0274 66.5262 17.0904 66.7173 17.1534 66.9296C17.1954 67.0357 17.2164 67.1419 17.2584 67.248C17.3003 67.3542 17.3213 67.4603 17.3423 67.5665C17.4053 67.7787 17.4473 67.991 17.5103 68.2033C17.6153 68.6279 17.6783 69.095 17.7413 69.562C17.7622 69.7956 17.7832 70.0291 17.8042 70.2626C17.8042 70.4325 17.8042 70.6872 17.8252 70.9207Z" fill="#269FF7"/>
<path d="M10.5818 76.2918C11.5896 76.7376 12.5553 76.9712 13.3952 76.9924C13.8151 77.0136 14.214 76.9712 14.5709 76.9075C14.9278 76.8438 15.2638 76.7164 15.5577 76.5678C15.3897 76.398 15.2218 76.2281 15.0538 76.0583C14.8859 75.8885 14.6969 75.7186 14.5079 75.5488C14.424 75.4639 14.319 75.379 14.214 75.294C14.109 75.2091 14.025 75.1242 13.9201 75.0393C13.7311 74.8694 13.5211 74.7208 13.3112 74.5722C12.8913 74.2538 12.4504 73.9566 12.0095 73.6806C11.7785 73.532 11.5476 73.4046 11.3166 73.2772C11.0857 73.1498 10.8547 73.0225 10.6028 72.8951C10.4768 72.8314 10.3718 72.7889 10.2458 72.7252C10.1199 72.6616 10.0149 72.6191 9.88891 72.5554C9.65796 72.4493 9.42701 72.3643 9.19606 72.2794C8.73416 72.1096 8.31424 71.9822 7.87334 71.8973C7.45343 71.8124 7.05451 71.7487 6.67659 71.7487C6.29867 71.7275 5.94175 71.7699 5.62681 71.8548C5.77378 72.0884 5.92075 72.3219 6.06772 72.5342C6.23568 72.7677 6.40365 72.98 6.57161 73.1923C6.65559 73.2984 6.76057 73.4046 6.84455 73.5107C6.92854 73.6169 7.03351 73.723 7.13849 73.8292C7.32745 74.0415 7.53741 74.2326 7.74736 74.4236C8.16728 74.8058 8.60818 75.1667 9.09108 75.4639C9.32203 75.6125 9.57398 75.7611 9.80493 75.9097C10.0779 76.0583 10.3298 76.1857 10.5818 76.2918Z" fill="url(#paint28_linear_1_1404)"/>
<path d="M10.5818 76.2918C11.5896 76.7376 12.5553 76.9712 13.3952 76.9924C13.8151 77.0136 14.214 76.9712 14.5709 76.9075C14.9278 76.8438 15.2638 76.7164 15.5577 76.5678C15.3897 76.398 15.2218 76.2281 15.0538 76.0583C14.8859 75.8885 14.6969 75.7186 14.5079 75.5488C14.424 75.4639 14.319 75.379 14.214 75.294C14.109 75.2091 14.025 75.1242 13.9201 75.0393C13.7311 74.8694 13.5211 74.7208 13.3112 74.5722C12.8913 74.2538 12.4504 73.9566 12.0095 73.6806C11.7785 73.532 11.5476 73.4046 11.3166 73.2772C11.0857 73.1498 10.8547 73.0225 10.6028 72.8951C10.4768 72.8314 10.3718 72.7889 10.2458 72.7252C10.1199 72.6616 10.0149 72.6191 9.88891 72.5554C9.65796 72.4493 9.42701 72.3643 9.19606 72.2794C8.73416 72.1096 8.31424 71.9822 7.87334 71.8973C7.45343 71.8124 7.05451 71.7487 6.67659 71.7487C6.29867 71.7275 5.94175 71.7699 5.62681 71.8548C5.77378 72.0884 5.92075 72.3219 6.06772 72.5342C6.23568 72.7677 6.40365 72.98 6.57161 73.1923C6.65559 73.2984 6.76057 73.4046 6.84455 73.5107C6.92854 73.6169 7.03351 73.723 7.13849 73.8292C7.32745 74.0415 7.53741 74.2326 7.74736 74.4236C8.16728 74.8058 8.60818 75.1667 9.09108 75.4639C9.32203 75.6125 9.57398 75.7611 9.80493 75.9097C10.0779 76.0583 10.3298 76.1857 10.5818 76.2918Z" fill="#269FF7"/>
<path d="M13.983 64.7005C13.9201 65.1675 13.8151 65.6133 13.6891 66.0167C13.5841 66.4413 13.4372 66.8234 13.2692 67.1843C12.9543 67.9061 12.5553 68.5218 12.0934 68.9676C11.2956 67.3542 10.9597 65.2949 11.3376 63.3842C11.4426 62.9172 11.5686 62.4713 11.7155 62.068C11.8835 61.6646 12.0515 61.3037 12.2824 60.964C12.7023 60.3059 13.2272 59.8176 13.7731 59.4992C14.193 61.0277 14.277 62.8322 13.983 64.7005Z" fill="url(#paint29_linear_1_1404)"/>
<path d="M13.983 64.7005C13.9201 65.1675 13.8151 65.6133 13.6891 66.0167C13.5841 66.4413 13.4372 66.8234 13.2692 67.1843C12.9543 67.9061 12.5553 68.5218 12.0934 68.9676C11.2956 67.3542 10.9597 65.2949 11.3376 63.3842C11.4426 62.9172 11.5686 62.4713 11.7155 62.068C11.8835 61.6646 12.0515 61.3037 12.2824 60.964C12.7023 60.3059 13.2272 59.8176 13.7731 59.4992C14.193 61.0277 14.277 62.8322 13.983 64.7005Z" fill="#269FF7"/>
<path d="M6.08871 68.543C6.52962 68.8402 6.97053 69.095 7.39044 69.3073C7.83135 69.4983 8.25126 69.647 8.65017 69.7319C9.448 69.9229 10.1828 69.9017 10.8127 69.7319C9.82592 68.1609 8.39823 66.6111 6.73958 65.3373C5.08093 64.0848 3.46427 63.3842 2.16254 63.4267C2.89739 65.401 4.32509 67.3117 6.08871 68.543Z" fill="url(#paint30_linear_1_1404)"/>
<path d="M6.08871 68.543C6.52962 68.8402 6.97053 69.095 7.39044 69.3073C7.83135 69.4983 8.25126 69.647 8.65017 69.7319C9.448 69.9229 10.1828 69.9017 10.8127 69.7319C9.82592 68.1609 8.39823 66.6111 6.73958 65.3373C5.08093 64.0848 3.46427 63.3842 2.16254 63.4267C2.89739 65.401 4.32509 67.3117 6.08871 68.543Z" fill="#269FF7"/>
<path d="M11.3586 57.8433C10.7497 59.5629 9.84692 60.9004 8.79714 61.6009C8.31424 59.9238 8.37723 57.8857 9.07008 56.1237C9.42701 55.2533 9.88891 54.5315 10.4138 53.9795C10.9387 53.4275 11.5056 53.0454 12.0934 52.8331C12.1564 53.5974 12.1354 54.4253 12.0095 55.2745C11.8835 56.1237 11.6525 56.9941 11.3586 57.8433Z" fill="url(#paint31_linear_1_1404)"/>
<path d="M11.3586 57.8433C10.7497 59.5629 9.84692 60.9004 8.79714 61.6009C8.31424 59.9238 8.37723 57.8857 9.07008 56.1237C9.42701 55.2533 9.88891 54.5315 10.4138 53.9795C10.9387 53.4275 11.5056 53.0454 12.0934 52.8331C12.1564 53.5974 12.1354 54.4253 12.0095 55.2745C11.8835 56.1237 11.6525 56.9941 11.3586 57.8433Z" fill="#269FF7"/>
<path d="M3.10734 60.0936C3.2963 60.2847 3.48526 60.4545 3.65323 60.6031C3.84219 60.773 4.03115 60.9004 4.22011 61.049C4.59803 61.3249 4.95495 61.5372 5.33287 61.6858C6.06772 62.0043 6.76057 62.1317 7.39044 62.0892C6.71858 60.4121 5.64781 58.65 4.2831 57.1427C3.59024 56.3997 2.89739 55.784 2.22553 55.3382C1.53268 54.8924 0.881814 54.5952 0.251947 54.5102C0.419911 55.508 0.776836 56.5271 1.25973 57.4824C1.74263 58.4377 2.3725 59.3294 3.10734 60.0936Z" fill="url(#paint32_linear_1_1404)"/>
<path d="M3.10734 60.0936C3.2963 60.2847 3.48526 60.4545 3.65323 60.6031C3.84219 60.773 4.03115 60.9004 4.22011 61.049C4.59803 61.3249 4.95495 61.5372 5.33287 61.6858C6.06772 62.0043 6.76057 62.1317 7.39044 62.0892C6.71858 60.4121 5.64781 58.65 4.2831 57.1427C3.59024 56.3997 2.89739 55.784 2.22553 55.3382C1.53268 54.8924 0.881814 54.5952 0.251947 54.5102C0.419911 55.508 0.776836 56.5271 1.25973 57.4824C1.74263 58.4377 2.3725 59.3294 3.10734 60.0936Z" fill="#269FF7"/>
<path d="M10.0149 50.604C9.80493 50.9861 9.55298 51.347 9.30104 51.6655C9.04909 51.9839 8.79714 52.2811 8.5452 52.5571C8.27225 52.8119 8.02031 53.0454 7.74736 53.2577C7.47442 53.4488 7.20148 53.6186 6.90754 53.7247C6.76057 52.0264 7.15949 50.0945 8.14628 48.5447C8.39823 48.1626 8.65017 47.8017 8.92312 47.5045C9.19606 47.2073 9.49 46.9525 9.78393 46.719C10.3718 46.2944 10.9807 46.0184 11.5896 45.9122C11.5896 45.9547 11.5686 45.9972 11.5686 46.0609C11.5686 46.1033 11.5686 46.1458 11.5476 46.2095C11.5266 46.2944 11.5266 46.4005 11.5056 46.4854C11.4846 46.6765 11.4426 46.8676 11.4006 47.0586C11.3586 47.2497 11.2956 47.4408 11.2536 47.6531C11.2116 47.8441 11.1486 48.0564 11.0857 48.2475C11.0437 48.3536 11.0227 48.4386 10.9807 48.5447C10.9387 48.6509 10.9177 48.7358 10.8757 48.8419C10.7917 49.033 10.7077 49.2453 10.6238 49.4364C10.4558 49.8185 10.2458 50.2219 10.0149 50.604Z" fill="url(#paint33_linear_1_1404)"/>
<path d="M10.0149 50.604C9.80493 50.9861 9.55298 51.347 9.30104 51.6655C9.04909 51.9839 8.79714 52.2811 8.5452 52.5571C8.27225 52.8119 8.02031 53.0454 7.74736 53.2577C7.47442 53.4488 7.20148 53.6186 6.90754 53.7247C6.76057 52.0264 7.15949 50.0945 8.14628 48.5447C8.39823 48.1626 8.65017 47.8017 8.92312 47.5045C9.19606 47.2073 9.49 46.9525 9.78393 46.719C10.3718 46.2944 10.9807 46.0184 11.5896 45.9122C11.5896 45.9547 11.5686 45.9972 11.5686 46.0609C11.5686 46.1033 11.5686 46.1458 11.5476 46.2095C11.5266 46.2944 11.5266 46.4005 11.5056 46.4854C11.4846 46.6765 11.4426 46.8676 11.4006 47.0586C11.3586 47.2497 11.2956 47.4408 11.2536 47.6531C11.2116 47.8441 11.1486 48.0564 11.0857 48.2475C11.0437 48.3536 11.0227 48.4386 10.9807 48.5447C10.9387 48.6509 10.9177 48.7358 10.8757 48.8419C10.7917 49.033 10.7077 49.2453 10.6238 49.4364C10.4558 49.8185 10.2458 50.2219 10.0149 50.604Z" fill="#269FF7"/>
<path d="M1.72164 51.2409C2.01557 51.6655 2.30951 52.0264 2.62445 52.3448C2.93938 52.6633 3.25431 52.9392 3.56925 53.1515C3.88418 53.3638 4.22011 53.5549 4.53504 53.6823C4.84998 53.8097 5.16491 53.8946 5.45885 53.9158C5.12292 52.1962 4.40907 50.328 3.38029 48.6509C3.12834 48.2263 2.8554 47.8441 2.58245 47.5045C2.30951 47.1648 2.03657 46.8463 1.74263 46.5704C1.17575 46.0184 0.56688 45.6363 0 45.4452C0 45.5089 0 45.5726 0 45.6363C0 45.6999 0 45.7636 0 45.8273C0 45.9547 0.0209956 46.0821 0.0209956 46.2095C0.0419911 46.4642 0.0629867 46.719 0.104978 46.9737C0.146969 47.2285 0.18896 47.4832 0.230951 47.738C0.293938 47.9927 0.356925 48.2475 0.419911 48.481C0.461902 48.6084 0.503894 48.7358 0.524889 48.8632C0.56688 48.9905 0.608871 49.1179 0.650863 49.2241C0.734845 49.4576 0.839823 49.7123 0.9448 49.9459C1.19675 50.3705 1.44869 50.8163 1.72164 51.2409Z" fill="url(#paint34_linear_1_1404)"/>
<path d="M1.72164 51.2409C2.01557 51.6655 2.30951 52.0264 2.62445 52.3448C2.93938 52.6633 3.25431 52.9392 3.56925 53.1515C3.88418 53.3638 4.22011 53.5549 4.53504 53.6823C4.84998 53.8097 5.16491 53.8946 5.45885 53.9158C5.12292 52.1962 4.40907 50.328 3.38029 48.6509C3.12834 48.2263 2.8554 47.8441 2.58245 47.5045C2.30951 47.1648 2.03657 46.8463 1.74263 46.5704C1.17575 46.0184 0.56688 45.6363 0 45.4452C0 45.5089 0 45.5726 0 45.6363C0 45.6999 0 45.7636 0 45.8273C0 45.9547 0.0209956 46.0821 0.0209956 46.2095C0.0419911 46.4642 0.0629867 46.719 0.104978 46.9737C0.146969 47.2285 0.18896 47.4832 0.230951 47.738C0.293938 47.9927 0.356925 48.2475 0.419911 48.481C0.461902 48.6084 0.503894 48.7358 0.524889 48.8632C0.56688 48.9905 0.608871 49.1179 0.650863 49.2241C0.734845 49.4576 0.839823 49.7123 0.9448 49.9459C1.19675 50.3705 1.44869 50.8163 1.72164 51.2409Z" fill="#269FF7"/>
<path d="M10.0359 43.1949C8.92312 44.4899 7.68438 45.3815 6.52962 45.615C6.67659 43.9591 7.43243 42.1971 8.60818 40.9021C9.21705 40.2439 9.84692 39.7769 10.4978 39.4584C11.1486 39.14 11.7785 39.0126 12.3454 39.0126C11.9465 40.4138 11.1696 41.8998 10.0359 43.1949Z" fill="url(#paint35_linear_1_1404)"/>
<path d="M10.0359 43.1949C8.92312 44.4899 7.68438 45.3815 6.52962 45.615C6.67659 43.9591 7.43243 42.1971 8.60818 40.9021C9.21705 40.2439 9.84692 39.7769 10.4978 39.4584C11.1486 39.14 11.7785 39.0126 12.3454 39.0126C11.9465 40.4138 11.1696 41.8998 10.0359 43.1949Z" fill="#269FF7"/>
<path d="M1.97358 42.3244C2.77141 44.129 3.94717 45.2117 5.05993 45.5513C5.03894 43.853 4.70301 41.9423 3.98916 40.159C3.65323 39.2674 3.21232 38.5031 2.77141 37.8662C2.33051 37.2506 1.82661 36.7623 1.30173 36.4863C0.986792 38.3545 1.19675 40.5199 1.97358 42.3244Z" fill="url(#paint36_linear_1_1404)"/>
<path d="M1.97358 42.3244C2.77141 44.129 3.94717 45.2117 5.05993 45.5513C5.03894 43.853 4.70301 41.9423 3.98916 40.159C3.65323 39.2674 3.21232 38.5031 2.77141 37.8662C2.33051 37.2506 1.82661 36.7623 1.30173 36.4863C0.986792 38.3545 1.19675 40.5199 1.97358 42.3244Z" fill="#269FF7"/>
<path d="M11.3796 35.9131C10.7287 36.4438 10.0569 36.8472 9.42701 37.1232C8.79714 37.3992 8.16727 37.569 7.60039 37.569C8.0413 36.0192 9.07008 34.4907 10.4348 33.4505C11.7995 32.4102 13.2272 32.113 14.34 32.3253C13.7101 33.5991 12.7023 34.8728 11.3796 35.9131Z" fill="url(#paint37_linear_1_1404)"/>
<path d="M11.3796 35.9131C10.7287 36.4438 10.0569 36.8472 9.42701 37.1232C8.79714 37.3992 8.16727 37.569 7.60039 37.569C8.0413 36.0192 9.07008 34.4907 10.4348 33.4505C11.7995 32.4102 13.2272 32.113 14.34 32.3253C13.7101 33.5991 12.7023 34.8728 11.3796 35.9131Z" fill="#269FF7"/>
<path d="M3.84219 33.5991C4.07314 34.5332 4.38807 35.2974 4.80798 35.9131C5.2279 36.5288 5.71079 36.9746 6.21469 37.2293C6.50863 35.5947 6.52962 33.7264 6.1517 31.9007C5.79478 30.075 5.14391 28.6526 4.2411 27.9308C3.59024 29.6504 3.42228 31.7521 3.84219 33.5991Z" fill="url(#paint38_linear_1_1404)"/>
<path d="M3.84219 33.5991C4.07314 34.5332 4.38807 35.2974 4.80798 35.9131C5.2279 36.5288 5.71079 36.9746 6.21469 37.2293C6.50863 35.5947 6.52962 33.7264 6.1517 31.9007C5.79478 30.075 5.14391 28.6526 4.2411 27.9308C3.59024 29.6504 3.42228 31.7521 3.84219 33.5991Z" fill="#269FF7"/>
<path d="M11.5896 28.1855C11.4636 28.419 11.3586 28.6526 11.2326 28.8649C11.1696 28.971 11.1067 29.0772 11.0437 29.1833C10.9807 29.2895 10.9177 29.3956 10.8547 29.5018C10.6028 29.9263 10.3298 30.3085 10.0569 30.6906C9.78393 31.0727 9.49 31.4124 9.21705 31.7096C8.94411 32.0281 8.65017 32.3041 8.33524 32.5588C8.27225 32.1767 8.23026 31.7521 8.23026 31.3275C8.23026 30.8817 8.29325 30.4359 8.35624 29.9476C8.41922 29.4593 8.56619 28.9922 8.71316 28.4827C8.75515 28.3554 8.79714 28.228 8.83913 28.1006C8.88113 27.9732 8.92312 27.8458 8.9861 27.7397C9.09108 27.4849 9.19606 27.2514 9.32203 26.9967C9.38502 26.8693 9.44801 26.7419 9.51099 26.6358C9.57398 26.5084 9.63697 26.4022 9.72095 26.2749C9.86792 26.0413 10.0149 25.829 10.1619 25.6167C10.3088 25.4044 10.4558 25.1921 10.6238 25.0011C10.7917 24.81 10.9597 24.6189 11.1067 24.4491C11.2746 24.2793 11.4426 24.1094 11.6105 23.9608C11.7785 23.8122 11.9675 23.6636 12.1354 23.5362C12.4924 23.2815 12.8283 23.0692 13.1852 22.8781C13.1642 23.2602 13.1012 23.6848 13.0173 24.0882C12.9753 24.3005 12.9123 24.5128 12.8703 24.7251C12.8283 24.9374 12.7653 25.1709 12.6813 25.3832C12.6183 25.5955 12.5344 25.829 12.4504 26.0413C12.3664 26.2749 12.2824 26.4871 12.1984 26.7207C12.1144 26.9542 12.0095 27.1877 11.9045 27.4C11.8415 27.5062 11.7995 27.6335 11.7365 27.7397C11.7155 27.952 11.6525 28.0581 11.5896 28.1855Z" fill="url(#paint39_linear_1_1404)"/>
<path d="M11.5896 28.1855C11.4636 28.419 11.3586 28.6526 11.2326 28.8649C11.1696 28.971 11.1067 29.0772 11.0437 29.1833C10.9807 29.2895 10.9177 29.3956 10.8547 29.5018C10.6028 29.9263 10.3298 30.3085 10.0569 30.6906C9.78393 31.0727 9.49 31.4124 9.21705 31.7096C8.94411 32.0281 8.65017 32.3041 8.33524 32.5588C8.27225 32.1767 8.23026 31.7521 8.23026 31.3275C8.23026 30.8817 8.29325 30.4359 8.35624 29.9476C8.41922 29.4593 8.56619 28.9922 8.71316 28.4827C8.75515 28.3554 8.79714 28.228 8.83913 28.1006C8.88113 27.9732 8.92312 27.8458 8.9861 27.7397C9.09108 27.4849 9.19606 27.2514 9.32203 26.9967C9.38502 26.8693 9.44801 26.7419 9.51099 26.6358C9.57398 26.5084 9.63697 26.4022 9.72095 26.2749C9.86792 26.0413 10.0149 25.829 10.1619 25.6167C10.3088 25.4044 10.4558 25.1921 10.6238 25.0011C10.7917 24.81 10.9597 24.6189 11.1067 24.4491C11.2746 24.2793 11.4426 24.1094 11.6105 23.9608C11.7785 23.8122 11.9675 23.6636 12.1354 23.5362C12.4924 23.2815 12.8283 23.0692 13.1852 22.8781C13.1642 23.2602 13.1012 23.6848 13.0173 24.0882C12.9753 24.3005 12.9123 24.5128 12.8703 24.7251C12.8283 24.9374 12.7653 25.1709 12.6813 25.3832C12.6183 25.5955 12.5344 25.829 12.4504 26.0413C12.3664 26.2749 12.2824 26.4871 12.1984 26.7207C12.1144 26.9542 12.0095 27.1877 11.9045 27.4C11.8415 27.5062 11.7995 27.6335 11.7365 27.7397C11.7155 27.952 11.6525 28.0581 11.5896 28.1855Z" fill="#269FF7"/>
<path d="M49.2766 94.3795L44.1957 91.1738L49.2766 87.9469L54.3785 91.1738L49.2766 94.3795Z" fill="url(#paint40_linear_1_1404)"/>
<path d="M49.2766 94.3795L44.1957 91.1738L49.2766 87.9469L54.3785 91.1738L49.2766 94.3795Z" fill="#269FF7"/>
<path d="M23.9572 9.04863L19.7251 11.5464L20.5499 13.0354L21.8364 12.2623C22.9705 11.5882 24.0789 11.3545 25.1169 11.563C26.1549 11.7715 26.9632 12.3599 27.4982 13.3532C28.0545 14.3225 28.1429 15.3356 27.8081 16.3904C27.4723 17.4221 26.7266 18.287 25.5701 18.962L22.06 21.0813L16.5075 11.1104L22.9632 7.26658L23.9572 9.04863ZM21.5672 14.8396L23.313 17.9752L24.5995 17.202C25.0787 16.9036 25.3977 16.5197 25.4895 16.0534C25.6035 15.5862 25.5167 15.1277 25.2735 14.6762C25.0313 14.2478 24.6835 13.9626 24.2523 13.8198C23.7988 13.678 23.3329 13.7679 22.8527 14.0433L21.5672 14.8396Z" fill="black"/>
<path d="M23.9572 9.04863L19.7251 11.5464L20.5499 13.0354L21.8364 12.2623C22.9705 11.5882 24.0789 11.3545 25.1169 11.563C26.1549 11.7715 26.9632 12.3599 27.4982 13.3532C28.0545 14.3225 28.1429 15.3356 27.8081 16.3904C27.4723 17.4221 26.7266 18.287 25.5701 18.962L22.06 21.0813L16.5075 11.1104L22.9632 7.26658L23.9572 9.04863ZM21.5672 14.8396L23.313 17.9752L24.5995 17.202C25.0787 16.9036 25.3977 16.5197 25.4895 16.0534C25.6035 15.5862 25.5167 15.1277 25.2735 14.6762C25.0313 14.2478 24.6835 13.9626 24.2523 13.8198C23.7988 13.678 23.3329 13.7679 22.8527 14.0433L21.5672 14.8396Z" fill="#269FF7"/>
<path d="M40.7795 8.53828C41.0848 9.91156 40.9366 11.143 40.2912 12.2578C39.6448 13.3494 38.6465 14.0637 37.2965 14.4005C35.9242 14.7383 34.7085 14.5608 33.6497 13.8679C32.5908 13.175 31.8975 12.1424 31.5923 10.7691L31.1252 8.7558C30.8199 7.38252 30.9682 6.15104 31.6136 5.03632C32.26 3.94467 33.2572 3.20735 34.6305 2.89259C35.9806 2.55573 37.1962 2.73328 38.2551 3.42619C39.3139 4.11911 40.0072 5.15172 40.3125 6.525L40.7795 8.53828ZM37.8104 7.12064C37.6193 6.32013 37.3022 5.71008 36.8144 5.29245C36.3266 4.87481 35.7615 4.73794 35.0976 4.90587C34.4114 5.07479 33.9575 5.44148 33.7154 6.05307C33.4724 6.64159 33.4362 7.35966 33.6273 8.16016L34.0954 10.1965C34.2865 10.997 34.6046 11.6301 35.0923 12.0478C35.5801 12.4654 36.1452 12.6023 36.8314 12.4334C37.4953 12.2654 37.9492 11.8987 38.1913 11.2872C38.4344 10.6986 38.4705 9.98056 38.2794 9.18006L37.8104 7.12064Z" fill="black"/>
<path d="M40.7795 8.53828C41.0848 9.91156 40.9366 11.143 40.2912 12.2578C39.6448 13.3494 38.6465 14.0637 37.2965 14.4005C35.9242 14.7383 34.7085 14.5608 33.6497 13.8679C32.5908 13.175 31.8975 12.1424 31.5923 10.7691L31.1252 8.7558C30.8199 7.38252 30.9682 6.15104 31.6136 5.03632C32.26 3.94467 33.2572 3.20735 34.6305 2.89259C35.9806 2.55573 37.1962 2.73328 38.2551 3.42619C39.3139 4.11911 40.0072 5.15172 40.3125 6.525L40.7795 8.53828ZM37.8104 7.12064C37.6193 6.32013 37.3022 5.71008 36.8144 5.29245C36.3266 4.87481 35.7615 4.73794 35.0976 4.90587C34.4114 5.07479 33.9575 5.44148 33.7154 6.05307C33.4724 6.64159 33.4362 7.35966 33.6273 8.16016L34.0954 10.1965C34.2865 10.997 34.6046 11.6301 35.0923 12.0478C35.5801 12.4654 36.1452 12.6023 36.8314 12.4334C37.4953 12.2654 37.9492 11.8987 38.1913 11.2872C38.4344 10.6986 38.4705 9.98056 38.2794 9.18006L37.8104 7.12064Z" fill="#269FF7"/>
<path d="M55.5309 2.0176L54.7951 13.4906L52.2369 13.3029L52.8379 3.89282L50.1 3.68993L49.8964 6.74971C49.7492 9.0443 49.282 10.6596 48.516 11.5717C47.75 12.4837 46.6496 12.902 45.236 12.8025L44.9447 12.7922L45.0805 10.7524L45.3717 10.7627C46.0669 10.8014 46.5258 10.55 46.7699 9.98455C47.0139 9.4191 47.1885 8.27891 47.2935 6.56398L47.6329 1.46434L55.5309 2.0176Z" fill="black"/>
<path d="M55.5309 2.0176L54.7951 13.4906L52.2369 13.3029L52.8379 3.89282L50.1 3.68993L49.8964 6.74971C49.7492 9.0443 49.282 10.6596 48.516 11.5717C47.75 12.4837 46.6496 12.902 45.236 12.8025L44.9447 12.7922L45.0805 10.7524L45.3717 10.7627C46.0669 10.8014 46.5258 10.55 46.7699 9.98455C47.0139 9.4191 47.1885 8.27891 47.2935 6.56398L47.6329 1.46434L55.5309 2.0176Z" fill="#269FF7"/>
<path d="M66.5987 12.2769L62.9141 10.8677L61.9558 13.5447L66.3678 15.2224L65.6902 17.1474L58.8444 14.537L62.6748 3.7597L69.5206 6.3701L68.843 8.29517L64.4086 6.61853L63.5917 8.94265L67.2763 10.3519L66.5987 12.2769Z" fill="black"/>
<path d="M66.5987 12.2769L62.9141 10.8677L61.9558 13.5447L66.3678 15.2224L65.6902 17.1474L58.8444 14.537L62.6748 3.7597L69.5206 6.3701L68.843 8.29517L64.4086 6.61853L63.5917 8.94265L67.2763 10.3519L66.5987 12.2769Z" fill="#269FF7"/>
<path d="M77.1959 18.8822L73.987 16.5737L72.4109 18.9313L76.2436 21.6976L75.1085 23.3886L69.1288 19.076L75.4778 9.64369L81.4575 13.9563L80.3224 15.6473L76.4665 12.8589L75.0998 14.8837L78.332 17.2143L77.1959 18.8822Z" fill="black"/>
<path d="M77.1959 18.8822L73.987 16.5737L72.4109 18.9313L76.2436 21.6976L75.1085 23.3886L69.1288 19.076L75.4778 9.64369L81.4575 13.9563L80.3224 15.6473L76.4665 12.8589L75.0998 14.8837L78.332 17.2143L77.1959 18.8822Z" fill="#269FF7"/>
<path d="M47.5011 58.5588H24.6636V54.1912L35.4416 43.1176C36.9214 41.5588 38.0122 40.1985 38.714 39.0368C39.431 37.875 39.7895 36.7721 39.7895 35.7279C39.7895 34.3015 39.4157 33.1838 38.6682 32.375C37.9207 31.5515 36.8528 31.1397 35.4645 31.1397C33.9695 31.1397 32.7872 31.6397 31.9176 32.6397C31.0633 33.625 30.6362 34.9265 30.6362 36.5441H24C24 34.5882 24.4805 32.8015 25.4416 31.1838C26.418 29.5662 27.791 28.3015 29.5606 27.3897C31.3303 26.4632 33.3364 26 35.5789 26C39.0114 26 41.6735 26.7941 43.5652 28.3824C45.4722 29.9706 46.4256 32.2132 46.4256 35.1103C46.4256 36.6985 45.9985 38.3162 45.1442 39.9632C44.2899 41.6103 42.8253 43.5294 40.7506 45.7206L33.1762 53.4191H47.5011V58.5588Z" fill="#333333"/>
<path d="M74 45.2794C74 49.7206 73.0465 53.1176 71.1396 55.4706C69.2326 57.8235 66.4409 59 62.7643 59C59.1335 59 56.357 57.8456 54.4348 55.5368C52.5126 53.2279 51.5286 49.9191 51.4828 45.6103V39.6985C51.4828 35.2132 52.4439 31.8088 54.3661 29.4853C56.3036 27.1618 59.0877 26 62.7185 26C66.3494 26 69.1259 27.1544 71.0481 29.4632C72.9703 31.7574 73.9542 35.0588 74 39.3676V45.2794ZM67.3867 38.7941C67.3867 36.1324 67.0053 34.1985 66.2426 32.9926C65.495 31.7721 64.3204 31.1618 62.7185 31.1618C61.1625 31.1618 60.0107 31.7426 59.2632 32.9044C58.5309 34.0515 58.1419 35.8529 58.0961 38.3088V46.1176C58.0961 48.7353 58.4622 50.6838 59.1945 51.9632C59.942 53.2279 61.132 53.8603 62.7643 53.8603C64.3814 53.8603 65.5484 53.25 66.2654 52.0294C66.9825 50.8088 67.3562 48.9412 67.3867 46.4265V38.7941Z" fill="#333333"/>
<path d="M41.3231 62.2674V76.7326H37.5848V65.3957H34.2864L34.0536 69.861C33.907 72.2406 33.4543 73.9742 32.6954 75.0615C31.9366 76.1488 30.8069 76.7059 29.3064 76.7326H28.0388L28 73.5909L28.4657 73.5508C29.1383 73.4973 29.6298 73.0873 29.9403 72.3209C30.2507 71.5544 30.4447 70.2487 30.5223 68.4037L30.781 62.2674H41.3231Z" fill="#333333"/>
<path d="M50.6492 77C48.5969 77 46.9239 76.3494 45.6304 75.0481C44.3456 73.7469 43.7031 72.0134 43.7031 69.8476V69.4733C43.7031 68.0205 43.9747 66.7237 44.518 65.5829C45.0613 64.4332 45.8288 63.5508 46.8204 62.9358C47.8208 62.3119 48.959 62 50.2353 62C52.1497 62 53.6545 62.6239 54.7496 63.8717C55.8534 65.1194 56.4053 66.8886 56.4053 69.1791V70.7567H47.4931C47.6138 71.7014 47.976 72.459 48.5796 73.0294C49.1919 73.5998 49.9637 73.885 50.895 73.885C52.3351 73.885 53.4604 73.3458 54.271 72.2674L56.1078 74.393C55.5473 75.213 54.7884 75.8547 53.8312 76.3182C52.874 76.7727 51.8134 77 50.6492 77ZM50.2224 65.1283C49.4808 65.1283 48.8771 65.3868 48.4115 65.9037C47.9544 66.4207 47.6612 67.1604 47.5319 68.123H52.7318V67.8155C52.7145 66.9599 52.4903 66.3004 52.0591 65.8369C51.628 65.3645 51.0157 65.1283 50.2224 65.1283Z" fill="#333333"/>
<path d="M70 65.369H65.5116V76.7326H61.7604V65.369H57.3496V62.2674H70V65.369Z" fill="#333333"/>
<defs>
<linearGradient id="paint0_linear_1_1404" x1="49.2871" y1="22.8781" x2="49.2871" y2="94.3795" gradientUnits="userSpaceOnUse">
<stop stop-color="#FFDB00"/>
<stop offset="1" stop-color="#FF8A00"/>
</linearGradient>
<linearGradient id="paint1_linear_1_1404" x1="49.2871" y1="22.8781" x2="49.2871" y2="94.3795" gradientUnits="userSpaceOnUse">
<stop stop-color="#FFDB00"/>
<stop offset="1" stop-color="#FF8A00"/>
</linearGradient>
<linearGradient id="paint2_linear_1_1404" x1="49.2871" y1="22.8781" x2="49.2871" y2="94.3795" gradientUnits="userSpaceOnUse">
<stop stop-color="#FFDB00"/>
<stop offset="1" stop-color="#FF8A00"/>
</linearGradient>
<linearGradient id="paint3_linear_1_1404" x1="49.2871" y1="22.8781" x2="49.2871" y2="94.3795" gradientUnits="userSpaceOnUse">
<stop stop-color="#FFDB00"/>
<stop offset="1" stop-color="#FF8A00"/>
</linearGradient>
<linearGradient id="paint4_linear_1_1404" x1="49.2871" y1="22.8781" x2="49.2871" y2="94.3795" gradientUnits="userSpaceOnUse">
<stop stop-color="#FFDB00"/>
<stop offset="1" stop-color="#FF8A00"/>
</linearGradient>
<linearGradient id="paint5_linear_1_1404" x1="49.2871" y1="22.8781" x2="49.2871" y2="94.3795" gradientUnits="userSpaceOnUse">
<stop stop-color="#FFDB00"/>
<stop offset="1" stop-color="#FF8A00"/>
</linearGradient>
<linearGradient id="paint6_linear_1_1404" x1="49.2871" y1="22.8781" x2="49.2871" y2="94.3795" gradientUnits="userSpaceOnUse">
<stop stop-color="#FFDB00"/>
<stop offset="1" stop-color="#FF8A00"/>
</linearGradient>
<linearGradient id="paint7_linear_1_1404" x1="49.2871" y1="22.8781" x2="49.2871" y2="94.3795" gradientUnits="userSpaceOnUse">
<stop stop-color="#FFDB00"/>
<stop offset="1" stop-color="#FF8A00"/>
</linearGradient>
<linearGradient id="paint8_linear_1_1404" x1="49.2871" y1="22.8781" x2="49.2871" y2="94.3795" gradientUnits="userSpaceOnUse">
<stop stop-color="#FFDB00"/>
<stop offset="1" stop-color="#FF8A00"/>
</linearGradient>
<linearGradient id="paint9_linear_1_1404" x1="49.2871" y1="22.8781" x2="49.2871" y2="94.3795" gradientUnits="userSpaceOnUse">
<stop stop-color="#FFDB00"/>
<stop offset="1" stop-color="#FF8A00"/>
</linearGradient>
<linearGradient id="paint10_linear_1_1404" x1="49.2871" y1="22.8781" x2="49.2871" y2="94.3795" gradientUnits="userSpaceOnUse">
<stop stop-color="#FFDB00"/>
<stop offset="1" stop-color="#FF8A00"/>
</linearGradient>
<linearGradient id="paint11_linear_1_1404" x1="49.2871" y1="22.8781" x2="49.2871" y2="94.3795" gradientUnits="userSpaceOnUse">
<stop stop-color="#FFDB00"/>
<stop offset="1" stop-color="#FF8A00"/>
</linearGradient>
<linearGradient id="paint12_linear_1_1404" x1="49.2871" y1="22.8781" x2="49.2871" y2="94.3795" gradientUnits="userSpaceOnUse">
<stop stop-color="#FFDB00"/>
<stop offset="1" stop-color="#FF8A00"/>
</linearGradient>
<linearGradient id="paint13_linear_1_1404" x1="49.2871" y1="22.8781" x2="49.2871" y2="94.3795" gradientUnits="userSpaceOnUse">
<stop stop-color="#FFDB00"/>
<stop offset="1" stop-color="#FF8A00"/>
</linearGradient>
<linearGradient id="paint14_linear_1_1404" x1="49.2871" y1="22.8781" x2="49.2871" y2="94.3795" gradientUnits="userSpaceOnUse">
<stop stop-color="#FFDB00"/>
<stop offset="1" stop-color="#FF8A00"/>
</linearGradient>
<linearGradient id="paint15_linear_1_1404" x1="49.2871" y1="22.8781" x2="49.2871" y2="94.3795" gradientUnits="userSpaceOnUse">
<stop stop-color="#FFDB00"/>
<stop offset="1" stop-color="#FF8A00"/>
</linearGradient>
<linearGradient id="paint16_linear_1_1404" x1="49.2871" y1="22.8781" x2="49.2871" y2="94.3795" gradientUnits="userSpaceOnUse">
<stop stop-color="#FFDB00"/>
<stop offset="1" stop-color="#FF8A00"/>
</linearGradient>
<linearGradient id="paint17_linear_1_1404" x1="49.2871" y1="22.8781" x2="49.2871" y2="94.3795" gradientUnits="userSpaceOnUse">
<stop stop-color="#FFDB00"/>
<stop offset="1" stop-color="#FF8A00"/>
</linearGradient>
<linearGradient id="paint18_linear_1_1404" x1="49.2871" y1="22.8781" x2="49.2871" y2="94.3795" gradientUnits="userSpaceOnUse">
<stop stop-color="#FFDB00"/>
<stop offset="1" stop-color="#FF8A00"/>
</linearGradient>
<linearGradient id="paint19_linear_1_1404" x1="49.2871" y1="22.8781" x2="49.2871" y2="94.3795" gradientUnits="userSpaceOnUse">
<stop stop-color="#FFDB00"/>
<stop offset="1" stop-color="#FF8A00"/>
</linearGradient>
<linearGradient id="paint20_linear_1_1404" x1="49.2871" y1="22.8781" x2="49.2871" y2="94.3795" gradientUnits="userSpaceOnUse">
<stop stop-color="#FFDB00"/>
<stop offset="1" stop-color="#FF8A00"/>
</linearGradient>
<linearGradient id="paint21_linear_1_1404" x1="49.2871" y1="22.8781" x2="49.2871" y2="94.3795" gradientUnits="userSpaceOnUse">
<stop stop-color="#FFDB00"/>
<stop offset="1" stop-color="#FF8A00"/>
</linearGradient>
<linearGradient id="paint22_linear_1_1404" x1="49.2871" y1="22.8781" x2="49.2871" y2="94.3795" gradientUnits="userSpaceOnUse">
<stop stop-color="#FFDB00"/>
<stop offset="1" stop-color="#FF8A00"/>
</linearGradient>
<linearGradient id="paint23_linear_1_1404" x1="49.2871" y1="22.8781" x2="49.2871" y2="94.3795" gradientUnits="userSpaceOnUse">
<stop stop-color="#FFDB00"/>
<stop offset="1" stop-color="#FF8A00"/>
</linearGradient>
<linearGradient id="paint24_linear_1_1404" x1="49.2871" y1="22.8781" x2="49.2871" y2="94.3795" gradientUnits="userSpaceOnUse">
<stop stop-color="#FFDB00"/>
<stop offset="1" stop-color="#FF8A00"/>
</linearGradient>
<linearGradient id="paint25_linear_1_1404" x1="49.2871" y1="22.8781" x2="49.2871" y2="94.3795" gradientUnits="userSpaceOnUse">
<stop stop-color="#FFDB00"/>
<stop offset="1" stop-color="#FF8A00"/>
</linearGradient>
<linearGradient id="paint26_linear_1_1404" x1="49.2871" y1="22.8781" x2="49.2871" y2="94.3795" gradientUnits="userSpaceOnUse">
<stop stop-color="#FFDB00"/>
<stop offset="1" stop-color="#FF8A00"/>
</linearGradient>
<linearGradient id="paint27_linear_1_1404" x1="49.2871" y1="22.8781" x2="49.2871" y2="94.3795" gradientUnits="userSpaceOnUse">
<stop stop-color="#FFDB00"/>
<stop offset="1" stop-color="#FF8A00"/>
</linearGradient>
<linearGradient id="paint28_linear_1_1404" x1="49.2871" y1="22.8781" x2="49.2871" y2="94.3795" gradientUnits="userSpaceOnUse">
<stop stop-color="#FFDB00"/>
<stop offset="1" stop-color="#FF8A00"/>
</linearGradient>
<linearGradient id="paint29_linear_1_1404" x1="49.2871" y1="22.8781" x2="49.2871" y2="94.3795" gradientUnits="userSpaceOnUse">
<stop stop-color="#FFDB00"/>
<stop offset="1" stop-color="#FF8A00"/>
</linearGradient>
<linearGradient id="paint30_linear_1_1404" x1="49.2871" y1="22.8781" x2="49.2871" y2="94.3795" gradientUnits="userSpaceOnUse">
<stop stop-color="#FFDB00"/>
<stop offset="1" stop-color="#FF8A00"/>
</linearGradient>
<linearGradient id="paint31_linear_1_1404" x1="49.2871" y1="22.8781" x2="49.2871" y2="94.3795" gradientUnits="userSpaceOnUse">
<stop stop-color="#FFDB00"/>
<stop offset="1" stop-color="#FF8A00"/>
</linearGradient>
<linearGradient id="paint32_linear_1_1404" x1="49.2871" y1="22.8781" x2="49.2871" y2="94.3795" gradientUnits="userSpaceOnUse">
<stop stop-color="#FFDB00"/>
<stop offset="1" stop-color="#FF8A00"/>
</linearGradient>
<linearGradient id="paint33_linear_1_1404" x1="49.2871" y1="22.8781" x2="49.2871" y2="94.3795" gradientUnits="userSpaceOnUse">
<stop stop-color="#FFDB00"/>
<stop offset="1" stop-color="#FF8A00"/>
</linearGradient>
<linearGradient id="paint34_linear_1_1404" x1="49.2871" y1="22.8781" x2="49.2871" y2="94.3795" gradientUnits="userSpaceOnUse">
<stop stop-color="#FFDB00"/>
<stop offset="1" stop-color="#FF8A00"/>
</linearGradient>
<linearGradient id="paint35_linear_1_1404" x1="49.2871" y1="22.8781" x2="49.2871" y2="94.3795" gradientUnits="userSpaceOnUse">
<stop stop-color="#FFDB00"/>
<stop offset="1" stop-color="#FF8A00"/>
</linearGradient>
<linearGradient id="paint36_linear_1_1404" x1="49.2871" y1="22.8781" x2="49.2871" y2="94.3795" gradientUnits="userSpaceOnUse">
<stop stop-color="#FFDB00"/>
<stop offset="1" stop-color="#FF8A00"/>
</linearGradient>
<linearGradient id="paint37_linear_1_1404" x1="49.2871" y1="22.8781" x2="49.2871" y2="94.3795" gradientUnits="userSpaceOnUse">
<stop stop-color="#FFDB00"/>
<stop offset="1" stop-color="#FF8A00"/>
</linearGradient>
<linearGradient id="paint38_linear_1_1404" x1="49.2871" y1="22.8781" x2="49.2871" y2="94.3795" gradientUnits="userSpaceOnUse">
<stop stop-color="#FFDB00"/>
<stop offset="1" stop-color="#FF8A00"/>
</linearGradient>
<linearGradient id="paint39_linear_1_1404" x1="49.2871" y1="22.8781" x2="49.2871" y2="94.3795" gradientUnits="userSpaceOnUse">
<stop stop-color="#FFDB00"/>
<stop offset="1" stop-color="#FF8A00"/>
</linearGradient>
<linearGradient id="paint40_linear_1_1404" x1="49.2871" y1="22.8781" x2="49.2871" y2="94.3795" gradientUnits="userSpaceOnUse">
<stop stop-color="#FFDB00"/>
<stop offset="1" stop-color="#FF8A00"/>
</linearGradient>
</defs>
</svg>
