<svg width="46" height="50" viewBox="0 0 46 50" fill="none" xmlns="http://www.w3.org/2000/svg">
<g filter="url(#filter0_d_969_134)">
<path d="M32.1924 9.80218C29.7371 7.3504 26.4724 6 22.9999 6C19.5276 6 16.2629 7.3504 13.8076 9.80218C11.3523 12.254 10 15.5139 10 18.9813C10 22.4488 11.3523 25.7088 13.8076 28.1606L20.7142 35.0575C21.323 35.6654 22.1346 36 22.9999 36C23.8649 36 24.6766 35.6654 25.2853 35.0575L32.1924 28.1606C34.6479 25.7088 36 22.4488 36 18.9813C36 15.5139 34.6479 12.254 32.1924 9.80218Z" fill="#269FF7"/>
</g>
<path d="M27.9336 16.1988C25.1232 15.7077 23.4637 18.4298 21.9115 20.4101C21.1427 21.3871 20.1292 22.4738 18.8711 22.5784C17.6472 22.6776 16.5358 21.7319 16.3498 20.4414C16.1639 19.1143 17.0256 17.714 18.274 17.5939C19.8307 17.4475 20.2961 18.3097 21.0399 18.9889L21.8968 17.9334C21.8919 17.9282 21.8919 17.9282 21.8919 17.9282L22.0045 17.7819C20.7463 16.8833 20.6337 14.5791 21.7696 13.5184C22.9054 12.4526 24.5995 12.719 25.6277 13.8058C24.7317 11.5748 21.8577 11.486 20.4233 13.1266C19.6496 14.0044 19.3707 15.1904 19.5273 16.3033C19.1798 16.1883 18.8221 16.1257 18.4551 16.1518C17.1578 16.2301 15.9681 17.0661 15.3804 18.3044C14.2201 20.7758 15.8502 23.8062 18.4257 23.9891C21.1476 24.1928 22.6852 21.502 24.2174 19.574C24.9959 18.5918 26.0339 17.5573 27.3165 17.552C28.5453 17.552 29.6028 18.5814 29.686 19.8928C29.7741 21.1259 28.9666 22.2753 27.8308 22.5365C26.7341 22.7873 25.7451 21.8678 24.9715 21.1572L24.1146 22.2126C25.0106 23.0382 26.1416 23.9891 27.385 23.9891C28.6873 23.9891 29.9214 23.1792 30.5478 21.9775C31.7668 19.642 30.3961 16.6272 27.9336 16.1988Z" fill="white"/>
<defs>
<filter id="filter0_d_969_134" x="0" y="0" width="46" height="50" filterUnits="userSpaceOnUse" color-interpolation-filters="sRGB">
<feFlood flood-opacity="0" result="BackgroundImageFix"/>
<feColorMatrix in="SourceAlpha" type="matrix" values="0 0 0 0 0 0 0 0 0 0 0 0 0 0 0 0 0 0 127 0" result="hardAlpha"/>
<feOffset dy="4"/>
<feGaussianBlur stdDeviation="5"/>
<feColorMatrix type="matrix" values="0 0 0 0 0.149028 0 0 0 0 0.623258 0 0 0 0 0.966667 0 0 0 0.25 0"/>
<feBlend mode="normal" in2="BackgroundImageFix" result="effect1_dropShadow_969_134"/>
<feBlend mode="normal" in="SourceGraphic" in2="effect1_dropShadow_969_134" result="shape"/>
</filter>
</defs>
</svg>
