<svg width="40" height="29" viewBox="0 0 40 29" fill="none" xmlns="http://www.w3.org/2000/svg">
<path d="M31.7128 9.85051C24.8218 8.69829 20.7528 15.0846 16.9468 19.7303C15.0618 22.0224 12.5768 24.572 9.49177 24.8172C6.49077 25.0501 3.76578 22.8315 3.30978 19.8038C2.85378 16.6903 4.96678 13.4053 8.02778 13.1234C11.8448 12.7801 12.9858 14.8027 14.8098 16.3962L16.9108 13.9201C16.8988 13.9079 16.8988 13.9079 16.8988 13.9079L17.1748 13.5646C14.0898 11.4563 13.8138 6.05063 16.5988 3.56231C19.3838 1.06174 23.5378 1.68689 26.0588 4.23649C23.8618 -0.997549 16.8148 -1.20593 13.2978 2.64299C11.4008 4.70228 10.7168 7.48478 11.1008 10.0957C10.2488 9.826 9.37178 9.67891 8.47178 9.74019C5.29078 9.92406 2.37378 11.8853 0.932781 14.7904C-1.91222 20.5883 2.08478 27.6978 8.39978 28.1268C15.0738 28.6048 18.8438 22.2921 22.6008 17.769C24.5098 15.4646 27.0548 13.0376 30.1998 13.0253C33.2128 13.0253 35.8058 15.4401 36.0098 18.5167C36.2258 21.4096 34.2458 24.1063 31.4608 24.7191C28.7718 25.3075 26.3468 23.1502 24.4498 21.4831L22.3488 23.9592C24.5458 25.8959 27.3188 28.1268 30.3678 28.1268C33.5608 28.1268 36.5868 26.2268 38.1228 23.4076C41.1118 17.9284 37.7508 10.8557 31.7128 9.85051Z" fill="#4C6A9A"/>
</svg>
