<svg width="88" height="98" viewBox="0 0 88 98" fill="none" xmlns="http://www.w3.org/2000/svg">
<path d="M57.1667 98C45.459 98 35.9333 88.4744 35.9333 76.7666C35.9333 65.0589 45.459 55.5333 57.1667 55.5333C68.8745 55.5333 78.4001 65.0589 78.4001 76.7666C78.4001 88.4744 68.8745 98 57.1667 98ZM57.1667 60.4333C48.1605 60.4333 40.8334 67.7604 40.8334 76.7666C40.8334 85.7728 48.1605 93.1 57.1667 93.1C66.1729 93.1 73.5001 85.7728 73.5001 76.7666C73.5001 67.7604 66.1729 60.4333 57.1667 60.4333Z" fill="#269FF7"/>
<path d="M54.7167 74.3167H59.6167V85.7501H54.7167V74.3167Z" fill="#333333"/>
<path d="M57.1667 70.2335C58.5198 70.2335 59.6167 69.1366 59.6167 67.7835C59.6167 66.4304 58.5198 65.3335 57.1667 65.3335C55.8136 65.3335 54.7167 66.4304 54.7167 67.7835C54.7167 69.1366 55.8136 70.2335 57.1667 70.2335Z" fill="#333333"/>
<path d="M30.0207 88.2001H8.98335C4.03107 88.2001 0 84.1723 0 79.2168V38.3834C0 33.4278 4.03107 29.4 8.98335 29.4H15.1247V34.3H8.98335C6.73261 34.3 4.90001 36.1326 4.90001 38.3834V79.2168C4.90001 81.4675 6.73261 83.3001 8.98335 83.3001H30.0207V88.2001Z" fill="#269FF7"/>
<path d="M55.5334 48.4774H50.6334V38.3834C50.6334 36.1326 48.8008 34.3 46.5501 34.3H40.4414V29.4H46.5501C51.5024 29.4 55.5334 33.4278 55.5334 38.3834V48.4774Z" fill="#269FF7"/>
<path d="M36.7501 40.8334H18.7834C15.631 40.8334 13.0667 38.2691 13.0667 35.1167V28.5834C13.0667 27.231 14.1643 26.1334 15.5167 26.1334H19.1231C20.1913 22.3669 23.6638 19.6 27.7667 19.6C31.8697 19.6 35.3421 22.3669 36.4103 26.1334H40.0167C41.3691 26.1334 42.4667 27.231 42.4667 28.5834V35.1167C42.4667 38.2691 39.9024 40.8334 36.7501 40.8334ZM17.9667 31.0334V35.1167C17.9667 35.5675 18.3326 35.9334 18.7834 35.9334H36.7501C37.2009 35.9334 37.5667 35.5675 37.5667 35.1167V31.0334H34.3001C32.9477 31.0334 31.8501 29.9358 31.8501 28.5834C31.8501 26.3326 30.0175 24.5 27.7667 24.5C25.516 24.5 23.6834 26.3326 23.6834 28.5834C23.6834 29.9358 22.5858 31.0334 21.2334 31.0334H17.9667Z" fill="#269FF7"/>
<path d="M12.25 45.7335H43.2834V50.6335H12.25V45.7335Z" fill="#333333"/>
<path d="M12.25 55.5333H35.672V60.4333H12.25V55.5333Z" fill="#333333"/>
<path d="M12.25 65.3335H30.0207V70.2335H12.25V65.3335Z" fill="#333333"/>
<path d="M82.4834 62.8835C79.7819 62.8835 77.5834 60.685 77.5834 57.9834C77.5834 55.2819 79.7819 53.0834 82.4834 53.0834C85.185 53.0834 87.3835 55.2819 87.3835 57.9834C87.3835 60.685 85.185 62.8835 82.4834 62.8835ZM82.4834 56.3501C81.5818 56.3501 80.8501 57.0851 80.8501 57.9834C80.8501 58.8818 81.5818 59.6168 82.4834 59.6168C83.385 59.6168 84.1168 58.8818 84.1168 57.9834C84.1168 57.0851 83.385 56.3501 82.4834 56.3501Z" fill="#A4AFC1"/>
<path d="M33.8917 10.6166H40.4251V13.8833H33.8917V10.6166Z" fill="#A4AFC1"/>
<path d="M15.1083 10.6166H21.6417V13.8833H15.1083V10.6166Z" fill="#A4AFC1"/>
<path d="M26.5417 0H29.8084V6.53334H26.5417V0Z" fill="#A4AFC1"/>
</svg>
