<svg width="73" height="46" viewBox="0 0 73 46" fill="none" xmlns="http://www.w3.org/2000/svg">
<path d="M67.2426 14.667L50.1122 3.06902C47.1466 1.0612 43.6835 0 40.0974 0H0V38.5954H59.8482C67.1001 38.5954 73 32.7201 73 25.4982C73 21.1569 70.8476 17.1077 67.2426 14.667ZM33.0781 4.25957H40.0972C42.8225 4.25943 45.4539 5.06591 47.7072 6.59155L59.6366 14.6683H35.5645C34.1937 14.6683 33.0781 13.5575 33.0781 12.1923V4.25957ZM59.8482 34.3357H4.27734V4.25943H28.8008V12.1922C28.8008 15.9062 31.835 18.9277 35.5645 18.9277H65.7826C67.6411 20.5912 68.7227 22.971 68.7227 25.498C68.7227 30.371 64.7416 34.3357 59.8482 34.3357Z" fill="#4C6A9A"/>
<path d="M9.36268 6.62406V18.9277H23.7631V6.62406H9.36268ZM19.4857 14.6681H13.64V10.8836H19.4857V14.6681Z" fill="#4C6A9A"/>
<path d="M39.1135 22.95H34.8361V27.2096H39.1135V22.95Z" fill="#4C6A9A"/>
<path d="M47.0508 22.95H42.7734V27.2096H47.0508V22.95Z" fill="#4C6A9A"/>
<path d="M54.9881 22.95H50.7108V27.2096H54.9881V22.95Z" fill="#4C6A9A"/>
<path d="M60.5957 41.7404H0V46H60.5957V41.7404Z" fill="#4C6A9A"/>
</svg>
