<svg width="92" height="48" viewBox="0 0 92 48" fill="none" xmlns="http://www.w3.org/2000/svg">
<path d="M9.42379 2.05673L9.42379 2.05674L2.4067 19.7136L2.40669 19.7137C2.40663 19.7138 2.40647 19.7142 2.40623 19.7148C2.39686 19.7376 2.25625 20.0866 2.25625 20.4615V29.2249C1.44547 29.4467 0.85 30.1922 0.85 31.0769V38.1538C0.85 39.2127 1.70321 40.0731 2.75781 40.0731H18.4296C18.5093 43.9883 21.6984 47.15 25.6094 47.15C29.5203 47.15 32.7095 43.9883 32.7891 40.0731H63.4296C63.5093 43.9883 66.6984 47.15 70.6094 47.15C74.5203 47.15 77.7095 43.9883 77.7891 40.0731H89.2422C90.2968 40.0731 91.15 39.2127 91.15 38.1538V31.0769C91.15 30.018 90.2968 29.1577 89.2422 29.1577H88.6891V27.5385C88.6891 22.5788 84.68 18.5423 79.75 18.5423H74.0157L69.2953 6.53624C67.9376 3.08272 64.6747 0.85 60.9834 0.85H11.1953C10.4146 0.85 9.71333 1.32827 9.42379 2.05673ZM39.3066 9.13366L39.446 9.18906L39.3066 9.13366L35.5675 18.5423H6.98155L12.4873 4.68846H60.9834C63.0914 4.68846 64.9551 5.95791 65.7389 7.92692H41.0781C40.2974 7.92692 39.5961 8.40519 39.3066 9.13366ZM68.4956 37.3637L68.6056 37.2882L68.5736 37.2274C69.1395 36.7929 69.845 36.5346 70.6094 36.5346C72.4641 36.5346 73.975 38.0539 73.975 39.9231C73.975 41.7923 72.4641 43.3115 70.6094 43.3115C68.7546 43.3115 67.2438 41.7923 67.2438 39.9231C67.2438 39.035 67.5875 38.2278 68.1455 37.6226C68.2607 37.5323 68.3768 37.4453 68.4956 37.3637ZM57.0484 11.7654H67.208L69.9013 18.5423H57.0484V11.7654ZM7.88125 36.2346H4.66563V32.9962H7.88125V36.2346ZM25.6094 43.3115C23.7546 43.3115 22.2437 41.7923 22.2437 39.9231C22.2437 38.0539 23.7546 36.5346 25.6094 36.5346C27.4641 36.5346 28.975 38.0539 28.975 39.9231C28.975 41.7923 27.4641 43.3115 25.6094 43.3115ZM53.2328 36.2346H31.7808C30.5276 34.1188 28.2317 32.6962 25.6094 32.6962C22.9871 32.6962 20.6913 34.1188 19.4379 36.2346H11.6969V31.0769C11.6969 30.018 10.8437 29.1577 9.78906 29.1577H6.07188V22.3808H53.2328V36.2346ZM53.2328 18.5423H39.6769L42.3701 11.7654H53.2328V18.5423ZM80.3031 31.0769V36.2346H76.7808C75.5276 34.1188 73.2317 32.6962 70.6094 32.6962C67.9871 32.6962 65.6913 34.1188 64.4379 36.2346H57.0484V22.3808H79.75C82.574 22.3808 84.8734 24.6937 84.8734 27.5385V29.1577H82.2109C81.1563 29.1577 80.3031 30.018 80.3031 31.0769ZM87.3344 36.2346H84.1188V32.9962H87.3344V36.2346ZM31.5859 9.69615H24.5547C23.5024 9.69615 22.6469 10.5586 22.6469 11.6154C22.6469 12.6722 23.5024 13.5346 24.5547 13.5346H31.5859C32.6401 13.5346 33.4938 12.6721 33.4938 11.6154C33.4938 10.5587 32.6401 9.69615 31.5859 9.69615ZM17.5234 9.69615C16.4711 9.69615 15.6156 10.5586 15.6156 11.6154C15.6156 12.6722 16.4711 13.5346 17.5234 13.5346C18.5776 13.5346 19.4312 12.6721 19.4312 11.6154C19.4312 10.5587 18.5776 9.69615 17.5234 9.69615ZM64.6328 25.6192H62.1719C61.1173 25.6192 60.2641 26.4796 60.2641 27.5385C60.2641 28.5973 61.1173 29.4577 62.1719 29.4577H64.6328C65.6874 29.4577 66.5406 28.5973 66.5406 27.5385C66.5406 26.4796 65.6874 25.6192 64.6328 25.6192Z" fill="#4C6A9A" stroke="#4C6A9A" stroke-width="0.3"/>
</svg>
