<svg width="24" height="24" viewBox="0 0 24 24" fill="none" xmlns="http://www.w3.org/2000/svg">
<path d="M23.4665 20.856L18.5194 15.909C19.7116 14.188 20.308 12.2693 20.308 10.1542C20.308 8.77915 20.0411 7.46412 19.5072 6.20936C18.9737 4.95439 18.2524 3.8727 17.3438 2.96404C16.4351 2.05537 15.3536 1.33413 14.0989 0.800557C12.8438 0.266836 11.5289 0 10.1539 0C8.77904 0 7.46403 0.266836 6.20928 0.800557C4.95433 1.33413 3.87265 2.05537 2.964 2.96404C2.05524 3.8727 1.33411 4.9546 0.800497 6.20936C0.266832 7.46427 0 8.77915 0 10.1542C0 11.529 0.266832 12.8436 0.800497 14.0987C1.33406 15.3535 2.05524 16.435 2.964 17.3437C3.87265 18.2527 4.95453 18.9736 6.20928 19.5075C7.46418 20.0411 8.77904 20.3079 10.1539 20.3079C12.2695 20.3079 14.1878 19.7114 15.909 18.5193L20.8561 23.4519C21.2022 23.8172 21.6343 24 22.154 24C22.654 24 23.0869 23.8173 23.452 23.4519C23.8172 23.0867 24 22.654 24 22.154C24.0002 21.6447 23.8223 21.2118 23.4665 20.856ZM14.7189 14.7186C13.4545 15.9833 11.9329 16.6155 10.1539 16.6155C8.37521 16.6155 6.85368 15.9831 5.58918 14.7186C4.32468 13.4542 3.69246 11.9329 3.69246 10.1538C3.69246 8.37511 4.32483 6.85331 5.58918 5.58905C6.85343 4.32448 8.37521 3.6923 10.1539 3.6923C11.9327 3.6923 13.4543 4.32474 14.7189 5.58905C15.9835 6.85331 16.6157 8.37511 16.6157 10.1538C16.6157 11.9329 15.9833 13.4542 14.7189 14.7186Z" fill="#4C6A9A"/>
</svg>
