<svg width="36" height="26" viewBox="0 0 36 26" fill="none" xmlns="http://www.w3.org/2000/svg">
<path d="M29.1006 9.09739C22.7772 8.03327 19.0433 13.9313 15.5508 18.2218C13.8211 20.3386 11.5408 22.6933 8.70992 22.9198C5.95612 23.1349 3.45559 21.0859 3.03715 18.2897C2.61871 15.4142 4.55766 12.3804 7.36652 12.12C10.8691 11.803 11.9161 13.6709 13.5899 15.1426L15.5178 12.8558C15.5068 12.8445 15.5068 12.8445 15.5068 12.8445L15.7601 12.5275C12.9292 10.5804 12.6759 5.58803 15.2315 3.28996C17.7871 0.980565 21.5989 1.55792 23.9123 3.91259C21.8962 -0.921281 15.4297 -1.11373 12.2024 2.44092C10.4617 4.34277 9.83402 6.91253 10.1864 9.3238C9.40457 9.07476 8.59982 8.93891 7.77395 8.99551C4.85497 9.16532 2.17825 10.9766 0.855947 13.6596C-1.75471 19.0142 1.91305 25.5801 7.70787 25.9763C13.8321 26.4178 17.2916 20.5877 20.7391 16.4104C22.4909 14.2822 24.8262 12.0408 27.7122 12.0294C30.477 12.0294 32.8564 14.2596 33.0436 17.101C33.2418 19.7727 31.4249 22.2632 28.8693 22.8292C26.4018 23.3726 24.1766 21.3802 22.4358 19.8406L20.5079 22.1274C22.5239 23.916 25.0685 25.9763 27.8663 25.9763C30.7963 25.9763 33.5731 24.2216 34.9826 21.6179C37.7253 16.5577 34.6412 10.0257 29.1006 9.09739Z" fill="#4C6A9A"/>
</svg>
