<svg width="22" height="24" viewBox="0 0 22 24" fill="none" xmlns="http://www.w3.org/2000/svg">
<path d="M20.2347 15.7533C18.8878 15.7533 17.5652 15.5234 16.312 15.0716C15.6979 14.8431 14.9429 15.0528 14.5681 15.4727L12.0945 17.5098C9.22571 15.8393 7.45861 13.9121 5.94818 10.8061L7.76059 8.17781C8.23147 7.66481 8.40037 6.91544 8.19802 6.21231C7.78208 4.83794 7.57079 3.39587 7.57079 1.92588C7.57085 0.863938 6.7789 0 5.80552 0H1.76532C0.791941 0 0 0.863937 0 1.92581C0 14.0977 9.07715 24 20.2347 24C21.2081 24 22 23.1361 22 22.0742V17.679C21.9999 16.6172 21.208 15.7533 20.2347 15.7533Z" fill="#4C6A9A"/>
</svg>
