<svg width="51" height="51" viewBox="0 0 51 51" fill="none" xmlns="http://www.w3.org/2000/svg">
<path d="M41.1923 0H9.80774C4.39975 0 0 4.39975 0 9.80774V41.1924C0 46.6003 4.39975 51 9.80774 51H41.1924C46.6003 51 51 46.6003 51 41.1923V9.80774C51 4.39975 46.6003 0 41.1923 0ZM23.5385 47.0769H9.80774C6.56296 47.0769 3.92312 44.437 3.92312 41.1923V27.4615H23.5385V47.0769ZM23.5385 23.5385H3.92312V9.80774C3.92312 6.56296 6.56296 3.92312 9.80774 3.92312H23.5385V23.5385ZM47.0769 41.1923C47.0769 44.437 44.437 47.0769 41.1923 47.0769H27.4615V27.4615H47.0769V41.1923ZM47.0769 23.5385H27.4615V3.92312H41.1923C44.437 3.92312 47.0769 6.56296 47.0769 9.80774V23.5385Z" fill="#4C6A9A"/>
<path d="M42.5 31.3846H32.0385V35.3077H42.5V31.3846Z" fill="#4C6A9A"/>
<path d="M42.5 11.7692H32.0385V15.6924H42.5V11.7692Z" fill="#4C6A9A"/>
<path d="M42.5 39.2308H32.0385V43.1539H42.5V39.2308Z" fill="#4C6A9A"/>
<path d="M19.0408 34.7331L16.2669 31.9592L13.7308 34.4952L11.1946 31.9592L8.42078 34.7331L10.9567 37.2692L8.42078 39.8054L11.1946 42.5792L13.7308 40.0433L16.2669 42.5792L19.0408 39.8054L16.5048 37.2692L19.0408 34.7331Z" fill="#4C6A9A"/>
<path d="M15.6923 12.0865V8.49997H11.7692V12.0865H8.18271V16.0095H11.7692V19.5961H15.6923V16.0095H19.2789V12.0865H15.6923Z" fill="#4C6A9A"/>
</svg>
