<svg width="48" height="53" viewBox="0 0 48 53" fill="none" xmlns="http://www.w3.org/2000/svg">
<path d="M24 0C12.768 0 3.62923 9.24881 3.62923 20.6177V24.4204H7.14148V20.6177C7.14148 11.215 14.7045 3.56508 24 3.56508C33.2955 3.56508 40.8585 11.2412 40.8585 20.6771V24.4204H44.3707V20.6771C44.3708 9.27562 35.232 0 24 0Z" fill="#4C6A9A"/>
<path d="M40.8585 39.2152V39.3935C40.8585 43.3251 37.7075 46.5235 33.8341 46.5235H28.9756V50.0886H33.8341C39.6439 50.0886 44.3707 45.2907 44.3707 39.3936V39.2153L40.8585 39.2152Z" fill="#4C6A9A"/>
<path d="M25.9317 42.8992H24C21.2564 42.8992 19.0244 45.1647 19.0244 47.9496C19.0244 50.7345 21.2564 53 24 53H25.9317C28.6747 53 30.9073 50.7345 30.9073 47.9496C30.9073 45.1647 28.6754 42.8992 25.9317 42.8992ZM25.9317 49.435H24C23.2202 49.435 22.5366 48.7411 22.5366 47.9496C22.5366 47.1581 23.2202 46.4641 24 46.4641H25.9317C26.7115 46.4641 27.3952 47.1581 27.3952 47.9496C27.3951 48.7826 26.7524 49.435 25.9317 49.435Z" fill="#4C6A9A"/>
<path d="M5.26828 26.2029H9.07312V22.6379H5.26828C2.36373 22.6379 0 25.0372 0 27.9855V35.7097C0 38.6585 2.36373 41.0572 5.26828 41.0572H9.01458V37.4916H5.26828C4.30006 37.4916 3.51215 36.6918 3.51215 35.7091V27.9848C3.51215 27.0021 4.30006 26.2029 5.26828 26.2029Z" fill="#4C6A9A"/>
<path d="M15.2195 21.4496H9.07312C8.10317 21.4496 7.31699 22.2476 7.31699 23.2321V40.4036C7.31699 41.3816 8.09318 42.1766 9.0567 42.1861L15.203 42.2456C15.2083 42.2456 15.2142 42.2456 15.2195 42.2456C15.6825 42.2456 16.1262 42.0602 16.4552 41.7298C16.7883 41.3948 16.9756 40.939 16.9756 40.4631V23.232C16.9756 22.2475 16.1894 21.4496 15.2195 21.4496ZM13.4634 38.6633L10.8292 38.6377V25.0145H13.4634V38.6633Z" fill="#4C6A9A"/>
<path d="M42.7317 22.6385H38.9269V26.2034H42.7317C43.6999 26.2034 44.4878 27.0026 44.4878 27.9853V35.7096C44.4878 36.6924 43.6999 37.4921 42.7317 37.4921H38.9854V41.0571H42.7317C45.6369 41.0571 48 38.6584 48 35.7102V27.986C48 25.0371 45.6369 22.6385 42.7317 22.6385Z" fill="#4C6A9A"/>
<path d="M38.9854 21.4496H32.7805C31.8106 21.4496 31.0244 22.2476 31.0244 23.2321V40.4036C31.0244 41.3881 31.8106 42.1861 32.7805 42.1861H38.9854C39.9554 42.1861 40.7415 41.3881 40.7415 40.4036V23.232C40.7414 22.2475 39.9554 21.4496 38.9854 21.4496ZM37.2293 38.6211H34.5366V25.0145H37.2293V38.6211Z" fill="#4C6A9A"/>
</svg>
