<svg width="50" height="50" viewBox="0 0 50 50" fill="none" xmlns="http://www.w3.org/2000/svg">
<path d="M45.6008 5.85938H37.2761V0H19.6104L13.7449 5.85938H4.39911C1.97344 5.85938 0 7.83076 0 10.2539V38.6949C0 41.1181 1.97344 43.0895 4.39911 43.0895H19.3691V45.6055C19.3691 46.4132 18.7113 47.0703 17.9027 47.0703H11.705V50H38.347V47.0703H32.0972C31.2886 47.0703 30.6308 46.4132 30.6308 45.6055V43.0895H45.6009C48.0266 43.0895 50 41.1181 50 38.6949V10.2539C49.9999 7.83076 48.0266 5.85938 45.6008 5.85938ZM15.7086 10.7183H23.5053V2.92969H34.3434V28.441H15.7086V10.7183ZM20.5726 3.18193V7.78857H15.9612L20.5726 3.18193ZM4.39911 8.78906H12.7759V31.3707H37.2761V8.78906H45.6008C46.4093 8.78906 47.0672 9.44619 47.0672 10.2539V34.3004H2.93274V10.2539C2.93274 9.44619 3.59046 8.78906 4.39911 8.78906ZM27.9503 47.0703H22.0496C22.2124 46.6118 22.3018 46.1189 22.3018 45.6055V43.0895H27.6981V45.6055C27.6981 46.1189 27.7875 46.6118 27.9503 47.0703ZM45.6008 40.1598H4.39911C3.59055 40.1598 2.93274 39.5026 2.93274 38.6949V37.2301H47.0673V38.6949C47.0672 39.5026 46.4094 40.1598 45.6008 40.1598Z" fill="#4C6A9A"/>
<path d="M18.6414 13.6479H31.4106V16.5776H18.6414V13.6479Z" fill="#4C6A9A"/>
<path d="M18.6414 19.5073H31.4106V22.437H18.6414V19.5073Z" fill="#4C6A9A"/>
</svg>
