<svg width="42" height="42" viewBox="0 0 42 42" fill="none" xmlns="http://www.w3.org/2000/svg">
<g clip-path="url(#clip0_1017_247)">
<path d="M30.1875 21H24.9375C24.2126 21 23.625 21.5876 23.625 22.3125V32.8125C23.625 33.5374 24.2126 34.125 24.9375 34.125H30.1875C31.6372 34.125 32.8125 32.9497 32.8125 31.5V23.625C32.8125 22.1753 31.6372 21 30.1875 21ZM30.1875 31.5H26.25V23.625H30.1875V31.5Z" fill="#269FF7"/>
<path d="M42 23.625V21H35.4375C34.7126 21 34.125 21.5876 34.125 22.3125V34.125H36.75V28.875H42V26.25H36.75V23.625H42Z" fill="#269FF7"/>
<path d="M2.625 38.0623V3.93728C2.625 3.21237 3.21259 2.62478 3.9375 2.62478H23.625V7.87478C23.625 9.32451 24.8003 10.4998 26.25 10.4998H31.5V14.4373H34.125V9.18728C34.1271 8.8384 33.9901 8.50305 33.7444 8.2554L25.8694 0.380402C25.6217 0.134718 25.2864 -0.00219195 24.9375 -0.000223198H3.9375C1.76285 -0.000223198 0 1.76271 0 3.93728V38.0623C0 40.2369 1.76285 41.9998 3.9375 41.9998H13.125V39.3748H3.9375C3.21267 39.3748 2.625 38.7872 2.625 38.0623Z" fill="#269FF7"/>
<path d="M19.6875 21H14.4375C13.7126 21 13.125 21.5876 13.125 22.3125V34.125H15.75V30.1875H19.6875C21.1372 30.1875 22.3125 29.0122 22.3125 27.5625V23.625C22.3125 22.1753 21.1372 21 19.6875 21ZM19.6875 27.5625H15.75V23.625H19.6875V27.5625Z" fill="#269FF7"/>
</g>
<defs>
<clipPath id="clip0_1017_247">
<rect width="42" height="42" fill="white"/>
</clipPath>
</defs>
</svg>
