<svg width="18" height="14" viewBox="0 0 18 14" fill="none" xmlns="http://www.w3.org/2000/svg">
<path d="M15.4021 0H2.59799C1.30662 0 0.232784 0.936875 0.0335519 2.15948L7.29722 6.14073C8.36355 6.72515 9.63662 6.72504 10.7028 6.14073L17.9665 2.15948C17.7673 0.936875 16.6934 0 15.4021 0Z" fill="#269FF7"/>
<path d="M11.5423 7.63918C10.7464 8.07543 9.8731 8.29364 9 8.29364C8.12673 8.29364 7.25374 8.07554 6.45773 7.63918L0 4.09972V11.4302C0 12.8471 1.16548 14 2.59799 14H15.402C16.8346 14.0001 18 12.8472 18 11.4302V4.09972L11.5423 7.63918Z" fill="#269FF7"/>
</svg>
